<?xml version="1.0" encoding="UTF-8"?>
<svg version="1.1" xmlns="http://www.w3.org/2000/svg" width="1147" height="265">
<path d="M0 0 C3.84391521 1.9219576 6.73232415 4.15621275 9.9375 6.9375 C11.1001946 7.93367057 12.26295694 8.92976209 13.42578125 9.92578125 C14.31450928 10.69075928 14.31450928 10.69075928 15.22119141 11.47119141 C18.0112085 13.86908971 20.81715202 16.24802814 23.625 18.625 C24.16713135 19.08463135 24.7092627 19.5442627 25.26782227 20.01782227 C28.60648451 22.8421487 31.97779612 25.62105366 35.375 28.375 C40.49813067 32.54221124 45.47594928 36.86312457 50.45263672 41.20263672 C54.08719203 44.36452443 57.75511868 47.46842941 61.5 50.5 C67.82873745 55.62862131 73.94705834 60.99274671 80.09033203 66.34033203 C87.21189213 72.52958869 94.34983693 78.69242134 101.6875 84.625 C105.40443618 87.6399087 108.9767821 90.7608322 112.5 94 C126.3132314 108.26155718 126.3132314 108.26155718 143 116 C144.68983371 105.27737775 145.33061757 94.84403904 145.4140625 84.00390625 C145.43283342 82.43349763 145.4524109 80.86309847 145.4727478 79.29270935 C145.52345084 75.21424003 145.56340168 71.13573822 145.60089111 67.05712891 C145.64846843 62.1341412 145.70979373 57.21130673 145.76873779 52.28844452 C145.85619337 44.85902701 145.92649679 37.42962749 146 30 C162.83 30 179.66 30 197 30 C197.02266826 51.37686981 197.04104941 72.75372973 197.05181217 94.13060856 C197.05694474 104.05867509 197.06392874 113.98673357 197.07543945 123.91479492 C197.08547998 132.57901705 197.09187546 141.24323333 197.09408849 149.90746111 C197.09537987 154.48514463 197.09836401 159.06281146 197.10573006 163.64048958 C197.18247894 213.37019031 197.18247894 213.37019031 195 227 C191.26589528 225.67860027 188.55199106 224.07621182 185.5 221.5625 C184.62859375 220.84707031 183.7571875 220.13164062 182.859375 219.39453125 C181.91578125 218.60433594 180.9721875 217.81414062 180 217 C178.99453125 216.15824219 177.9890625 215.31648437 176.953125 214.44921875 C170.11095556 208.69449754 163.32855702 202.86872969 156.546875 197.04296875 C154.16616839 194.99832321 151.78047191 192.95973474 149.390625 190.92578125 C143.957691 186.29641334 138.56889841 181.64330933 133.3125 176.8125 C129.85984304 173.64169258 126.34469034 170.61964969 122.6875 167.6875 C116.9451666 163.05578982 111.599357 158.05176537 106.22265625 153.0078125 C103.17862987 150.15453222 100.07033123 147.38811991 96.91015625 144.6640625 C94.63795489 142.68459874 92.41540128 140.6541683 90.1875 138.625 C86.81059018 135.57141133 83.36782868 132.65570795 79.8125 129.8125 C74.3698364 125.41799558 69.28465086 120.68890592 64.21411133 115.87231445 C63.60978271 115.29956787 63.0054541 114.72682129 62.3828125 114.13671875 C61.85059082 113.62842529 61.31836914 113.12013184 60.77001953 112.59643555 C58.59022658 110.63041263 56.29702485 108.82677946 54 107 C53.97716446 107.90994217 53.95432892 108.81988434 53.93080139 109.75740051 C53.71295942 118.41936004 53.49258479 127.08125089 53.26950932 135.74307728 C53.15496635 140.194001 53.0413332 144.64494372 52.92993164 149.09594727 C52.8219753 153.40785845 52.71143036 157.71969681 52.59924126 162.03149986 C52.55730259 163.65972327 52.51622852 165.28796922 52.4761219 166.91623878 C52.45701696 167.6896681 52.43791203 168.46309742 52.41822815 169.25996399 C52.39382833 170.26415863 52.39382833 170.26415863 52.36893559 171.28864002 C52.08300941 181.55181604 51.5403902 191.73258613 51 202 C34.17 202 17.34 202 0 202 C0 135.34 0 68.68 0 0 Z " fill="#000000" transform="translate(950,32)"/>
<path d="M0 0 C2.48336055 0.00315332 4.96551635 -0.02038547 7.44873047 -0.0456543 C40.26423986 -0.17600871 40.26423986 -0.17600871 51.24951172 8.31567383 C59.87219367 17.29440908 57.5106103 34.15550989 57.41748047 45.83520508 C57.10257737 60.03607536 57.10257737 60.03607536 54.24951172 64.31567383 C48.16673169 63.80192552 43.34324936 62.37919816 37.74951172 60.00317383 C16.179981 51.22432763 -7.80327383 47.03893372 -29.90869141 56.21118164 C-45.77819406 63.32922387 -57.39858083 72.71156489 -63.75048828 89.31567383 C-66.98154838 97.84660228 -67.03964151 106.35090851 -67.12548828 115.37817383 C-67.1395874 116.46646484 -67.15368652 117.55475586 -67.16821289 118.67602539 C-67.07787982 133.83826027 -62.66089397 147.44179998 -52.12548828 158.62817383 C-37.73271654 172.0803845 -20.95524297 177.74259709 -1.56298828 177.62817383 C-0.06469482 177.620802 -0.06469482 177.620802 1.46386719 177.61328125 C20.58274643 177.31382892 36.27834546 171.18568333 52.89013672 162.10864258 C56.24951172 160.31567383 56.24951172 160.31567383 57.24951172 160.31567383 C57.29937532 166.36221143 57.33544854 172.40862629 57.359375 178.45532227 C57.36936169 180.50742684 57.38295573 182.55951745 57.40039062 184.61157227 C57.623494 211.56770927 57.623494 211.56770927 53.74951172 219.31567383 C37.2825219 232.48926569 5.38343826 231.78349072 -14.6472168 229.59716797 C-45.38055488 225.72215469 -73.726172 213.74662014 -97.75048828 194.31567383 C-98.63091797 193.62989258 -99.51134766 192.94411133 -100.41845703 192.23754883 C-103.99267495 189.2919622 -106.81804998 185.88738368 -109.75048828 182.31567383 C-110.47751953 181.43782227 -111.20455078 180.5599707 -111.95361328 179.65551758 C-129.74277781 157.17703247 -134.23806201 128.34186915 -131.28564453 100.34692383 C-127.55549785 71.06957525 -112.28362203 45.84192118 -89.30126953 27.48754883 C-81.08478893 21.2348587 -72.14803496 16.53243278 -62.75048828 12.31567383 C-62.11997559 12.03208008 -61.48946289 11.74848633 -60.83984375 11.45629883 C-41.3330656 2.83856094 -21.20426184 -0.05598622 0 0 Z " fill="#000000" transform="translate(131.75048828125,34.684326171875)"/>
<path d="M0 0 C0.69706055 0.13921875 1.39412109 0.2784375 2.11230469 0.421875 C27.01493334 5.58155633 49.92263694 24.70175381 63.8125 45.74609375 C74.2221782 63.67676444 75.57028534 85.21807367 70.54345703 105.07080078 C63.67059554 129.46853281 48.0469626 150.45918383 26.125 163.25 C-3.22820103 179.62158835 -43.10797131 180.18593074 -75 171.25 C-99.79151373 162.68448352 -119.35608028 145.13566256 -131.515625 122.1328125 C-140.67754892 103.09146459 -143.85920271 79.6988449 -137.3125 59.30859375 C-132.76022143 47.8330582 -126.28068621 38.96592744 -118 30 C-117.52933105 29.48018555 -117.05866211 28.96037109 -116.57373047 28.42480469 C-86.55792563 -4.46781552 -41.71706187 -8.66072336 0 0 Z M-78.73925781 60.38330078 C-84.5680843 67.8578339 -89.56483133 76.35891351 -89 86 C-88.32458912 89.03162597 -87.38508731 91.93974322 -86.375 94.875 C-85.96894531 96.06863159 -85.96894531 96.06863159 -85.5546875 97.28637695 C-83.46840462 103.17517599 -80.97418867 108.14265829 -77 113 C-76.57460938 113.59554687 -76.14921875 114.19109375 -75.7109375 114.8046875 C-68.08130786 124.84367386 -55.30428066 131.10972644 -43 133 C-26.27094709 134.19953567 -10.57148553 131.85553426 2.6953125 120.7421875 C13.1901314 110.74861368 19.92749334 98.60750466 20.5 83.875 C20.18544471 75.38200712 17.18603178 67.71133525 12 61 C11.59265625 60.44957031 11.1853125 59.89914063 10.765625 59.33203125 C2.6699723 49.03054059 -10.21369832 42.30392799 -23 40 C-44.65126437 37.90970831 -64.14356963 43.41374784 -78.73925781 60.38330078 Z " fill="#000000" transform="translate(345,62)"/>
<path d="M0 0 C108.627079 0 108.627079 0 131.25 20.6875 C139.41711728 29.23486767 142.84050736 40.15786073 143.3125 51.75 C142.916599 65.80448538 138.34614622 78.65755582 128.6875 89 C121.04297781 96.0634352 111.79122653 98.98860902 102 102 C102.85722656 102.9178125 103.71445312 103.835625 104.59765625 104.78125 C113.35924438 114.17745711 121.82859929 123.75543115 130.109375 133.578125 C131.98659341 135.80400578 133.87177113 138.02263385 135.765625 140.234375 C141.06157347 146.43091791 146.21029501 152.71644245 151.20898438 159.15600586 C151.84416992 159.97403687 151.84416992 159.97403687 152.4921875 160.80859375 C153.10658691 161.60112549 153.10658691 161.60112549 153.73339844 162.40966797 C155.05660914 164.07107786 156.43399137 165.67622487 157.8203125 167.28515625 C160 170 160 170 160 172 C152.05474666 172.23246223 144.11092979 172.4097499 136.16310883 172.51812172 C132.47176922 172.57015727 128.78276733 172.64062604 125.09277344 172.75439453 C121.52638609 172.8636545 117.96223491 172.92295862 114.39430237 172.94877243 C112.3818673 172.97604592 110.37032409 173.05402495 108.35925293 173.13296509 C99.36378322 173.1384414 99.36378322 173.1384414 95.44586182 169.8678894 C93.39192358 167.33345826 91.67595597 164.79533835 90 162 C88.93989595 160.4712612 87.87343301 158.94688418 86.796875 157.4296875 C85.77819391 155.91350717 84.76262754 154.39523005 83.75 152.875 C79.15236027 146.05913007 74.38740958 139.42370527 69.40625 132.88427734 C64.01172432 125.76790273 58.9976702 118.39812596 54 111 C53.16280534 118.37367675 52.73364669 125.7184024 52.46484375 133.1328125 C52.42653442 134.12531006 52.3882251 135.11780762 52.34875488 136.14038086 C52.20831905 139.80179358 52.0732122 143.46340915 51.9375 147.125 C51.628125 155.33375 51.31875 163.5425 51 172 C34.17 172 17.34 172 0 172 C0 115.24 0 58.48 0 0 Z M54.625 35.5625 C51.03314406 40.95028391 50.71274345 46.81862072 50.8046875 53.12109375 C50.8075174 53.86585464 50.81034729 54.61061554 50.81326294 55.37794495 C50.82436083 57.73130101 50.8494449 60.08426109 50.875 62.4375 C50.88504328 64.04361425 50.89416676 65.64973454 50.90234375 67.25585938 C50.92426593 71.17072296 50.95872239 75.0852946 51 79 C64.45018298 77.29631016 77.19406879 75.27537468 86.73046875 64.6484375 C89.79954179 60.6633642 90.45873509 57.02672222 90.31640625 51.98828125 C89.62770949 47.66054479 86.97479331 44.89002867 83.84375 42.03125 C80.4395604 39.599686 77.09139725 38.18963097 73.1875 36.75 C72.51396484 36.481875 71.84042969 36.21375 71.14648438 35.9375 C65.80129925 33.9324162 59.71346406 32.21482628 54.625 35.5625 Z " fill="#000000" transform="translate(442,62)"/>
<path d="M0 0 C18.48 0 36.96 0 56 0 C60.29 7.92 64.58 15.84 69 24 C73.40415684 32.05867028 73.40415684 32.05867028 77.80859375 40.1171875 C80.19790818 44.50659301 82.55951711 48.91013328 84.91015625 53.3203125 C85.24454712 53.94711914 85.57893799 54.57392578 85.92346191 55.21972656 C87.56522758 58.29781452 89.20392478 61.37746669 90.83740234 64.45996094 C94.02954006 70.45262625 97.30951311 76.29970336 101 82 C112.65340089 76.76081509 120.2413379 54.78308656 126 44 C126.6177832 42.8440332 127.23556641 41.68806641 127.87207031 40.49707031 C128.19134491 39.89959991 128.51061951 39.30212952 128.83956909 38.68655396 C129.4959231 37.45850186 130.15243883 36.23053619 130.80911255 35.00265503 C132.40047162 32.02686511 133.98923143 29.04979888 135.57275391 26.06982422 C136.76073109 23.8415959 137.96930706 21.62422437 139.19848633 19.41845703 C140.49171072 16.96450284 141.56569049 14.6643788 142.58862305 12.10888672 C146.45397168 3.09495803 146.45397168 3.09495803 150.8270874 1.2142334 C156.25408575 -0.11354831 161.76225982 0.04641062 167.3125 0.125 C168.94607645 0.09871741 170.57956501 0.06620524 172.21289062 0.02734375 C176.29783333 -0.05291173 180.37750277 -0.05133459 184.46295166 -0.01794434 C188.02191995 0.00722796 191.58066081 0.00024674 195.13969421 -0.00466919 C198.75980927 -0.00906137 202.37988628 -0.00459243 206 0 C204.92891181 3.36983562 203.86959445 6.53831603 202.109375 9.609375 C201.5515332 10.59550781 201.5515332 10.59550781 200.98242188 11.6015625 C200.57572266 12.31054688 200.16902344 13.01953125 199.75 13.75 C198.83700198 15.36892432 197.92563733 16.98877052 197.015625 18.609375 C196.28182617 19.91551758 196.28182617 19.91551758 195.53320312 21.24804688 C186.33073993 37.76558909 177.58115919 54.54116167 168.74633789 71.25732422 C163.4031907 81.364598 158.0206821 91.44975861 152.61352539 101.52294922 C147.88509537 110.33602354 143.18795708 119.16534957 138.5 128 C126.7880671 150.06611427 115.00907663 172.09370586 103 194 C100.54587094 191.76937173 99.10690642 189.59934405 97.61499023 186.64648438 C97.1669957 185.76706177 96.71900116 184.88763916 96.25743103 183.98156738 C95.54025658 182.55209778 95.54025658 182.55209778 94.80859375 181.09375 C94.30385025 180.09984253 93.79910675 179.10593506 93.27906799 178.08190918 C91.65969879 174.89069798 90.04828998 171.69554893 88.4375 168.5 C86.3343141 164.34259194 84.2280602 160.18674316 82.12109375 156.03125 C81.60185837 155.00628922 81.08262299 153.98132843 80.5476532 152.92530823 C76.16795972 144.29474463 71.68751496 135.72062579 67.15158081 127.17132568 C66.02441301 125.04603116 64.90040182 122.91910138 63.77758789 120.79150391 C61.62542374 116.71365089 59.46946348 112.63781606 57.3125 108.5625 C56.93048431 107.84043365 56.54846863 107.11836731 56.15487671 106.37442017 C50.30508804 95.31942229 44.40492803 84.29278153 38.47827148 73.27880859 C34.34422435 65.57231238 30.31454239 57.81763865 26.32351685 50.03665161 C20.40771333 38.50368027 14.2577845 27.13344306 7.8046875 15.890625 C6.86960549 14.26052345 5.93470632 12.630317 5 11 C4.51305664 10.15373047 4.02611328 9.30746094 3.52441406 8.43554688 C3.06518555 7.62666016 2.60595703 6.81777344 2.1328125 5.984375 C1.51623779 4.90494629 1.51623779 4.90494629 0.88720703 3.80371094 C0 2 0 2 0 0 Z " fill="#000000" transform="translate(591,62)"/>
<path d="M0 0 C35.97 0 71.94 0 109 0 C109 12.87 109 25.74 109 39 C89.86 39 70.72 39 51 39 C51 48.24 51 57.48 51 67 C70.14 67 89.28 67 109 67 C109 79.54 109 92.08 109 105 C89.86 105 70.72 105 51 105 C51 114.24 51 123.48 51 133 C70.14 133 89.28 133 109 133 C109 145.87 109 158.74 109 172 C73.03 172 37.06 172 0 172 C0 115.24 0 58.48 0 0 Z " fill="#000000" transform="translate(809,62)"/>
<path d="M0 0 C6.8363583 4.12192191 10.34825919 9.58774632 12.859375 17.12109375 C13.50852719 26.94576254 13.31825134 34.82557923 7.296875 42.80859375 C1.60662659 49.02519014 -6.22975477 51.75046203 -14.453125 52.37109375 C-20.71454266 51.94659086 -26.01934567 49.970379 -30.7578125 45.7109375 C-37.37172506 38.1068064 -38.5091724 30.43689277 -38.41796875 20.66796875 C-37.80273559 12.79991652 -33.96948521 6.36570923 -28.140625 1.12109375 C-20.07449025 -5.11770155 -8.74708478 -4.61296989 0 0 Z M-26.8984375 10.78125 C-30.93949655 15.51195087 -32.68402551 19.45859327 -32.51171875 25.62109375 C-31.38993285 33.17838821 -27.09441135 39.18901225 -21.16796875 43.82421875 C-17.87476946 45.93085105 -16.0783923 46.45480284 -12.140625 46.12109375 C-4.18848306 42.99371629 1.61195752 38.55600772 5.984375 31.23828125 C7.96426774 26.44764793 7.70591408 20.80258904 6.16015625 15.90625 C2.71852752 9.44519978 -3.78189615 5.40978982 -10.140625 2.12109375 C-16.68242876 2.12109375 -22.20453706 6.34812181 -26.8984375 10.78125 Z " fill="#000000" transform="translate(1134.140625,2.87890625)"/>
<path d="M0 0 C3.046875 -0.3984375 3.046875 -0.3984375 6.75 -0.375 C7.96171875 -0.38273438 9.1734375 -0.39046875 10.421875 -0.3984375 C14.34556563 0.03848002 16.72298003 0.80573809 20 3 C22.85809385 7.36493989 22.25963736 12.64927468 22.1875 17.6875 C22.18685547 18.55439453 22.18621094 19.42128906 22.18554688 20.31445312 C22.14069283 26.71861434 22.14069283 26.71861434 21 29 C15.98972451 27.78538776 13.6736026 24.60643511 10.55078125 20.77734375 C9.10661042 18.89500097 9.10661042 18.89500097 7 18 C7.02320313 18.61488281 7.04640625 19.22976562 7.0703125 19.86328125 C7.09738281 21.07564453 7.09738281 21.07564453 7.125 22.3125 C7.14820313 23.11300781 7.17140625 23.91351563 7.1953125 24.73828125 C7 27 7 27 5 30 C1.75213054 28.99204051 1.0197299 28.03674337 -0.6171875 24.98828125 C-2.39949684 20.58875269 -2.40863659 16.44146561 -2.3125 11.75 C-2.31572266 10.94820312 -2.31894531 10.14640625 -2.32226562 9.3203125 C-2.28612229 5.39054603 -2.22321069 3.33481604 0 0 Z M8 4 C7.32041397 6.39719432 7.32041397 6.39719432 7 9 C7.66 9.66 8.32 10.32 9 11 C10.32 11 11.64 11 13 11 C12.60196439 8.11424181 12.20990931 7.17810487 9.9375 5.25 C9.298125 4.8375 8.65875 4.425 8 4 Z " fill="#000000" transform="translate(1111,13)"/>
</svg>
