<?xml version="1.0" encoding="UTF-8" standalone="no"?>
<!-- Created with Inkscape (http://www.inkscape.org/) -->

<svg
   version="1.1"
   id="svg2"
   width="1169.3333"
   height="841.3335"
   viewBox="0 0 1169.3333 841.3335"
   xmlns="http://www.w3.org/2000/svg"
   xmlns:svg="http://www.w3.org/2000/svg">
  <defs
     id="defs6">
    <clipPath
       clipPathUnits="userSpaceOnUse"
       id="clipPath16">
      <path
         d="M -9,-9 H 868 V 623 H -9 Z"
         clip-rule="evenodd"
         id="path14" />
    </clipPath>
  </defs>
  <g
     id="g8"
     transform="matrix(1.3333333,0,0,-1.3333333,12,829.33347)">
    <g
       id="g10">
      <g
         id="g12"
         clip-path="url(#clipPath16)">
        <path
           d="m 750.6091,268.3446 15.2087,46.9939 h -24.52 l 27.2753,84.2887 h 24.5197 l 15.2895,47.253 H 691.4018 c -14.572,-24.522 -38.5245,-65.3873 -47.6489,-90.417 7.7417,27.0723 10.0199,64.1078 11.6382,90.417 H 537.1316 l -15.2886,-47.253 h 24.7759 l -27.2747,-84.2887 h -24.7788 l -15.2087,-46.9939 h 91.1863 l 15.2068,46.9939 h -17.1125 l 26.4489,81.733 h 1.0174 L 587.399,268.3446 h 45.2094 l 74.8591,128.7269 h 1.0182 l -26.4439,-81.733 h -16.3482 l -15.2059,-46.9939 z m -341.3418,54.9139 5.3725,16.6019 c 1.4862,4.5961 -1.7813,7.918 -6.3802,7.918 h -25.2834 l -10.497,-32.4399 h 25.543 c 4.5956,0 9.8385,3.5781 11.2451,7.92 z m 17.0935,63.0864 1.7348,5.3646 c 1.4884,4.5958 -2.035,7.9177 -6.6331,7.9177 h -21.708 l -6.8618,-21.2 h 21.7099 c 4.5961,0 10.272,3.3188 11.7582,7.9177 z m 56.0823,-67.4283 c -13.8053,-42.654 -55.1891,-50.572 -91.969,-50.572 H 276.5599 l 15.2068,46.9939 h 21.71 l 27.2749,84.2887 h -21.7105 l 15.2918,47.253 h 112.3815 c 29.6311,0 58.6199,-13.0261 48.0398,-45.7197 -7.1923,-22.2234 -24.4267,-36.0134 -48.3378,-37.2898 30.4903,-1.2793 46.2748,-13.2829 36.0267,-44.9541 z m -270.8668,4.3419 c -1.4894,-4.5981 -7.1621,-7.92 -11.7601,-7.92 h -25.5396 l 27.2741,84.2887 h 25.543 c 4.5958,0 8.1192,-3.3219 6.633,-7.9177 z m 85.8188,34.7371 c 18.1869,56.1909 -2.9074,88.8846 -53.9929,88.8846 h -108.549 l -15.2915,-47.253 H 142.295 L 115.0197,315.3385 H 92.2864 L 77.08,268.3446 h 108.5499 c 51.3411,0 93.0041,31.6683 111.7652,89.651"
           style="fill:#ed1c24;fill-opacity:1;fill-rule:evenodd;stroke:none"
           id="path18" />
        <path
           d="m 71.9785,231.8842 4.4866,8.9771 h 122.0162 l -3.8194,-8.2293 z"
           style="fill:#ed1c24;fill-opacity:1;fill-rule:evenodd;stroke:none"
           id="path20" />
        <path
           d="m 71.9785,231.8842 4.4866,8.9771 h 122.0162 l -3.8194,-8.2293 z"
           style="fill:#ed1c24;fill-opacity:1;fill-rule:evenodd;stroke:none"
           id="path22" />
        <path
           d="m 63.193,208.6929 4.4844,8.9793 h 122.016 l -3.8189,-8.2285 z"
           style="fill:#ed1c24;fill-opacity:1;fill-rule:evenodd;stroke:none"
           id="path24" />
        <path
           d="m 57.3338,188.1916 4.4876,8.9793 h 122.0164 l -3.8194,-8.2284 z"
           style="fill:#ed1c24;fill-opacity:1;fill-rule:evenodd;stroke:none"
           id="path26" />
        <path
           d="m 51.4772,167.6903 4.4864,8.979 H 177.98 l -3.8216,-8.2281 z"
           style="fill:#ed1c24;fill-opacity:1;fill-rule:evenodd;stroke:none"
           id="path28" />
        <path
           d="m 623.3026,231.8842 4.4869,8.9771 h 122.0159 l -3.8185,-8.2293 z"
           style="fill:#ed1c24;fill-opacity:1;fill-rule:evenodd;stroke:none"
           id="path30" />
        <path
           d="m 623.3026,231.8842 4.4869,8.9771 h 122.0159 l -3.8185,-8.2293 z"
           style="fill:#ed1c24;fill-opacity:1;fill-rule:evenodd;stroke:none"
           id="path32" />
        <path
           d="m 614.5155,208.6929 4.4875,8.9793 h 122.0165 l -3.8194,-8.2285 z"
           style="fill:#ed1c24;fill-opacity:1;fill-rule:evenodd;stroke:none"
           id="path34" />
        <path
           d="m 608.6599,188.1916 4.487,8.9793 h 122.0134 l -3.8189,-8.2284 z"
           style="fill:#ed1c24;fill-opacity:1;fill-rule:evenodd;stroke:none"
           id="path36" />
        <path
           d="m 602.8013,167.6903 4.487,8.979 h 122.0164 l -3.8194,-8.2281 z"
           style="fill:#ed1c24;fill-opacity:1;fill-rule:evenodd;stroke:none"
           id="path38" />
        <path
           d="m 547.4778,239.0122 c 5.0284,0 9.1962,-0.303 12.4534,-0.896 3.2656,-0.6063 5.5591,-1.6132 6.8902,-3.0186 2.4543,-2.8588 2.6,-7.6179 0.4244,-14.2932 l -0.6526,-2.0137 h -8.0677 c 0.785,2.8579 1.2952,4.9995 1.5563,6.4542 0.261,1.4349 0.098,2.649 -0.4663,3.6074 -0.4352,0.9292 -1.2892,1.597 -2.53,2.0449 -1.2347,0.43 -2.7725,0.7044 -4.5875,0.8314 -1.8256,0.1242 -4.267,0.1916 -7.3333,0.1916 h -2.0114 c -7.0736,0 -12.0787,-0.9578 -15.0327,-2.861 -1.1523,-0.7509 -2.1416,-1.8672 -2.9642,-3.3709 -0.8266,-1.5149 -1.6453,-3.4804 -2.4449,-5.9378 -1.8901,-5.7997 -1.7036,-9.4399 0.5618,-10.9261 1.0721,-0.7325 2.4914,-1.2303 4.2625,-1.4811 1.7833,-0.2591 3.6862,-0.4037 5.7501,-0.4323 2.0531,-0.0337 4.1813,-0.0646 6.3901,-0.0984 6.1464,-0.4456 10.2866,-0.8308 12.4019,-1.1494 2.1364,-0.3059 3.9228,-1.103 5.3416,-2.3794 1.8258,-1.6132 2.6078,-3.7704 2.3405,-6.5021 -0.261,-2.7134 -0.9419,-5.9882 -2.0114,-9.8048 -1.3408,-4.1196 -3.0218,-7.7131 -5.0386,-10.7663 -2.0191,-3.0628 -4.3265,-5.3489 -6.9287,-6.8638 -2.8248,-1.4709 -6.1181,-2.3978 -9.8363,-2.781 -3.7182,-0.383 -8.2669,-0.5746 -13.6632,-0.5746 h -2.9724 c -3.7701,0 -7.0217,0.2693 -9.7736,0.8285 -2.7584,0.5624 -4.8603,1.6626 -6.3363,3.3095 -1.427,1.4496 -2.105,3.3834 -2.0945,5.779 0.0357,2.4126 0.557,5.3337 1.5607,8.7692 0.4609,1.0234 0.9919,2.4597 1.5925,4.296 h 8.2233 c -0.1814,-0.5593 -0.424,-1.1033 -0.7168,-1.6113 -0.917,-3.213 -1.5101,-5.7679 -1.7606,-7.6688 -0.2668,-1.9032 0.0153,-3.335 0.8333,-4.3112 0.9508,-1.1985 2.7993,-1.9001 5.5406,-2.1101 1.6835,-0.1242 4.296,-0.1917 7.7967,-0.1917 2.3794,0 4.1786,-0.0615 5.4117,-0.2069 6.1047,0.2744 10.3719,1.1033 12.7924,2.5087 1.6336,0.896 2.9705,2.2501 4.0079,4.0705 1.0367,1.8048 2.0121,4.1219 2.9342,6.9497 l 0.3725,1.1492 c 1.4587,4.4742 1.6163,7.5061 0.4923,9.1063 -0.6604,1.0202 -1.8433,1.6909 -3.5784,2.0095 -1.7396,0.3024 -4.4249,0.5901 -8.0552,0.8617 -2.3069,0.0805 -4.5641,0.1585 -6.776,0.2415 -2.2263,0.0768 -4.5229,0.2407 -6.8839,0.4938 -2.3749,0.2568 -4.4566,0.671 -6.2504,1.2484 -1.8099,0.5717 -3.2397,1.3388 -4.288,2.3304 -1.3362,1.3878 -2.0063,3.2079 -1.989,5.4759 0.0113,2.2862 0.5,5.1112 1.4658,8.513 2.6983,8.2885 6.2997,13.9119 10.7866,16.8486 2.7888,1.8377 5.9681,3.0209 9.523,3.547 3.5603,0.5255 8.0011,0.7846 13.3376,0.7846 z m -62.4954,0 h -2.5898 c -3.5759,0 -6.6651,-0.1298 -9.2644,-0.3991 -2.5918,-0.2562 -5.2138,-0.9116 -7.8554,-1.9185 -2.6308,-1.0049 -4.9998,-2.5373 -7.0844,-4.5859 -1.5635,-1.6101 -2.9128,-3.3525 -4.0646,-5.269 -1.1471,-1.9023 -2.0843,-3.8001 -2.8561,-5.732 -0.7583,-1.934 -1.5614,-4.1998 -2.4154,-6.8227 l -8.2959,-25.488 c -2.6019,-7.9852 -2.8979,-13.7049 -0.8912,-17.1535 1.4947,-2.2833 3.7009,-3.7985 6.6208,-4.536 2.9336,-0.7506 6.473,-1.1163 10.6232,-1.1163 h 8.2264 c 2.9387,0 5.6857,0.1454 8.267,0.4147 2.569,0.2869 5.1757,0.9425 7.8068,1.9647 2.6383,1.0386 4.904,2.5404 6.7885,4.5212 1.8589,1.98 3.4803,4.1035 4.8583,6.372 1.3612,2.268 2.6917,5.3799 3.9812,9.3419 l 8.0498,24.7235 c 2.0846,6.4037 3.1284,11.0202 3.1201,13.8475 -0.005,2.827 -0.2324,4.5366 -0.6624,5.1245 -0.7951,2.0784 -2.359,3.5963 -4.6948,4.5694 -2.3485,0.9732 -4.8979,1.5823 -7.6685,1.8049 -2.7681,0.2222 -6.1027,0.3367 -9.9992,0.3367 z m -2.5013,-7.092 h -2.9707 c -2.6354,0 -4.9085,-0.1117 -6.7961,-0.3186 -1.9003,-0.2098 -3.6816,-0.6707 -5.3493,-1.3776 -1.6568,-0.7169 -3.1175,-1.768 -4.3888,-3.1743 -1.5098,-1.7915 -2.7474,-3.9764 -3.7625,-6.5483 -0.9963,-2.5733 -1.6438,-4.2641 -1.9369,-5.0612 l -8.5487,-26.2599 c -1.6234,-4.9822 -2.1047,-8.9249 -1.4553,-11.7865 0.4657,-1.7577 1.6517,-2.8735 3.5651,-3.3709 1.9109,-0.5103 4.6401,-0.8124 8.1899,-0.9426 h 4.6786 c 5.1448,0 9.062,0.2101 11.7107,0.6086 2.6776,0.4167 4.9269,1.4369 6.7658,3.1148 2.6436,2.4757 4.852,6.4213 6.605,11.802 l 8.9952,27.6131 c 1.9338,5.9429 2.2081,10.0287 0.8282,12.2681 -0.9164,1.6418 -2.9179,2.6671 -5.9964,3.0657 -1.1548,0.1289 -2.9443,0.2222 -5.3781,0.2559 -2.4339,0.0318 -4.0184,0.0624 -4.7557,0.1117 z m -84.8923,-65.3544 21.0938,64.7798 h -23.2067 l 2.3065,7.0892 h 54.6526 l -2.3089,-7.0892 h -23.2044 l -21.0923,-64.7798 z m -32.3915,72.4464 h -2.586 c -3.579,0 -6.6702,-0.1298 -9.267,-0.3991 -2.5918,-0.2562 -5.2147,-0.9116 -7.8551,-1.9185 -2.6283,-1.0049 -4.9975,-2.5373 -7.0844,-4.5859 -1.5641,-1.6101 -2.916,-3.3525 -4.0651,-5.269 -1.1441,-1.9023 -2.0846,-3.8001 -2.8562,-5.732 -0.7589,-1.934 -1.5611,-4.1998 -2.4157,-6.8227 l -8.2962,-25.488 c -2.6016,-7.9852 -2.8964,-13.7049 -0.8881,-17.1535 1.4913,-2.2833 3.6978,-3.7985 6.6184,-4.536 2.9332,-0.7506 6.4732,-1.1163 10.6256,-1.1163 h 8.2242 c 2.9387,0 5.6857,0.1454 8.2669,0.4147 2.5682,0.2869 5.1758,0.9425 7.8095,1.9647 2.6354,1.0386 4.9014,2.5404 6.7881,4.5212 1.8573,1.98 3.4776,4.1035 4.8549,6.372 1.3623,2.268 2.6955,5.3799 3.9827,9.3419 l 8.0524,24.7235 c 2.0843,6.4037 3.1249,11.0202 3.1172,13.8475 -0.005,2.827 -0.2333,4.5366 -0.6633,5.1245 -0.792,2.0784 -2.3578,3.5963 -4.6936,4.5694 -2.3488,0.9732 -4.8963,1.5823 -7.6697,1.8049 -2.7674,0.2222 -6.1024,0.3367 -9.9995,0.3367 z m -2.5013,-7.092 h -2.9693 c -2.6353,0 -4.9064,-0.1117 -6.7972,-0.3186 -1.902,-0.2098 -3.681,-0.6707 -5.3486,-1.3776 -1.6578,-0.7169 -3.115,-1.768 -4.3864,-3.1743 -1.5094,-1.7915 -2.7502,-3.9764 -3.7641,-6.5483 -0.9975,-2.5733 -1.6418,-4.2641 -1.9369,-5.0612 l -8.5502,-26.2599 c -1.6202,-4.9822 -2.105,-8.9249 -1.4553,-11.7865 0.466,-1.7577 1.6521,-2.8735 3.5654,-3.3709 1.9115,-0.5103 4.6404,-0.8124 8.1905,-0.9426 h 4.6808 c 5.1424,0 9.0598,0.2101 11.708,0.6086 2.6776,0.4167 4.9303,1.4369 6.7685,3.1148 2.6411,2.4757 4.8524,6.4213 6.6048,11.802 l 8.99,27.6131 c 1.9369,5.9429 2.2113,10.0287 0.834,12.2681 -0.9199,1.6418 -2.9211,2.6671 -5.9995,3.0657 -1.1543,0.1289 -2.9435,0.2222 -5.3754,0.2559 -2.4361,0.0318 -4.0235,0.0624 -4.7591,0.1117 z m -139.0629,-65.3544 23.3983,71.869 h 14.2827 l 5.3149,-61.6178 45.5653,61.6178 h 14.0882 l -23.402,-71.869 h -8.047 l 21.4027,65.7354 h -0.1916 l -48.6357,-65.7354 h -8.047 l -5.8938,65.7354 h -0.1917 l -21.4015,-65.7354 z"
           style="fill:#ed1c24;fill-opacity:1;fill-rule:evenodd;stroke:none"
           id="path40" />
      </g>
    </g>
  </g>
</svg>
