<?xml version="1.0" encoding="UTF-8"?>
<svg version="1.1" xmlns="http://www.w3.org/2000/svg" width="1010" height="375">
<path d="M0 0 C52.47 0 104.94 0 159 0 C158.36501542 15.23962993 157.65104075 30.33265693 156.25 45.5 C156.16584839 46.43158936 156.08169678 47.36317871 155.99499512 48.32299805 C154.49528002 64.7785747 152.27505251 81.03796951 149.39550781 97.30664062 C148.90314171 100.2058857 148.90314171 100.2058857 149 104 C149.41958984 103.09967041 149.41958984 103.09967041 149.84765625 102.18115234 C161.7466566 76.76186502 174.90361345 52.14140498 189.22509766 28.00439453 C191.147898 24.74965161 193.05059352 21.4837448 194.94921875 18.21484375 C195.91867432 16.54591064 195.91867432 16.54591064 196.90771484 14.84326172 C198.15470115 12.69547885 199.4011417 10.54737901 200.64697266 8.39892578 C201.20304199 7.44356934 201.75911133 6.48821289 202.33203125 5.50390625 C202.82421143 4.65642822 203.3163916 3.8089502 203.82348633 2.93579102 C205 1 205 1 206 0 C208.02494622 -0.09676414 210.05332542 -0.12186986 212.08058167 -0.12025452 C212.72255381 -0.12110894 213.36452596 -0.12196337 214.0259518 -0.12284368 C216.19254054 -0.12450021 218.35905307 -0.11897433 220.52563477 -0.11352539 C222.07256061 -0.11324353 223.61948659 -0.11340123 225.16641235 -0.1139679 C229.37904032 -0.11425592 233.59164006 -0.10835849 237.80426145 -0.10139394 C242.20185788 -0.09516112 246.59945489 -0.09455666 250.99705505 -0.09336853 C259.33040513 -0.090255 267.66374215 -0.08204132 275.99708647 -0.07201904 C285.48181254 -0.06085857 294.96653922 -0.05534762 304.45127022 -0.05032361 C323.96752089 -0.03985873 343.4837594 -0.02225887 363 0 C359.90658535 12.64465805 359.90658535 12.64465805 358.09887695 18.13574219 C357.75875076 19.17591492 357.41862457 20.21608765 357.06819153 21.28778076 C356.71182114 22.36328186 356.35545074 23.43878296 355.98828125 24.546875 C355.61519333 25.68408997 355.24210541 26.82130493 354.85771179 27.99298096 C353.67992804 31.57996817 352.49632151 35.1650015 351.3125 38.75 C350.5067736 41.20039333 349.70143148 43.65091306 348.89648438 46.1015625 C346.93613451 52.0694247 344.96790044 58.03460236 343 64 C326.665 64.495 326.665 64.495 310 65 C308.40671875 69.92421875 306.8134375 74.8484375 305.171875 79.921875 C304.13298279 83.1302637 303.09399623 86.33862128 302.0546875 89.546875 C300.42197084 94.58695502 298.78951712 99.62711852 297.15917969 104.66796875 C289.5627169 128.15380075 281.84370644 151.59556234 274 175 C284.56 175 295.12 175 306 175 C303.74984951 186.25075244 303.74984951 186.25075244 302.22827148 190.87695312 C301.89129745 191.91082153 301.55432343 192.94468994 301.20713806 194.0098877 C300.84874344 195.08943726 300.49034882 196.16898682 300.12109375 197.28125 C299.74896255 198.41655151 299.37683136 199.55185303 298.99342346 200.72155762 C298.21192055 203.10236312 297.42769434 205.48227627 296.64086914 207.86132812 C295.43252342 211.51504786 294.23214668 215.17131042 293.03320312 218.828125 C292.27128933 221.14598328 291.50893532 223.4636969 290.74609375 225.78125 C290.3856749 226.87699341 290.02525604 227.97273682 289.65391541 229.10168457 C289.32009354 230.11033569 288.98627167 231.11898682 288.64233398 232.15820312 C288.20170876 233.49195984 288.20170876 233.49195984 287.75218201 234.85266113 C287 237 287 237 286 239 C241.78 239 197.56 239 152 239 C152.68044677 234.23687264 153.31598711 230.53159881 154.75 226.08056641 C155.10707031 224.96316071 155.46414063 223.845755 155.83203125 222.69448853 C156.41017578 220.91599014 156.41017578 220.91599014 157 219.1015625 C157.39574219 217.87086029 157.79148437 216.64015808 158.19921875 215.37216187 C159.03293783 212.78064728 159.87044722 210.19040047 160.7109375 207.60107422 C161.78967306 204.2772919 162.86059202 200.95105511 163.92895508 197.62392616 C164.94927174 194.44871582 165.97471778 191.2751731 167 188.1015625 C167.38542969 186.90375153 167.77085937 185.70594055 168.16796875 184.47183228 C168.52503906 183.37333954 168.88210938 182.2748468 169.25 181.14306641 C169.56453125 180.17156647 169.8790625 179.20006653 170.203125 178.1991272 C171 176 171 176 172 175 C173.63472882 174.91299658 175.27314055 174.89298937 176.91015625 174.90234375 C177.89951172 174.90556641 178.88886719 174.90878906 179.90820312 174.91210938 C180.94912109 174.92048828 181.99003906 174.92886719 183.0625 174.9375 C184.62967773 174.94426758 184.62967773 174.94426758 186.22851562 174.95117188 C188.81906936 174.96300089 191.40949746 174.98032166 194 175 C194.16902328 174.28189651 194.33804657 173.56379303 194.51219177 172.82392883 C196.3646804 165.16329557 198.61260335 157.70726171 201.09765625 150.23046875 C201.48865509 149.04230057 201.87965393 147.85413239 202.28250122 146.62995911 C203.1124639 144.10936408 203.94385975 141.58930313 204.77792358 139.07006836 C206.07247581 135.15955862 207.36074295 131.24699763 208.64770508 127.33398438 C209.9235934 123.45531937 211.19959377 119.57669284 212.4775238 115.69869995 C215.52458828 106.45145967 218.56218608 97.20130387 221.55978394 87.93789673 C222.1736632 86.04271722 222.79101556 84.14866381 223.40844727 82.25463867 C223.9390979 80.61265503 223.9390979 80.61265503 224.48046875 78.9375 C224.77848389 78.01839844 225.07649902 77.09929687 225.38354492 76.15234375 C226.09178012 74.05269836 226.09178012 74.05269836 226 72 C225.68998047 72.55534424 225.37996094 73.11068848 225.06054688 73.68286133 C218.57937728 85.27137181 211.9866734 96.78235415 205.1875 108.1875 C199.69323331 117.40426444 194.29955217 126.6699396 189 136 C183.76009675 145.22396457 178.43163956 154.38691584 173 163.5 C167.53105512 172.67757731 162.15847011 181.90247711 156.875 191.1875 C151.75101848 200.19193007 146.59714165 209.17705844 141.375 218.125 C140.81925293 219.07785889 140.26350586 220.03071777 139.69091797 221.01245117 C138.13248793 223.67818676 136.57244181 226.34249712 135 229 C134.67583414 229.80381041 134.35166828 230.60762081 134.01767921 231.43578911 C132.62404165 234.45136167 131.33253119 236.62071732 129 239 C124.31216653 240.40897699 119.69389216 240.16897277 114.8515625 239.9765625 C113.47013484 239.95789134 112.08864058 239.94366607 110.7071228 239.9336853 C107.08525049 239.89565058 103.46744282 239.79758039 99.84716797 239.68664551 C96.14736939 239.58400882 92.44690811 239.53860614 88.74609375 239.48828125 C81.49555018 239.3812988 74.24834628 239.21083838 67 239 C67.05669106 238.15847507 67.11338211 237.31695015 67.17179108 236.44992447 C68.55028026 215.98619066 69.92729587 195.52235816 71.30266571 175.05841446 C71.96781591 165.16226639 72.63346722 155.26615251 73.30029297 145.37011719 C73.88140727 136.7460647 74.46158673 128.12194992 75.04063749 119.49775863 C75.34735212 114.93014296 75.65453898 110.36256014 75.96284485 105.79505157 C76.25291158 101.49753381 76.54172993 97.19993397 76.82958412 92.90226746 C76.93554361 91.32360989 77.04196218 89.74498306 77.14887047 88.16638947 C77.29461245 86.01337105 77.4387117 83.86024876 77.58239746 81.70709229 C77.66351524 80.50138706 77.74463303 79.29568184 77.82820892 78.05344009 C77.96031824 75.70530955 78 73.35184394 78 71 C75.30896264 79.18634024 72.62206589 87.37403536 69.9375 95.5625 C69.33399216 97.40320572 69.33399216 97.40320572 68.71829224 99.28109741 C62.21666786 119.12242027 55.81353273 138.99356826 49.50952148 158.89868164 C49.21057983 159.84080505 48.91163818 160.78292847 48.6036377 161.75360107 C48.04776298 163.50601094 47.49331192 165.25887329 46.94055176 167.01226807 C45.11198555 172.7760289 45.11198555 172.7760289 44 175 C51.26 175 58.52 175 66 175 C63.74984951 186.25075244 63.74984951 186.25075244 62.22827148 190.87695312 C61.89129745 191.91082153 61.55432343 192.94468994 61.20713806 194.0098877 C60.84874344 195.08943726 60.49034882 196.16898682 60.12109375 197.28125 C59.74896255 198.41655151 59.37683136 199.55185303 58.99342346 200.72155762 C58.21192055 203.10236312 57.42769434 205.48227627 56.64086914 207.86132812 C55.43252342 211.51504786 54.23214668 215.17131042 53.03320312 218.828125 C52.27128933 221.14598328 51.50893532 223.4636969 50.74609375 225.78125 C50.3856749 226.87699341 50.02525604 227.97273682 49.65391541 229.10168457 C49.32009354 230.11033569 48.98627167 231.11898682 48.64233398 232.15820312 C48.34858383 233.04737427 48.05483368 233.93654541 47.75218201 234.85266113 C47 237 47 237 46 239 C5.41 239 -35.18 239 -77 239 C-66.36465232 204.73054636 -66.36465232 204.73054636 -62.67626953 193.34082031 C-61.96687839 191.14759804 -61.26277136 188.95271364 -60.55859375 186.7578125 C-60.1018705 185.34365049 -59.64485312 183.92958343 -59.1875 182.515625 C-58.78917969 181.28102539 -58.39085937 180.04642578 -57.98046875 178.77441406 C-57 176 -57 176 -56 175 C-53.55169574 174.91156207 -51.13179401 174.88471248 -48.68359375 174.90234375 C-47.95253922 174.9037587 -47.22148468 174.90517365 -46.46827698 174.90663147 C-44.12464368 174.91224592 -41.78110461 174.92480078 -39.4375 174.9375 C-37.85221492 174.94251314 -36.26692834 174.94707637 -34.68164062 174.95117188 C-30.7877239 174.96222003 -26.89387795 174.97949428 -23 175 C-22.83859024 174.37832947 -22.67718048 173.75665894 -22.51087952 173.1161499 C-20.36415034 165.03332012 -17.83577118 157.08940533 -15.24609375 149.140625 C-14.78086243 147.70610888 -14.31586653 146.27151639 -13.85108948 144.83685303 C-12.62913926 141.06697936 -11.40419311 137.29808615 -10.17852783 133.52941895 C-8.96826176 129.80661219 -7.76053069 126.08298361 -6.55273438 122.359375 C-5.12221489 117.94949703 -3.69152666 113.53967453 -2.25961304 109.13024902 C2.5146019 94.42691894 7.2582069 79.7138229 12 65 C1.44 64.67 -9.12 64.34 -20 64 C-14.57914943 42.31659772 -6.94524323 21.2442734 0 0 Z M227 69 C228 71 228 71 228 71 Z " fill="#EC1B23" transform="translate(647,0)"/>
<path d="M0 0 C20.95893374 -0.07030598 41.91784784 -0.12309341 62.87687588 -0.15543652 C72.6100962 -0.17085796 82.34324294 -0.19185636 92.07641602 -0.22631836 C100.56698585 -0.25636618 109.05750236 -0.27560926 117.5481239 -0.28226548 C122.0373677 -0.28615187 126.52645903 -0.29518504 131.01565361 -0.31719017 C135.25506964 -0.33779937 139.49427276 -0.34378538 143.73373413 -0.33932304 C145.27627285 -0.34013747 146.81881991 -0.34595586 148.36131477 -0.35761642 C169.02386462 -0.50593884 191.52067078 2.58901559 207.31640625 17.1328125 C215.73374888 26.03070324 218.41891133 35.27503008 218.26953125 47.34765625 C216.91164119 65.7480506 208.03041352 81.44485993 195 94 C194.16082031 94.88558594 194.16082031 94.88558594 193.3046875 95.7890625 C185.38710124 103.54083543 172.61218801 108.55103354 162 111 C162.87140625 111.15855469 163.7428125 111.31710938 164.640625 111.48046875 C177.67067403 114.03289178 190.49139728 117.45034074 198.37109375 129.01171875 C205.09054773 141.53993148 203.62194199 154.67112435 200 168 C192.6035657 192.45029822 177.53409504 211.89614946 154.91748047 224.015625 C129.41046153 237.11013739 100.34027328 239.18265485 72.17236328 239.11352539 C70.53485109 239.11324257 68.89733878 239.1134031 67.25982666 239.1139679 C62.8599582 239.11425217 58.46011758 239.10841577 54.06025553 239.10139394 C49.44519095 239.09509831 44.83012558 239.09455172 40.21505737 239.09336853 C31.49610638 239.09027339 22.77716808 239.08208474 14.05822265 239.07201904 C4.12338501 239.06080116 -5.81145328 239.05533321 -15.74629569 239.05032361 C-36.16420418 239.03990042 -56.58210129 239.02233652 -77 239 C-73.90658535 227.4993966 -73.90658535 227.4993966 -72.09887695 221.88598633 C-71.75875076 220.82571732 -71.41862457 219.7654483 -71.06819153 218.67304993 C-70.71182114 217.57051376 -70.35545074 216.4679776 -69.98828125 215.33203125 C-69.61519333 214.17120529 -69.24210541 213.01037933 -68.85771179 211.81437683 C-67.67824329 208.1463499 -66.49542931 204.47941211 -65.3125 200.8125 C-64.50693911 198.30931633 -63.70159843 195.80606179 -62.89648438 193.30273438 C-60.93394205 187.20086489 -58.96686886 181.10048297 -57 175 C-47.1 175 -37.2 175 -27 175 C-26.34 172.03 -25.68 169.06 -25 166 C-24.41354654 163.96424957 -23.79696287 161.93680978 -23.14331055 159.92163086 C-22.78458359 158.80883255 -22.42585663 157.69603424 -22.05625916 156.54951477 C-21.67031082 155.36657333 -21.28436249 154.1836319 -20.88671875 152.96484375 C-20.47580664 151.69540162 -20.06525733 150.425842 -19.65504456 149.15617371 C-18.56244294 145.77787016 -17.46482569 142.40121664 -16.36616516 139.02487946 C-15.23107082 135.53365471 -14.10065673 132.04091523 -12.96972656 128.54833984 C-10.7315456 121.6389827 -8.48803838 114.73136543 -6.24285889 107.82427979 C-4.74756082 103.22393651 -3.25467091 98.62281254 -1.76179504 94.02168274 C1.485897 84.01241814 4.74023442 74.00533888 8 64 C-1.24 64 -10.48 64 -20 64 C-17.74977429 53.87398431 -17.74977429 53.87398431 -16.22827148 49.14477539 C-15.89129745 48.0908107 -15.55432343 47.03684601 -15.20713806 45.95094299 C-14.84874344 44.84435837 -14.49034882 43.73777374 -14.12109375 42.59765625 C-13.74896255 41.43874374 -13.37683136 40.27983124 -12.99342346 39.08580017 C-12.21113511 36.65221143 -11.42691755 34.21924208 -10.64086914 31.78686523 C-9.43390448 28.05137204 -8.23306594 24.31395157 -7.03320312 20.57617188 C-6.27118834 18.20821906 -5.50883074 15.84037654 -4.74609375 13.47265625 C-4.20546547 11.79152489 -4.20546547 11.79152489 -3.65391541 10.07643127 C-3.32009354 9.04453171 -2.98627167 8.01263214 -2.64233398 6.94946289 C-2.34858383 6.03951065 -2.05483368 5.12955841 -1.75218201 4.19203186 C-1 2 -1 2 0 0 Z M88 64 C86.65934762 67.93504649 85.32873929 71.87341646 84 75.8125 C83.42765625 77.49182617 83.42765625 77.49182617 82.84375 79.20507812 C82.4828125 80.27822266 82.121875 81.35136719 81.75 82.45703125 C81.41484375 83.44678955 81.0796875 84.43654785 80.734375 85.45629883 C79.86131245 88.03911618 79.86131245 88.03911618 80 91 C84.26832981 91.09965569 88.53602469 91.17183391 92.80517578 91.21972656 C94.25418917 91.23971295 95.70312325 91.26691197 97.15185547 91.30175781 C108.66903712 91.64926721 108.66903712 91.64926721 119 87 C123.19675952 82.67606594 125.22915557 76.87768876 126 71 C124.48964199 67.34334375 123.31242697 66.20828464 120 64 C117.52943177 63.82887998 115.17496079 63.76746876 112.70703125 63.8046875 C112.00100266 63.8075174 111.29497406 63.81034729 110.56755066 63.81326294 C108.31569367 63.82444536 106.06423648 63.8495458 103.8125 63.875 C102.28451096 63.88503233 100.75651567 63.89415774 99.22851562 63.90234375 C95.48552337 63.92437828 91.74282944 63.95889433 88 64 Z M66 133 C63.34183822 140.01573286 60.88612587 147.0883869 58.5012207 154.20117188 C58.03936445 155.57511646 57.57481345 156.94815792 57.10766602 158.3203125 C56.42658868 160.32099203 55.75343735 162.32418227 55.08203125 164.328125 C54.68218018 165.5130957 54.2823291 166.69806641 53.87036133 167.91894531 C52.81876697 171.10795505 52.81876697 171.10795505 53 175 C58.01705721 175.07442006 63.03378972 175.12872908 68.05126953 175.16479492 C69.75640463 175.17983738 71.46150132 175.20027653 73.16650391 175.22631836 C75.62412012 175.26290284 78.08122269 175.27977173 80.5390625 175.29296875 C81.67379501 175.31619453 81.67379501 175.31619453 82.83145142 175.33988953 C88.96397908 175.34181872 93.00614985 173.84693487 97.59765625 169.59375 C101.22201599 164.8909364 102.6894009 159.09003963 104.4375 153.5 C104.81326172 152.38496094 105.18902344 151.26992187 105.57617188 150.12109375 C105.92099609 149.03957031 106.26582031 147.95804688 106.62109375 146.84375 C107.09180298 145.37711914 107.09180298 145.37711914 107.57202148 143.88085938 C108.10651594 140.28300734 107.57876268 138.26079541 106 135 C102.56575642 132.09017188 98.01067676 132.74712125 93.734375 132.8046875 C92.94097717 132.8075174 92.14757935 132.81034729 91.33013916 132.81326294 C88.80327083 132.82443221 86.27676068 132.84953056 83.75 132.875 C82.0338593 132.88503402 80.31771302 132.89415913 78.6015625 132.90234375 C74.40090426 132.92436086 70.2005128 132.95886813 66 133 Z " fill="#EC1B23" transform="translate(377,0)"/>
<path d="M0 0 C20.43739959 -0.07031482 40.87477438 -0.12309769 61.31227016 -0.15543652 C70.80335489 -0.17085611 80.29436414 -0.19185089 89.78540039 -0.22631836 C98.06501939 -0.25637194 106.34458368 -0.27561059 114.62425572 -0.28226548 C119.00171856 -0.28615092 123.37902497 -0.29517779 127.7564373 -0.31719017 C131.89079544 -0.33780856 136.02493523 -0.34378361 140.1593399 -0.33932304 C141.66317755 -0.34013707 143.16702381 -0.34594988 144.67081642 -0.35761642 C168.24395648 -0.53126669 191.48002802 4.43202838 209.375 20.6875 C225.33968797 37.91977049 226.8823355 59.8143488 226.22216797 82.15869141 C224.01778779 120.27266696 205.09162852 161.93589741 179.07421875 189.76953125 C177.17519913 191.81160319 175.40162345 193.91451582 173.625 196.0625 C169.27929496 201.02475816 164.21160317 204.98592824 159 209 C157.50919922 210.19109375 157.50919922 210.19109375 155.98828125 211.40625 C123.45299864 236.63012046 84.76468357 239.50847044 45.26839495 239.30418181 C40.95501714 239.28515374 36.64162985 239.28364436 32.32821655 239.28010559 C24.19738371 239.27086055 16.06667499 239.24635142 7.93589628 239.21605712 C-1.33648758 239.18227511 -10.60887803 239.1659679 -19.88130832 239.15097082 C-38.92094201 239.11979312 -57.96046095 239.06718305 -77 239 C-73.90259733 227.47558721 -73.90259733 227.47558721 -72.11474609 221.99365234 C-71.60939835 220.43812149 -71.60939835 220.43812149 -71.09384155 218.85116577 C-70.74060822 217.77364044 -70.38737488 216.69611511 -70.0234375 215.5859375 C-69.65272125 214.44967926 -69.282005 213.31342102 -68.90005493 212.14273071 C-68.12318001 209.76415145 -67.34495442 207.38601294 -66.56542969 205.00830078 C-65.36745522 201.35197265 -64.17567609 197.69366341 -62.984375 194.03515625 C-62.22693158 191.71862929 -61.46913208 189.40221872 -60.7109375 187.0859375 C-60.3536557 185.98816986 -59.9963739 184.89040222 -59.62826538 183.7593689 C-59.2976712 182.75386993 -58.96707703 181.74837097 -58.62646484 180.71240234 C-58.3357309 179.82402679 -58.04499695 178.93565125 -57.74545288 178.02035522 C-57 176 -57 176 -56 175 C-53.78144736 174.91216458 -51.56011504 174.89305391 -49.33984375 174.90234375 C-48.34314415 174.90446617 -48.34314415 174.90446617 -47.3263092 174.90663147 C-45.19666101 174.91224482 -43.06711661 174.92479946 -40.9375 174.9375 C-39.49674631 174.94251329 -38.05599097 174.94707649 -36.61523438 174.95117188 C-33.07678898 174.96221855 -29.53840461 174.97949208 -26 175 C-25.82386169 174.33119812 -25.64772339 173.66239624 -25.46624756 172.97332764 C-23.68379249 166.30878003 -21.6859161 159.75055616 -19.515625 153.203125 C-19.0163575 151.68440796 -19.0163575 151.68440796 -18.50700378 150.13500977 C-17.7933499 147.96436195 -17.07857359 145.79408289 -16.36276245 143.62414551 C-14.46041188 137.85579159 -12.56753011 132.08433816 -10.67578125 126.3125 C-10.28918839 125.13310852 -9.90259552 123.95371704 -9.50428772 122.73858643 C-5.42086649 110.26191133 -1.41986436 97.75924033 2.5625 85.25 C2.89141235 84.21701782 3.22032471 83.18403564 3.5592041 82.11975098 C5.3754116 76.41399065 7.18816359 70.70715284 9 65 C-0.57 64.67 -10.14 64.34 -20 64 C-17.74998425 53.87492911 -17.74998425 53.87492911 -16.3359375 49.57543945 C-16.02221191 48.61446854 -15.70848633 47.65349762 -15.38525391 46.66340637 C-15.05187012 45.65686508 -14.71848633 44.65032379 -14.375 43.61328125 C-14.02743652 42.55263962 -13.67987305 41.49199799 -13.32177734 40.3992157 C-12.21852028 37.03564711 -11.10934753 33.67406416 -10 30.3125 C-9.25481894 28.04374765 -8.51002355 25.77486859 -7.765625 23.50585938 C-5.19168676 15.66568483 -2.61039239 7.82811736 0 0 Z M90 64 C83.36196703 83.78745607 76.79416292 103.59779823 70.29562378 123.43151855 C69.56804106 125.65143633 68.83965296 127.87109034 68.11038208 130.0904541 C63.21182903 145.00340889 58.50375274 159.96295932 54 175 C59.26521342 175.1242878 64.52955926 175.21466072 69.79589844 175.2746582 C71.58446136 175.29968775 73.37292317 175.33372244 75.16113281 175.37719727 C77.74309323 175.43836411 80.32369322 175.46632445 82.90625 175.48828125 C84.09112 175.52699089 84.09112 175.52699089 85.29992676 175.56648254 C91.28240445 175.5694546 95.54786574 174.08473536 100 170 C104.62808562 162.90883858 106.68320787 154.27780003 109.24609375 146.25 C109.74352621 144.70775277 110.2415072 143.16568235 110.74000549 141.6237793 C112.04743334 137.57447448 113.34706473 133.52270842 114.6451416 129.47039795 C115.95177115 125.39661647 117.26643618 121.3254306 118.58007812 117.25390625 C122.15012669 106.18415327 122.15012669 106.18415327 125.68771362 95.10400391 C126.58657819 92.27619301 127.50969645 89.45760813 128.44631958 86.64208984 C128.90971916 85.22366947 129.3730103 83.80521367 129.83618164 82.38671875 C130.25170792 81.13463623 130.66723419 79.88255371 131.09535217 78.5925293 C132.03225678 74.87190218 132.30894955 71.81945419 132 68 C129.19598939 64.55416625 127.45195938 64.05177338 123.03588867 63.54589844 C121.49643674 63.54652663 119.95688668 63.56882589 118.41796875 63.609375 C117.60378983 63.61503479 116.7896109 63.62069458 115.95075989 63.62652588 C113.36239647 63.64883226 110.7754416 63.69901555 108.1875 63.75 C106.42775444 63.77007253 104.66798707 63.78832198 102.90820312 63.8046875 C98.60492995 63.84867793 94.3027034 63.91766373 90 64 Z " fill="#EC1B23" transform="translate(111,0)"/>
<path d="M0 0 C0.83265381 0.00523682 1.66530762 0.01047363 2.52319336 0.01586914 C3.42231445 0.0190918 4.32143555 0.02231445 5.24780273 0.02563477 C6.66609375 0.03820312 6.66609375 0.03820312 8.11303711 0.05102539 C9.06243164 0.05553711 10.01182617 0.06004883 10.98999023 0.06469727 C13.34356776 0.07652429 15.69702188 0.09300514 18.05053711 0.11352539 C18.72695659 7.38272313 19.40227538 14.65202259 20.0769043 21.92138672 C20.30550468 24.38332315 20.53433764 26.845238 20.76342773 29.30712891 C22.24568712 45.2381667 23.6874922 61.17181991 25.05053711 77.11352539 C25.71053711 77.11352539 26.37053711 77.11352539 27.05053711 77.11352539 C28.52918586 75.52171152 28.52918586 75.52171152 30.03491211 73.40649414 C30.93222046 72.19981079 30.93222046 72.19981079 31.84765625 70.96875 C32.81433228 69.64822632 32.81433228 69.64822632 33.80053711 68.30102539 C34.47012451 67.39682861 35.13971191 66.49263184 35.82958984 65.56103516 C37.90934 62.74964332 39.98030606 59.93193131 42.05053711 57.11352539 C43.25442697 55.48292028 44.45882719 53.85269182 45.66381836 52.22290039 C48.5540844 48.31045717 51.43659455 44.39237527 54.31665039 40.47241211 C56.05835653 38.10288737 57.80207998 35.7348626 59.54663086 33.36743164 C60.12421143 32.58158691 60.70179199 31.79574219 61.296875 30.98608398 C62.46092552 29.4112207 63.63324971 27.84243761 64.81396484 26.2800293 C67.88469489 22.19338981 70.71609811 18.08502706 73.33959961 13.69555664 C81.19863766 1.02144159 81.19863766 1.02144159 86.61499023 -0.70288086 C92.54877772 -1.49964384 98.17909714 -0.89655131 104.05053711 0.11352539 C102.46079226 9.78670828 99.33256236 18.85384129 96.23803711 28.12524414 C95.66220749 29.86519899 95.08694043 31.6053401 94.51220703 33.34565735 C93.00560396 37.90331584 91.49225237 42.45870314 89.97717285 47.0135498 C87.55089616 54.31219667 85.13577388 61.61454532 82.71914673 68.91639137 C81.87784019 71.45556647 81.03413858 73.99393495 80.18994141 76.53215027 C79.6707915 78.09662035 79.15166587 79.66109848 78.63256836 81.22558594 C78.3997818 81.9234169 78.16699524 82.62124786 77.92715454 83.34022522 C76.52494999 87.57254606 75.24792084 91.82013349 74.05053711 96.11352539 C70.09053711 96.11352539 66.13053711 96.11352539 62.05053711 96.11352539 C63.5834971 87.04805134 66.38006387 78.52039667 69.27709961 69.82446289 C69.79041656 68.26950615 70.30321516 66.71437821 70.81552124 65.15908813 C72.15512781 61.09685413 73.50169195 57.03696084 74.84979248 52.97753906 C76.22826577 48.82245437 77.60004387 44.66516086 78.97241211 40.50805664 C81.65862786 32.37438807 84.35220894 24.24318368 87.05053711 16.11352539 C84.18082177 18.95370622 81.47115425 21.67583342 79.14038086 24.97680664 C78.63192627 25.69022217 78.12347168 26.4036377 77.59960938 27.13867188 C77.06779053 27.89349854 76.53597168 28.6483252 75.98803711 29.42602539 C74.83039638 31.04928728 73.67151741 32.67166674 72.51147461 34.29321289 C71.93107422 35.105 71.35067383 35.91678711 70.75268555 36.75317383 C68.25208248 40.22073413 65.68882912 43.63912827 63.11303711 47.05102539 C56.97399008 55.19443115 50.92596258 63.40318636 44.88549805 71.61987305 C42.96650404 74.2277236 41.04410694 76.83303637 39.12084961 79.43774414 C38.48131348 80.30423584 37.84177734 81.17072754 37.18286133 82.06347656 C35.95319091 83.72935302 34.72306737 85.39489512 33.49243164 87.06005859 C32.9392627 87.80989014 32.38609375 88.55972168 31.81616211 89.33227539 C31.32921875 89.99163086 30.84227539 90.65098633 30.34057617 91.33032227 C29.20630814 92.89820525 28.12396742 94.50337993 27.05053711 96.11352539 C24.01147461 96.40649414 24.01147461 96.40649414 20.42553711 96.30102539 C19.23702148 96.27395508 18.04850586 96.24688477 16.82397461 96.21899414 C15.90874023 96.18418945 14.99350586 96.14938477 14.05053711 96.11352539 C13.97980988 95.35169952 13.90908264 94.58987366 13.83621216 93.80496216 C13.1615064 86.54064138 12.4852169 79.27647044 11.80725288 72.01245308 C11.45895981 68.28010808 11.11122873 64.54771269 10.76489258 60.81518555 C9.31869721 45.23335608 7.86328163 29.65799766 6.05053711 14.11352539 C5.7712738 14.96384338 5.4920105 15.81416138 5.20428467 16.69024658 C2.55688764 24.75104407 -0.0907653 32.81175745 -2.73869705 40.8723793 C-4.09961811 45.01521588 -5.46044437 49.15808354 -6.82104492 53.30102539 C-8.13705469 57.30817889 -9.45332532 61.31524662 -10.76976776 65.322258 C-11.26894949 66.84182509 -11.76804131 68.36142173 -12.26703644 69.88105011 C-15.14066585 78.63211238 -18.02953355 87.37776971 -20.94946289 96.11352539 C-24.90946289 96.11352539 -28.86946289 96.11352539 -32.94946289 96.11352539 C-31.54449736 89.24886293 -29.63019517 82.70097737 -27.42211914 76.05493164 C-27.07696762 75.00412415 -26.7318161 73.95331665 -26.37620544 72.8706665 C-25.25873939 69.47113864 -24.13542615 66.07357549 -23.01196289 62.67602539 C-21.85563086 59.16472073 -20.7006826 55.65296301 -19.54586792 52.14115906 C-18.77660501 49.80205875 -18.00685088 47.46311995 -17.23660278 45.12434387 C-14.93908179 38.14379034 -12.6622475 31.15707491 -10.41430664 24.16040039 C-10.0250576 22.94978188 -10.0250576 22.94978188 -9.62794495 21.71470642 C-8.66821187 18.72772564 -7.70924774 15.74051781 -6.75588989 12.75149536 C-6.12498485 10.77370855 -5.49065239 8.79705111 -4.85571289 6.82055664 C-4.50831055 5.73234619 -4.1609082 4.64413574 -3.80297852 3.52294922 C-2.60882425 0.15192276 -2.60882425 0.15192276 0 0 Z " fill="#EB1B23" transform="translate(262.949462890625,277.886474609375)"/>
<path d="M0 0 C1.30130859 -0.00322266 2.60261719 -0.00644531 3.94335938 -0.00976562 C22.31221268 0.09274954 22.31221268 0.09274954 29.8125 6.3125 C33.25352421 11.85834314 32.45208671 18.38585929 31.10742188 24.53881836 C28.53274408 33.98172672 25.71863191 43.33299047 22.71337891 52.64794922 C21.93489284 55.07061354 21.17252953 57.49800572 20.41015625 59.92578125 C11.71928057 87.17347985 11.71928057 87.17347985 0.09765625 93.87890625 C-6.96040681 97.20424871 -13.00703537 98.46762243 -20.796875 98.515625 C-21.52312073 98.52132507 -22.24936646 98.52702515 -22.99761963 98.53289795 C-24.530625 98.54231298 -26.06365028 98.54886797 -27.59667969 98.55273438 C-29.91638436 98.56241191 -32.23519138 98.59345564 -34.5546875 98.625 C-52.0608385 98.75138458 -52.0608385 98.75138458 -59.1875 92.8125 C-62.75914018 88.34794978 -62.73399992 83.80953374 -62.1875 78.3125 C-59.82731882 67.72012556 -56.42542223 57.34906059 -53.08837891 47.03198242 C-52.31089508 44.62002111 -51.54794639 42.20375169 -50.78515625 39.78710938 C-41.67972066 11.33275957 -41.67972066 11.33275957 -29.62084961 4.48730469 C-20.24641835 -0.03860714 -10.20206274 -0.12746205 0 0 Z M-29.1875 17.3125 C-35.41123332 27.24632479 -38.49941845 38.72980776 -42 49.8125 C-42.58963497 51.6513176 -43.18012404 53.48986155 -43.77148438 55.328125 C-44.84462496 58.67615122 -45.91606456 62.02466664 -46.97583008 65.37695312 C-47.18645584 66.04247192 -47.3970816 66.70799072 -47.61408997 67.39367676 C-49.21361475 72.74622581 -49.83865028 77.72190972 -49.1875 83.3125 C-47.81033334 86.02357713 -47.81033334 86.02357713 -45.1875 87.3125 C-39.42203485 88.42066733 -33.73325109 88.49579451 -27.875 88.5 C-26.98876953 88.51224609 -26.10253906 88.52449219 -25.18945312 88.53710938 C-16.84365334 88.55537152 -9.08366146 88.50872283 -2.57286072 82.74778748 C5.48000015 74.40471104 8.51870986 59.93377825 11.83984375 49.17871094 C12.69399187 46.41650612 13.5682742 43.66126242 14.4453125 40.90625 C15.00378736 39.12797532 15.56112058 37.34934161 16.1171875 35.5703125 C16.37442596 34.75869659 16.63166443 33.94708069 16.896698 33.11087036 C19.82483017 24.26541304 19.82483017 24.26541304 18.5625 15.4375 C16.51280149 12.94858039 14.82358575 11.50219042 11.60546875 10.8984375 C-10.33896358 8.38139419 -10.33896358 8.38139419 -29.1875 17.3125 Z " fill="#EB1B23" transform="translate(418.1875,276.6875)"/>
<path d="M0 0 C2.08049513 -0.00964085 4.15997326 -0.04067172 6.24023438 -0.07226562 C15.37351823 -0.14494482 24.28674906 0.14109031 32.10742188 5.30273438 C35.58082787 10.74440376 35.47745687 15.57901682 34.31005859 21.85473633 C33.99860658 23.21052355 33.67793168 24.56421467 33.34960938 25.91601562 C33.08457863 27.02125328 33.08457863 27.02125328 32.81419373 28.14881897 C30.84295174 36.13855921 28.39032437 43.96428719 25.82836914 51.78149414 C25.03854363 54.19724279 24.26486425 56.61778139 23.4921875 59.0390625 C19.09323994 72.6699133 14.31727876 86.77161571 1.41992188 94.74023438 C-5.06438962 97.56975212 -11.10477104 98.5502257 -18.13867188 98.54101562 C-18.8828688 98.54530075 -19.62706573 98.54958588 -20.39381409 98.55400085 C-21.95597321 98.55970198 -23.51815885 98.56027585 -25.08032227 98.5559082 C-27.44594366 98.55274658 -29.81031367 98.57626469 -32.17578125 98.6015625 C-49.72371438 98.67532537 -49.72371438 98.67532537 -56.51757812 93.24023438 C-60.26452224 88.24430889 -59.62070572 82.16294739 -59.01757812 76.24023438 C-57.6019582 69.09235065 -55.26569546 62.15985644 -53.01757812 55.24023438 C-52.81440979 54.61330688 -52.61124146 53.98637939 -52.4019165 53.3404541 C-51.03481157 49.13167178 -49.64459033 44.93119199 -48.23208618 40.73742676 C-47.76217896 39.34173426 -47.29479957 37.94518769 -46.83016968 36.54772949 C-38.67811833 12.14044294 -38.67811833 12.14044294 -28.01757812 5.24023438 C-18.75475941 0.61589587 -10.20057521 0.02851978 0 0 Z M-25.01757812 16.24023438 C-28.8263659 20.75792832 -31.12296961 25.36944529 -32.95507812 30.94726562 C-33.20127396 31.66623016 -33.44746979 32.3851947 -33.7011261 33.12594604 C-34.48602089 35.43080052 -35.25291203 37.74109755 -36.01757812 40.05273438 C-36.55011004 41.64046954 -37.082907 43.22811582 -37.6159668 44.81567383 C-45.18150662 64.14815962 -45.18150662 64.14815962 -46.01757812 84.24023438 C-43.17063754 87.50894393 -40.19588506 87.71332399 -36.01757812 88.24023438 C-32.41253991 88.40611374 -28.8135076 88.42530772 -25.20507812 88.42773438 C-24.25826172 88.43998047 -23.31144531 88.45222656 -22.3359375 88.46484375 C-13.83943218 88.48238643 -5.68690635 88.00010875 0.98242188 82.24023438 C6.75896354 74.5742617 9.13986762 65.57781822 12.04492188 56.55273438 C12.56545525 54.96453174 13.08693334 53.37663842 13.609375 51.7890625 C14.85908714 47.97980842 16.09058609 44.16508237 17.30984497 40.34597778 C17.74545829 38.98213393 18.18290265 37.61887301 18.62252808 36.25631714 C19.19604094 34.47671963 19.76135301 32.69448531 20.32617188 30.91210938 C20.63876953 29.92952148 20.95136719 28.94693359 21.2734375 27.93457031 C22.56734532 23.01736415 23.10883685 18.38578671 20.66992188 13.74023438 C11.36258121 5.46704268 -16.06712423 8.53868102 -25.01757812 16.24023438 Z " fill="#EB1B23" transform="translate(575.017578125,276.759765625)"/>
<path d="M0 0 C1.64162109 -0.02416992 1.64162109 -0.02416992 3.31640625 -0.04882812 C11.52435297 -0.0536849 21.20391311 0.12091765 27.8125 5.5 C31.61667733 13.65180856 29.49462985 19.97140294 27.125 28.3125 C23.165 28.3125 19.205 28.3125 15.125 28.3125 C15.25068359 26.93964844 15.25068359 26.93964844 15.37890625 25.5390625 C15.48074219 24.35054688 15.58257813 23.16203125 15.6875 21.9375 C15.79191406 20.75414062 15.89632812 19.57078125 16.00390625 18.3515625 C16.36653596 15.39351369 16.36653596 15.39351369 15.125 13.3125 C2.88975668 9.5937206 -12.49749119 10.02133583 -24.375 14.6875 C-29.65442894 20.23090039 -32.17665516 27.44942183 -32.1875 35.0625 C-32.09122034 36.47972453 -31.98842508 37.89654453 -31.875 39.3125 C-23.13074537 42.88396027 -14.38117638 43.02611825 -5.07788086 43.39648438 C-3.02651292 43.48252567 -0.97636175 43.58459685 1.07421875 43.6875 C2.88925903 43.76097656 2.88925903 43.76097656 4.7409668 43.8359375 C9.09443604 44.44902256 12.2932682 46.11239986 15.9375 48.5 C18.59478348 52.55585373 18.23343389 57.5736539 17.55859375 62.171875 C17.24593273 63.47355568 16.9132705 64.7705675 16.5625 66.0625 C16.38050049 66.75206787 16.19850098 67.44163574 16.01098633 68.15209961 C13.3568252 77.6567023 9.45577551 87.45313334 1.125 93.3125 C-8.58571107 98.34539636 -18.20861121 98.52467088 -28.93237305 98.55273438 C-31.17079006 98.56242764 -33.40828265 98.59349337 -35.64648438 98.625 C-53.0505325 98.75452075 -53.0505325 98.75452075 -59.375 93.0625 C-62.9861864 86.44199159 -61.7139091 80.27024379 -59.875 73.3125 C-59.215 71.3325 -58.555 69.3525 -57.875 67.3125 C-53.585 67.3125 -49.295 67.3125 -44.875 67.3125 C-45.68880208 70.2421875 -46.50260417 73.171875 -47.31640625 76.1015625 C-47.90809337 79.50272902 -47.63351802 81.96698342 -46.875 85.3125 C-40.92360166 87.92404018 -34.998747 87.64372429 -28.625 87.625 C-27.54347656 87.64111328 -26.46195313 87.65722656 -25.34765625 87.67382812 C-17.28143564 87.67869316 -9.23988498 87.31163661 -3 81.75 C1.40372034 75.44112405 4.60215785 67.09017299 4.125 59.3125 C2.4353224 56.04286748 2.4353224 56.04286748 -0.75390625 55.6171875 C-1.96949219 55.47539062 -3.18507813 55.33359375 -4.4375 55.1875 C-5.42484131 55.06858398 -5.42484131 55.06858398 -6.43212891 54.94726562 C-11.52849538 54.36810588 -16.62893775 54.07008841 -21.75 53.8125 C-38.81084389 52.93293737 -38.81084389 52.93293737 -44.875 47.3125 C-48.29214709 39.93146228 -46.20320161 32.83438212 -43.875 25.3125 C-39.80104985 15.30222249 -35.64194655 8.32104448 -25.86328125 3.390625 C-17.37795857 0.32925368 -8.95014704 -0.02617002 0 0 Z " fill="#EB1B23" transform="translate(660.875,276.6875)"/>
<path d="M0 0 C53.79 0 107.58 0 163 0 C162.07988583 4.60057086 160.89559434 7.79672559 159 12 C138.89105892 12.81060911 118.82290055 13.14238471 98.69775438 13.10139394 C94.99433632 13.09498162 91.29091666 13.09454292 87.5874939 13.09336853 C80.62924757 13.09030633 73.67101766 13.08216479 66.71277845 13.07201904 C58.76785895 13.06069541 50.82293851 13.05530727 42.8780129 13.05032361 C26.58533244 13.0399755 10.29266834 13.02247937 -6 13 C-4.53528034 7.99554115 -2.70958719 4.74177759 0 0 Z " fill="#EC1B23" transform="translate(22,305)"/>
<path d="M0 0 C53.79 0 107.58 0 163 0 C161.15710387 9.21448067 161.15710387 9.21448067 158 12 C153.78095741 13.08723154 149.60951289 12.97181495 145.27270508 12.93139648 C143.98526052 12.94650741 142.69781595 12.96161833 141.37135792 12.97718716 C137.93439962 13.01673622 134.4987057 13.01440324 131.06158876 13.00282812 C127.76850986 12.99831062 124.47587279 13.03209356 121.18295288 13.06204224 C113.72137827 13.11857879 106.26082863 13.11656095 98.79914832 13.10139394 C95.0930551 13.09498808 91.38696033 13.09454339 87.68086243 13.09336853 C80.71549962 13.09030455 73.7501532 13.08216038 66.78479749 13.07201904 C58.83264617 13.06070123 50.88049392 13.05530868 42.9283365 13.05032361 C26.61888154 13.03997142 10.30944288 13.02247151 -6 13 C-4.53528034 7.99554115 -2.70958719 4.74177759 0 0 Z " fill="#EC1C23" transform="translate(757,305)"/>
<path d="M0 0 C54.12 0 108.24 0 164 0 C162.54996379 4.35010863 161.09990776 7.99108518 159 12 C146.12511519 12.17594785 133.2501157 12.34186062 120.375 12.5 C119.4084486 12.51187725 118.4418972 12.5237545 117.44605637 12.53599167 C87.48424998 12.90134865 57.52653989 13.09260705 27.5625 13.0625 C26.70426384 13.06164398 25.84602768 13.06078796 24.96178436 13.05990601 C14.64116552 13.04882006 4.32058412 13.02923228 -6 13 C-4.53528034 7.99554115 -2.70958719 4.74177759 0 0 Z " fill="#EC1B23" transform="translate(6,360)"/>
<path d="M0 0 C54.12 0 108.24 0 164 0 C161.525 5.94 161.525 5.94 159 12 C146.12511519 12.17594785 133.2501157 12.34186062 120.375 12.5 C119.4084486 12.51187725 118.4418972 12.5237545 117.44605637 12.53599167 C87.48424998 12.90134865 57.52653989 13.09260705 27.5625 13.0625 C26.70426384 13.06164398 25.84602768 13.06078796 24.96178436 13.05990601 C14.64116552 13.04882006 4.32058412 13.02923228 -6 13 C-4.53528034 7.99554115 -2.70958719 4.74177759 0 0 Z " fill="#EC1B23" transform="translate(741,360)"/>
<path d="M0 0 C54.12 0 108.24 0 164 0 C162.09450455 9.52747727 162.09450455 9.52747727 159 12 C153.8619972 13.10524544 148.71814048 12.94301741 143.49121094 12.88647461 C141.87486053 12.89436269 140.25852261 12.90532311 138.64221191 12.91912842 C134.25380412 12.94789023 129.86646113 12.93360486 125.47805309 12.91168666 C120.89220647 12.89607071 116.30657067 12.91990828 111.72076416 12.93959045 C103.03677883 12.97085207 94.35318849 12.96654653 85.66917825 12.94951588 C75.7828563 12.93185507 65.89674656 12.95376322 56.01045561 12.97902286 C35.67356422 13.03009602 15.33692027 13.03138822 -5 13 C-4.3459924 7.76793917 -2.60441228 5.20882456 0 0 Z " fill="#EC1B23" transform="translate(748,333)"/>
<path d="M0 0 C54.12 0 108.24 0 164 0 C161.525 5.94 161.525 5.94 159 12 C104.55 12.33 50.1 12.66 -6 13 C-4 7 -4 7 0 0 Z " fill="#EC1B23" transform="translate(14,333)"/>
<path d="M0 0 C54.12 0 108.24 0 164 0 C160 10 160 10 159 11 C149.57976595 12.22678016 140.05204172 12.13894901 130.57104492 12.11352539 C129.07160952 12.11324256 127.57217397 12.11340313 126.07273865 12.1139679 C122.04469887 12.11425211 118.01668953 12.10841666 113.98865676 12.10139394 C109.76329822 12.09509733 105.5379388 12.09455165 101.31257629 12.09336853 C93.33024355 12.09027367 85.34792468 12.08208541 77.36559802 12.07201904 C68.26994552 12.06080027 59.17429233 12.05533299 50.07863462 12.05032361 C31.38574836 12.03990105 12.69287581 12.02213374 -6 12 C-4.02 8.04 -2.04 4.08 0 0 Z " fill="#EC1B23" transform="translate(768,275)"/>
<path d="M0 0 C54.12 0 108.24 0 164 0 C161.29252896 8.12241313 161.29252896 8.12241313 159 11 C156.40247822 11.70304012 156.40247822 11.70304012 153.27107239 11.80540466 C152.10366327 11.85164412 150.93625416 11.89788357 149.73346901 11.94552422 C147.88540185 11.97248973 147.88540185 11.97248973 146 12 C144.21810555 12.03599147 144.21810555 12.03599147 142.40021324 12.07271004 C138.48734492 12.12304336 134.57587371 12.12409025 130.6628418 12.11352539 C129.17325848 12.11324255 127.68367503 12.11340314 126.1940918 12.1139679 C122.19291058 12.11425209 118.19176001 12.10841709 114.19058585 12.10139394 C109.99325454 12.09509687 105.79592234 12.09455161 101.59858704 12.09336853 C93.6693782 12.09027381 85.74018333 12.08208573 77.81098062 12.07201904 C68.77578648 12.06079985 59.74059163 12.05533289 50.70539224 12.05032361 C32.13692028 12.03990136 13.56846127 12.02233829 -5 12 C-3.65731345 7.66208962 -2.06787321 4.13574643 0 0 Z " fill="#EC1B23" transform="translate(33,275)"/>
<path d="M0 0 C1.31238144 0.00222061 2.62476288 0.00444122 3.97691345 0.00672913 C4.6988237 0.0065831 5.42073395 0.00643707 6.16452026 0.00628662 C8.56156879 0.00698583 10.95854054 0.01477857 13.35557556 0.02259827 C15.0132442 0.02446242 16.67091338 0.02588633 18.32858276 0.02688599 C22.69996145 0.03071139 27.07130712 0.04054186 31.44267273 0.05158997 C35.89996392 0.0618036 40.35726043 0.0663835 44.81455994 0.07142639 C53.56652824 0.08216412 62.31846968 0.0992408 71.07041931 0.12025452 C70.08041931 3.42025452 69.09041931 6.72025452 68.07041931 10.12025452 C57.51041931 10.12025452 46.95041931 10.12025452 36.07041931 10.12025452 C35.41041931 13.09025452 34.75041931 16.06025452 34.07041931 19.12025452 C33.58198723 20.85644548 33.068849 22.58613142 32.5174408 24.30335999 C32.22602707 25.21740601 31.93461334 26.13145203 31.6343689 27.07319641 C31.32322647 28.03489746 31.01208405 28.99659851 30.69151306 29.98744202 C30.36308914 31.01295166 30.03466522 32.0384613 29.69628906 33.095047 C28.63761285 36.396454 27.57298694 39.69590449 26.50791931 42.99525452 C25.78117632 45.25610145 25.05461423 47.51700655 24.32823181 49.77796936 C19.34706676 65.26080764 14.29196499 80.71669477 9.07041931 96.12025452 C5.11041931 96.12025452 1.15041931 96.12025452 -2.92958069 96.12025452 C-2.32810901 90.8759138 -1.1102996 86.08121003 0.57066345 81.07362366 C0.95127174 79.91629227 0.95127174 79.91629227 1.33956909 78.73558044 C2.17266919 76.20697932 3.01404822 73.68121843 3.85557556 71.15541077 C4.43758719 69.39438584 5.01907676 67.63318829 5.60006714 65.87182617 C7.12540624 61.25221671 8.65779843 56.63497726 10.19169617 52.01820374 C11.75776984 47.30038266 13.31712733 42.58034327 14.87705994 37.86048889 C17.93496349 28.61156376 21.00094408 19.36534576 24.07041931 10.12025452 C14.17041931 10.12025452 4.27041931 10.12025452 -5.92958069 10.12025452 C-3.71451856 0.15247494 -3.71451856 0.15247494 0 0 Z " fill="#EB1B23" transform="translate(464.92958068847656,277.87974548339844)"/>
</svg>
