<?xml version="1.0" encoding="UTF-8"?>
<svg version="1.1" xmlns="http://www.w3.org/2000/svg" width="2249" height="256">
<path d="M0 0 C1.33771454 0.00040787 1.33771454 0.00040787 2.70245361 0.00082397 C129.2528383 0.17542825 129.2528383 0.17542825 165.3125 22.1875 C166.33203125 24.60546875 166.33203125 24.60546875 166.3125 27.1875 C165.1953125 29.109375 165.1953125 29.109375 163.4375 30.9375 C162.77878906 31.6284375 162.12007813 32.319375 161.44140625 33.03125 C160.73886719 33.7428125 160.03632813 34.454375 159.3125 35.1875 C158.68214844 35.8784375 158.05179687 36.569375 157.40234375 37.28125 C148.88870501 46.33621837 134.68773628 60.01043473 121.81835938 61.47045898 C111.49210009 61.56335285 101.43675013 59.99281797 91.243927 58.48077393 C85.69929362 57.65901833 80.15022645 56.86821986 74.6015625 56.07421875 C73.4844136 55.9136499 72.36726471 55.75308105 71.21626282 55.58764648 C60.44997192 54.04723698 49.66800786 52.65123458 38.875 51.3125 C37.64153336 51.15812973 37.64153336 51.15812973 36.38314819 51.00064087 C-1.35762031 46.28369987 -43.42979073 46.38843636 -75.46826172 70.52929688 C-90.51257994 82.74290222 -99.33796522 98.64673213 -101.50878906 118.05371094 C-103.36237769 140.18535653 -99.92447982 162.01271973 -85.62109375 179.75 C-70.64404133 196.83686328 -46.84208781 213.14723924 -23.6875 216.1875 C-19.8972637 216.34436975 -16.10952824 216.35147224 -12.31640625 216.35546875 C-10.64637794 216.36046135 -10.64637794 216.36046135 -8.94261169 216.36555481 C-6.57982799 216.37061364 -4.21703716 216.37296346 -1.85424805 216.37280273 C1.67867692 216.37495652 5.21127224 216.39303154 8.74414062 216.41210938 C27.95675222 216.46017949 47.6564342 216.31984272 66.3125 211.1875 C67.38628906 210.93871094 68.46007812 210.68992188 69.56640625 210.43359375 C72.48552293 209.44835487 72.48552293 209.44835487 73.5546875 206.81640625 C74.99018544 199.860444 75.57749092 193.22082086 75.625 186.125 C75.63063965 185.30394775 75.6362793 184.48289551 75.64208984 183.63696289 C75.7195845 178.03305438 75.7195845 178.03305438 73.3125 173.1875 C63.08090801 167.34835051 50.52323293 167.88232414 39.0390625 167.7734375 C37.74930511 167.75407135 36.45954773 167.7347052 35.13070679 167.7147522 C31.75421913 167.66415224 28.37769232 167.62414852 25.0010376 167.58660889 C21.53445373 167.54610782 18.06802 167.49532741 14.6015625 167.4453125 C7.83860378 167.34846822 1.07574344 167.26836949 -5.6875 167.1875 C-5.6875 152.9975 -5.6875 138.8075 -5.6875 124.1875 C55.0325 124.1875 115.7525 124.1875 178.3125 124.1875 C178.3125 158.8375 178.3125 193.4875 178.3125 229.1875 C143.09964757 240.92511748 143.09964757 240.92511748 132.4375 243.5 C131.79504333 243.6573764 131.15258667 243.81475281 130.49066162 243.97689819 C52.03328897 263.08630595 -46.22055712 266.14426416 -178.9375 219.0625 C-204.17931962 202.65193363 -221.22040406 182.12891052 -227.6875 152.1875 C-232.73455907 125.71911637 -227.69491089 100.44984072 -212.54296875 78.01171875 C-201.53780628 63.06440852 -188.27437337 51.1775286 -172.6875 41.1875 C-172.01525391 40.75099121 -171.34300781 40.31448242 -170.65039062 39.86474609 C-120.897285 7.91686996 -57.954243 -0.06757438 0 0 Z " fill="#000000" transform="translate(229.6875,-0.1875)"/>
<path d="M0 0 C26.420625 -0.020625 52.84125 -0.04125 80.0625 -0.0625 C88.259729 -0.071604 96.45695801 -0.08070801 104.90258789 -0.09008789 C137.76369029 -0.11146855 170.61908787 -0.08441785 203.4765625 0.4453125 C204.73098207 0.46511106 205.98540165 0.48490963 207.27783394 0.50530815 C277.64264278 1.65366418 277.64264278 1.65366418 291.125 8.6875 C291.81585693 9.04344238 292.50671387 9.39938477 293.21850586 9.76611328 C304.28754728 15.6425778 312.4367621 24.62860323 317.21484375 36.3359375 C320.97570814 49.09668135 320.95006159 61.98736143 315.5 74.25 C305.92381925 91.66123772 285.8215041 97.52148075 268 103 C266.4345093 103.49226202 264.86940275 103.9857474 263.3046875 104.48046875 C259.54070751 105.66770163 255.77202285 106.83858697 252 108 C252.84820313 108.72703125 253.69640625 109.4540625 254.5703125 110.203125 C264.21354167 118.46875 273.85677083 126.734375 283.5 135 C284.3667334 135.74286255 284.3667334 135.74286255 285.25097656 136.50073242 C286.41452598 137.4981301 287.57793804 138.49568803 288.74121094 139.4934082 C291.70445065 142.03457301 294.6702197 144.57268199 297.640625 147.10546875 C302.87776795 151.57540939 308.09432474 156.0529519 313.1875 160.6875 C316.41539711 163.62242751 319.71508353 166.40416026 323.125 169.125 C328.72851799 173.65245123 333.94940933 178.54350093 339.16650391 183.50830078 C339.8063623 184.11657715 340.4462207 184.72485352 341.10546875 185.3515625 C341.73888184 185.95387695 342.37229492 186.55619141 343.02490234 187.17675781 C345.71348081 189.65862481 348.51036336 192.00534468 351.3293457 194.33740234 C353.11146581 196.11092827 353.93458361 197.74435159 355 200 C348.14632772 200.79089188 341.37316904 201.17737542 334.4765625 201.25634766 C332.97690948 201.27825165 332.97690948 201.27825165 331.44696045 201.30059814 C322.30414858 201.42580969 313.16054739 201.49520557 304.01705933 201.54844093 C297.89028786 201.58427795 291.76482104 201.63785409 285.63867188 201.73388672 C279.68772957 201.82684923 273.7379431 201.8753792 267.78631592 201.89283371 C265.52806612 201.90688691 263.26985494 201.93643282 261.01202393 201.98213577 C241.1791353 202.36428111 241.1791353 202.36428111 234.72192383 196.59667969 C233.44015127 195.09869166 232.19154953 193.57070645 231 192 C229.24441791 190.52334217 227.47712289 189.06021312 225.6875 187.625 C221.5802647 184.29981938 217.52516173 180.92337367 213.5 177.5 C208.64702904 173.37572261 203.7418645 169.32333986 198.80078125 165.3046875 C196.28320402 163.23304097 193.79574783 161.13226991 191.31640625 159.01538086 C184.58919397 153.27325347 177.71360807 147.75725207 170.71875 142.34521484 C169.03495992 141.0273621 167.37502855 139.68422741 165.71875 138.33203125 C148.53963918 124.45579663 136.55488521 122.98145355 113 122 C113 148.07 113 174.14 113 201 C75.71 201 38.42 201 0 201 C0 134.67 0 68.34 0 0 Z M116 37 C111.7449847 47.21203671 112.86670705 59.41323343 112.9375 70.25 C112.94253214 71.59244622 112.94709198 72.9348943 112.95117188 74.27734375 C112.96282991 77.5182781 112.97919226 80.75911369 113 84 C120.79018788 84.02340894 128.58036717 84.04105792 136.37058163 84.05181217 C139.98982442 84.05697965 143.60904276 84.06396231 147.22827148 84.07543945 C181.24692365 86.40570159 181.24692365 86.40570159 212 76 C216.06778292 70.2526108 216.59713004 64.74424092 216.4375 57.875 C216.44458984 57.00746094 216.45167969 56.13992187 216.45898438 55.24609375 C216.396787 48.95937419 215.26486963 44.63017118 211.0625 39.75 C199.51079625 33.14902643 181.66828765 34.84486735 168.734375 34.83203125 C166.93519623 34.82703865 166.93519623 34.82703865 165.09967041 34.82194519 C162.58891173 34.81692645 160.0781465 34.81453528 157.56738281 34.81469727 C153.74533159 34.81249731 149.92356339 34.79425079 146.1015625 34.77539062 C143.64583431 34.77245823 141.19010476 34.7704724 138.734375 34.76953125 C137.60497498 34.76234573 136.47557495 34.75516022 135.31195068 34.74775696 C128.63786762 34.76685416 122.48444854 35.39958896 116 37 Z " fill="#000000" transform="translate(1382,24)"/>
<path d="M0 0 C1.19246338 0.0195575 2.38492676 0.03911499 3.61352539 0.05926514 C6.90916064 0.11572427 10.20456456 0.17905879 13.5 0.24609375 C14.89647766 0.2711776 14.89647766 0.2711776 16.32116699 0.29676819 C22.25375529 0.43213126 28.10448861 0.88933083 34 1.5625 C32.41944477 6.00674937 30.12104716 9.89806544 27.625 13.875 C27.1930835 14.56561523 26.76116699 15.25623047 26.31616211 15.96777344 C21.69414533 23.23363962 16.54816736 30.08498423 11.28344727 36.89355469 C9.93371121 38.57869039 9.93371121 38.57869039 8.77451611 40.63674545 C7 42.5625 7 42.5625 4.44442463 43.05469131 C3.41478187 43.05100414 2.3851391 43.04731697 1.32429504 43.04351807 C0.14218948 43.04901672 -1.03991608 43.05451538 -2.25784302 43.06018066 C-3.55616058 43.04579956 -4.85447815 43.03141846 -6.19213867 43.01660156 C-7.57187365 43.01547338 -8.95161103 43.01610637 -10.3313446 43.01837158 C-14.07919107 43.01952083 -17.82652708 42.99597813 -21.57425475 42.96807575 C-25.49001345 42.94309679 -29.40578342 42.94072288 -33.3216095 42.93597412 C-40.7377262 42.92353398 -48.15360747 42.89069849 -55.56962043 42.85057616 C-64.01205959 42.80589062 -72.45450991 42.78387954 -80.89703786 42.76379442 C-98.26485256 42.72196657 -115.63234446 42.64860145 -133 42.5625 C-133 54.7725 -133 66.9825 -133 79.5625 C-87.79 79.5625 -42.58 79.5625 4 79.5625 C4 93.4225 4 107.2825 4 121.5625 C-41.21 121.5625 -86.42 121.5625 -133 121.5625 C-133 135.0925 -133 148.6225 -133 162.5625 C-77.89 162.5625 -22.78 162.5625 34 162.5625 C34 175.1025 34 187.6425 34 200.5625 C-57.08 200.5625 -148.16 200.5625 -242 200.5625 C-242.020625 173.481875 -242.04125 146.40125 -242.0625 118.5 C-242.071604 109.99081787 -242.08070801 101.48163574 -242.09008789 92.71459961 C-242.09460449 82.21789551 -242.09460449 82.21789551 -242.09544373 77.28346252 C-242.09636473 73.88196645 -242.10006895 70.48048643 -242.10557556 67.07899475 C-242.18261687 17.1931711 -242.18261687 17.1931711 -240 3.5625 C-233.79116282 1.4065399 -227.91844113 1.14538291 -221.37890625 0.97265625 C-220.20526016 0.93584244 -219.03161407 0.89902863 -217.82240295 0.86109924 C-202.39224781 0.40851799 -186.95599412 0.20827397 -171.5206604 0.02986908 C-168.89364854 -0.00050705 -166.26664884 -0.03182101 -163.63964844 -0.06317139 C-109.10044931 -0.70503069 -54.53717278 -0.92395033 0 0 Z " fill="#000000" transform="translate(1320,24.4375)"/>
<path d="M0 0 C1.59489418 0.00970551 3.18980968 0.01633909 4.784729 0.02008057 C9.03522042 0.03918851 13.28395849 0.10181382 17.53380966 0.17576599 C21.89968765 0.24721998 26.26586259 0.28815182 30.63208008 0.33300781 C35.79233247 0.38867621 40.95233291 0.45024382 46.11222839 0.53302002 C55.21243549 0.67780908 64.29359157 0.71144391 73.39453125 0.546875 C75.96901582 0.52346029 78.54338829 0.50660627 81.11795044 0.49487305 C82.62601591 0.47768643 84.13400559 0.44126268 85.64108276 0.3840332 C96.33275336 -0.00370402 96.33275336 -0.00370402 100.90649414 4.16479492 C103.26720818 7.24306457 105.26319788 10.37328304 107.22265625 13.71875 C108.26344045 15.23399345 109.31546982 16.74162695 110.3828125 18.23828125 C111.35277395 19.66756829 112.32017346 21.09859691 113.28515625 22.53125 C114.39759123 24.16984568 115.51091449 25.80783857 116.625 27.4453125 C117.20491699 28.29770508 117.78483398 29.15009766 118.38232422 30.02832031 C121.67462956 34.84142788 125.01250431 39.62277928 128.34765625 44.40625 C132.82500307 50.83086557 137.29515918 57.25966427 141.72265625 63.71875 C146.19286023 70.23957678 150.70420747 76.73127416 155.22265625 83.21875 C162.01898945 92.97789325 168.77152 102.76586435 175.49511719 112.57519531 C180.57995916 119.99139666 185.68697448 127.3911028 190.83178711 134.76586914 C199.3642467 146.99982689 207.79590636 159.29856795 216.14453125 171.65869141 C218.22717481 174.72540362 220.33207292 177.77581888 222.44140625 180.82421875 C223.74377906 182.72636433 225.04587577 184.62869899 226.34765625 186.53125 C226.95818848 187.40281738 227.5687207 188.27438477 228.19775391 189.17236328 C229.01832275 190.38061768 229.01832275 190.38061768 229.85546875 191.61328125 C230.33902832 192.31300049 230.82258789 193.01271973 231.32080078 193.73364258 C232.43986187 196.19684932 231.97180889 197.19278942 231.22265625 199.71875 C213.74802949 202.09602584 196.3869252 202.41190057 178.77270508 202.58374023 C175.01331855 202.624147 171.25730834 202.7012983 167.49926758 202.80932617 C162.91452941 202.94075416 158.33298932 203.00803791 153.74646187 203.0300312 C152.01383398 203.04890932 150.2812906 203.08997269 148.549757 203.15437126 C143.17181726 203.3442868 138.39535464 203.31150295 133.22265625 201.71875 C129.30608928 197.81631187 127.39631651 193.81688129 125.22265625 188.71875 C124.48281769 187.38589792 123.72678363 186.06161416 122.94091797 184.75537109 C122.35068848 183.67852051 121.76045898 182.60166992 121.15234375 181.4921875 C120.82275665 180.89298492 120.49316956 180.29378235 120.15359497 179.67642212 C119.13187487 177.8171977 118.11465627 175.95555956 117.09765625 174.09375 C116.41436153 172.84879417 115.73076828 171.60400213 115.046875 170.359375 C111.09067191 163.15390829 107.15887752 155.93515567 103.22265625 148.71875 C59.66265625 148.38875 16.10265625 148.05875 -28.77734375 147.71875 C-29.43734375 149.36875 -30.09734375 151.01875 -30.77734375 152.71875 C-31.72255236 154.37248495 -32.70878154 156.00319414 -33.7265625 157.61328125 C-34.32065918 158.5580835 -34.91475586 159.50288574 -35.52685547 160.47631836 C-36.1663916 161.4844458 -36.80592773 162.49257324 -37.46484375 163.53125 C-38.81527621 165.67437077 -40.16553113 167.81760342 -41.515625 169.9609375 C-42.21381348 171.06663086 -42.91200195 172.17232422 -43.63134766 173.31152344 C-45.78985554 176.73397141 -47.93190536 180.16652931 -50.0703125 183.6015625 C-50.75456299 184.70008545 -51.43881348 185.7986084 -52.14379883 186.93041992 C-53.46842135 189.05783421 -54.79248989 191.18559354 -56.1159668 193.3137207 C-56.71320557 194.27109131 -57.31044434 195.22846191 -57.92578125 196.21484375 C-58.45349121 197.06232178 -58.98120117 197.9097998 -59.52490234 198.78295898 C-60.77734375 200.71875 -60.77734375 200.71875 -61.77734375 201.71875 C-64.49906415 201.82459012 -67.19553949 201.86552846 -69.91796875 201.86401367 C-70.77172592 201.86737228 -71.62548309 201.8707309 -72.50511169 201.87419128 C-75.34587029 201.8837385 -78.18657008 201.88564686 -81.02734375 201.88671875 C-82.99975611 201.88993081 -84.97216823 201.89329484 -86.94458008 201.89680481 C-91.09082592 201.90280696 -95.2370509 201.90464381 -99.38330078 201.90405273 C-104.68142171 201.90395153 -109.97940736 201.91755586 -115.27749634 201.93482494 C-119.35773321 201.94598264 -123.43793791 201.94797072 -127.51818848 201.94744301 C-129.47009748 201.94861929 -131.42200741 201.95302121 -133.37390137 201.96077538 C-136.11654888 201.97064291 -138.85890973 201.96766975 -141.6015625 201.96166992 C-142.3998497 201.96728943 -143.1981369 201.97290894 -144.02061462 201.97869873 C-149.4934222 201.94848547 -154.4850757 201.09781707 -159.77734375 199.71875 C-160.59375 197.6640625 -160.59375 197.6640625 -160.77734375 194.71875 C-159.18812374 192.12597264 -157.61894897 189.93603234 -155.71484375 187.59375 C-154.59248784 186.15853821 -153.47144623 184.72229788 -152.3515625 183.28515625 C-151.76165527 182.53637207 -151.17174805 181.78758789 -150.56396484 181.01611328 C-147.63457104 177.24929233 -144.8383131 173.38674133 -142.02734375 169.53125 C-136.94031549 162.59413452 -131.75839956 155.73527408 -126.52734375 148.90625 C-122.18623632 143.23812401 -117.8832022 137.55994777 -113.77734375 131.71875 C-109.0141362 124.94237481 -103.97828417 118.38294564 -98.94140625 111.80859375 C-94.4901015 105.99022162 -90.10486135 100.12967227 -85.77734375 94.21875 C-80.19245935 86.59335744 -74.48852974 79.06591337 -68.74267578 71.5612793 C-64.3131103 65.76494071 -59.95918818 59.91921074 -55.65234375 54.03125 C-51.12618932 47.84618829 -46.50682965 41.74971767 -41.77734375 35.71875 C-29.57365086 21.61626166 -29.57365086 21.61626166 -20.02882385 5.92404175 C-16.12810591 -1.91895931 -7.56569039 -0.16740455 0 0 Z M40.22265625 43.71875 C29.28454734 57.28828906 19.82646697 71.7135874 10.39892578 86.34570312 C8.46462715 89.34719004 6.51640196 92.33935223 4.5625 95.328125 C3.55323234 96.87490013 2.54410343 98.42176581 1.53515625 99.96875 C1.08382324 100.65904297 0.63249023 101.34933594 0.16748047 102.06054688 C-1.87271281 104.69229161 -1.87271281 104.69229161 -2.77734375 107.71875 C14.28110734 108.60003299 31.333548 108.84987128 48.41217041 108.89599609 C50.70657601 108.90284421 53.00097389 108.91311025 55.29534912 108.92675781 C58.55504626 108.94461112 61.81447841 108.94891675 65.07421875 108.94921875 C66.56619781 108.9599366 66.56619781 108.9599366 68.08831787 108.97087097 C68.9997052 108.96783463 69.91109253 108.96479828 70.85009766 108.96166992 C72.04912216 108.96380745 72.04912216 108.96380745 73.27236938 108.96598816 C75.45863491 108.89114748 75.45863491 108.89114748 77.22265625 106.71875 C62.42149183 72.81860748 62.42149183 72.81860748 40.22265625 43.71875 Z " fill="#000000" transform="translate(1936.77734375,23.28125)"/>
<path d="M0 0 C7.83427724 0.01154457 15.66855583 0.01676511 23.50283957 0.02170396 C39.50756537 0.03192259 55.51226712 0.05011807 71.51698184 0.07202756 C71.51698184 12.94202756 71.51698184 25.81202756 71.51698184 39.07202756 C53.69698184 39.07202756 35.87698184 39.07202756 17.51698184 39.07202756 C17.51698184 81.31202756 17.51698184 123.55202756 17.51698184 167.07202756 C35.33698184 167.07202756 53.15698184 167.07202756 71.51698184 167.07202756 C71.51698184 178.29202756 71.51698184 189.51202756 71.51698184 201.07202756 C-3.06301816 201.07202756 -77.64301816 201.07202756 -154.48301816 201.07202756 C-154.48301816 189.85202756 -154.48301816 178.63202756 -154.48301816 167.07202756 C-148.43657258 166.78459042 -142.3900935 166.49891189 -136.34336972 166.21753538 C-134.29123923 166.12153304 -132.23915439 166.02454898 -130.18711972 165.92651975 C-108.97582123 164.9144909 -108.97582123 164.9144909 -98.48301816 165.07202756 C-98.48768598 163.83751859 -98.49235379 162.60300962 -98.49716306 161.33109128 C-98.53283509 147.48764028 -98.34780073 133.65479279 -98.08067441 119.81421506 C-98.03819014 117.5645515 -97.99574607 115.31488718 -97.95333982 113.06522214 C-97.86485524 108.40128257 -97.77466806 103.73737942 -97.68345761 99.07349241 C-97.56678997 93.09168018 -97.45640537 87.10976883 -97.3474524 81.12781179 C-97.26226461 76.5056489 -97.17286329 71.88357462 -97.08225942 67.26151502 C-97.03966792 65.05348319 -96.99861848 62.84542105 -96.95914006 60.63733137 C-96.90390526 57.57232653 -96.84277884 54.50749418 -96.7801373 51.44263303 C-96.7650311 50.53263547 -96.7499249 49.62263792 -96.73436093 48.68506467 C-96.71615796 47.85304533 -96.69795499 47.02102598 -96.67920041 46.16379392 C-96.66537352 45.44165142 -96.65154662 44.71950891 -96.63730073 43.9754833 C-96.48301816 42.07202756 -96.48301816 42.07202756 -95.48301816 39.07202756 C-114.95301816 39.07202756 -134.42301816 39.07202756 -154.48301816 39.07202756 C-154.48301816 12.07202756 -154.48301816 12.07202756 -152.48301816 4.07202756 C-148.12648974 1.63532049 -143.24851275 1.67004974 -138.33702207 1.48193967 C-137.10861317 1.4266996 -137.10861317 1.4266996 -135.85538793 1.37034357 C-123.84965204 0.86924366 -111.83282621 0.69684523 -99.81895566 0.51343381 C-98.4802238 0.49220954 -97.14149268 0.47093872 -95.80276227 0.44962347 C-63.86929577 -0.05221075 -31.93657176 -0.04793722 0 0 Z " fill="#000000" transform="translate(611.4830181598663,23.927972435951233)"/>
<path d="M0 0 C34.65 0 69.3 0 105 0 C105 55.11 105 110.22 105 167 C153.62708089 166.96055918 153.62708089 166.96055918 202.25415039 166.90991211 C211.76257324 166.90539551 211.76257324 166.90539551 216.24534607 166.90455627 C219.30732482 166.90364264 222.36928536 166.89996987 225.43125916 166.89442444 C241.80042953 166.86616508 258.15485129 166.93758583 274.51733398 167.44360352 C275.82294061 167.48245887 277.12854723 167.52131422 278.47371769 167.56134701 C279.67154597 167.6028214 280.86937426 167.64429579 282.10350037 167.68702698 C283.15038749 167.72306314 284.19727461 167.75909929 285.27588558 167.79622746 C287.65080815 167.97387932 289.722644 168.32935826 292 169 C291.44199256 173.66777651 289.37192233 177.14377327 286.9375 181.0625 C286.57978516 181.65482422 286.22207031 182.24714844 285.85351562 182.85742188 C285.0817613 184.12161636 284.27745606 185.3664019 283.44506073 186.5915184 C281.88771815 189.01644382 281.88771815 189.01644382 280.90106964 191.99481583 C279.1862719 195.78527451 277.51689931 198.73532625 274 201 C265.69767268 203.40813201 256.48297893 202.51139055 247.93945312 202.36230469 C245.23865329 202.35891881 242.53824582 202.36029307 239.8374939 202.36761475 C234.02781156 202.37389589 228.21975102 202.3363713 222.41047668 202.26876068 C214.01162248 202.17107535 205.61354944 202.13996791 197.21418875 202.12490478 C183.58603322 202.09866553 169.95874144 202.01887475 156.33105469 201.90527344 C143.0960718 201.79506072 129.86132503 201.71028971 116.62597656 201.65917969 C115.80132471 201.65596372 114.97667286 201.65274775 114.12703156 201.64943433 C107.67734684 201.62448006 101.22765697 201.60099739 94.77796507 201.57797956 C63.18451713 201.46485153 31.5932324 201.22341993 0 201 C0 134.67 0 68.34 0 0 Z " fill="#000000" transform="translate(749,24)"/>
<path d="M0 0 C9.22489544 7.36866648 16.57360711 18.26025083 19 30 C20.16288584 43.29539407 19.43915621 55.42459815 10.6796875 66.1015625 C10.12539062 66.72804688 9.57109375 67.35453125 9 68 C8.42507812 68.66773437 7.85015625 69.33546875 7.2578125 70.0234375 C-2.05959676 80.11407575 -14.92058287 86.32099237 -28.61328125 87.16015625 C-42.76690882 87.5823786 -55.36827198 83.57558272 -65.8125 73.8125 C-75.74726514 63.23792888 -79.95052883 50.29716829 -80 36 C-79.42676331 23.18738531 -74.21032331 11.22716368 -65.29296875 1.96484375 C-46.50160176 -14.13746902 -19.79814387 -14.59478555 0 0 Z M-59.4375 8.3125 C-66.78759344 17.0019438 -72.84056156 30.59947612 -72.5625 42 C-70.11518428 55.0523505 -60.7164048 67.52415427 -50.0625 75.0625 C-40.75482374 80.25223464 -28.86512467 79.86164161 -18.72265625 77.796875 C-7.82997511 74.6087732 1.28519153 63.8217009 7.125 54.4375 C11.94784691 44.59818824 9.84399668 34.15871186 7 24 C3.64571415 14.60799963 -2.20142935 7.74406874 -11.0625 3.125 C-26.98252588 -4.0631329 -46.52530363 -4.76959369 -59.4375 8.3125 Z " fill="#000000" transform="translate(2230,27)"/>
<path d="M0 0 C3.95818926 -0.08821107 7.91612062 -0.14079412 11.875 -0.1875 C13.53789062 -0.22520508 13.53789062 -0.22520508 15.234375 -0.26367188 C23.50463639 -0.33664477 30.92841629 0.37043552 38 4.9375 C41.45831388 8.50388619 42.30585926 11.43835124 42.375 16.375 C42.26787649 21.40980517 41.46177724 24.17382515 38 28 C36.05937113 29.77969867 34.08792842 31.38660077 32 33 C33.45718969 37.46458119 34.94002885 41.88964341 36.6875 46.25 C37.83404101 49.52583147 38.31896146 51.59774448 38 55 C37.01 55.33 36.02 55.66 35 56 C29.051855 52.0742243 25.7506006 46.9175724 22.10888672 40.93920898 C19.54406826 36.55252295 19.54406826 36.55252295 16 33 C12.87450983 32.74951364 12.87450983 32.74951364 10 33 C7.28029284 38.25184831 4.98904449 43.43067543 3 49 C2.34 48.67 1.68 48.34 1 48 C-0.9751554 38.10431926 -0.11532614 27.30889501 -0.0625 17.25 C-0.05747197 15.57031384 -0.05291138 13.89062622 -0.04882812 12.2109375 C-0.03793264 8.14058804 -0.02074084 4.07031071 0 0 Z M7 9 C4.90304402 12.62201487 4.47108503 15.85683271 5 20 C7.23206431 22.84780619 8.54992999 23.84997666 12 25 C18.09709754 25.62534334 23.60701528 25.03659049 29 22 C31.99050723 19.30124957 32.91539496 18.01526045 33.25 14 C31.41432046 9.59436911 28.18322251 8.04277986 24 6 C17.2718922 3.7572974 12.35386663 4.28349844 7 9 Z " fill="#000000" transform="translate(2182,37)"/>
</svg>
