<?xml version="1.0" encoding="UTF-8"?>
<svg version="1.1" xmlns="http://www.w3.org/2000/svg" width="1403" height="276">
<path d="M0 0 C462.99 0 925.98 0 1403 0 C1403 91.08 1403 182.16 1403 276 C940.01 276 477.02 276 0 276 C0 184.92 0 93.84 0 0 Z " fill="#FEFEFE" transform="translate(0,0)"/>
<path d="M0 0 C131.67 0 263.34 0 399 0 C376.25543897 22.74456103 331.3670049 33.76357693 301.96179199 45.78857422 C299.06040379 46.97529377 296.15950286 48.16319554 293.25878906 49.3515625 C284.0467099 53.12547492 274.83287459 56.89506304 265.6171875 60.66015625 C255.47018177 64.80591153 245.32796624 68.96327843 235.1875 73.125 C234.38969116 73.45239166 233.59188232 73.77978333 232.76989746 74.11709595 C227.17979884 76.41107378 221.58987284 78.70547204 216 81 C210.41031602 83.29445044 204.82056607 85.58873992 199.23065186 87.88262939 C197.61673248 88.54495593 196.00284094 89.20735029 194.38897705 89.86981201 C185.08073592 93.69055911 175.76967421 97.5042399 166.453125 101.3046875 C128.66795083 116.72202236 90.98580526 132.38913429 53.40385437 148.29571533 C49.19325884 150.0769279 44.97806957 151.84655297 40.75808716 153.60540771 C38.79009681 154.42694346 36.82390685 155.25262393 34.85839844 156.08007812 C32.51177433 157.06767039 30.16240784 158.04878774 27.80957031 159.02148438 C22.05319629 161.45859392 16.91411737 164.12362061 11.83325195 167.77880859 C10 169 10 169 7 170 C5.87151132 171.79707662 5.87151132 171.79707662 5 174 C4.47019531 175.16789062 4.47019531 175.16789062 3.9296875 176.359375 C3.40761719 177.54273438 3.40761719 177.54273438 2.875 178.75 C2.34519531 179.94882812 2.34519531 179.94882812 1.8046875 181.171875 C1.53914062 181.77515625 1.27359375 182.3784375 1 183 C0.67 183 0.34 183 0 183 C0 122.61 0 62.22 0 0 Z " fill="#FEFEFE" transform="translate(0,0)"/>
<path d="M0 0 C2.60627738 0.01068246 5.21185917 0.00006722 7.81811523 -0.01269531 C34.27665342 -0.03681274 60.92443405 4.23808851 80.80834961 23.26074219 C92.62998276 35.9629936 95.51212072 50.9937262 95.18725586 67.68261719 C94.6615074 78.78552009 90.72866106 88.54364035 83.80834961 97.26074219 C83.13352539 98.17726562 83.13352539 98.17726562 82.44506836 99.11230469 C69.93371873 115.11273492 47.05941735 121.262492 27.90209961 123.88964844 C-4.28439158 127.7504018 -41.93981781 126.19487048 -68.98071289 106.19824219 C-79.4493516 97.34259615 -85.81458361 85.738204 -88.19165039 72.26074219 C-89.41777695 55.02224843 -88.42481595 41.04689992 -77.19165039 27.26074219 C-74.75415039 24.57324219 -74.75415039 24.57324219 -72.19165039 22.26074219 C-71.68891602 21.74253906 -71.18618164 21.22433594 -70.66821289 20.69042969 C-52.58199541 3.0780869 -23.92596108 -0.11630831 0 0 Z " fill="#E72826" transform="translate(704.191650390625,136.7392578125)"/>
<path d="M0 0 C16.69080496 -0.0929301 33.38150179 -0.16414842 50.07250309 -0.20724869 C57.82389747 -0.22780031 65.57512731 -0.25577766 73.32641602 -0.30175781 C80.08907471 -0.34185406 86.85161413 -0.36748647 93.61438841 -0.37635398 C97.18926905 -0.38153057 100.76380874 -0.39353891 104.33857918 -0.42292023 C132.90498237 -0.64867604 132.90498237 -0.64867604 145 4 C146.10290375 4.39678703 146.10290375 4.39678703 147.22808838 4.80158997 C160.93156602 10.15607717 173.32628424 21.37661542 179.2734375 34.89453125 C185.49657487 51.37922492 184.30346202 68.89050481 177.75 85.08984375 C171.15210275 98.45433448 159.73060628 106.74506664 146 111.6875 C128.05086709 117.13770997 110.6396042 117.40934293 91.9921875 117.29296875 C89.32747656 117.28736129 86.66278998 117.28294869 83.99807739 117.28010559 C77.75122274 117.27086693 71.50452997 117.24636701 65.25774586 117.21605712 C58.13294047 117.18225457 51.0081264 117.16596287 43.88326049 117.15097082 C29.2554223 117.11980769 14.62771888 117.06658984 0 117 C0 112.05 0 107.1 0 102 C1.09699219 101.84144531 2.19398438 101.68289062 3.32421875 101.51953125 C4.7788179 101.28491848 6.23323607 101.04918177 7.6875 100.8125 C8.40873047 100.71130859 9.12996094 100.61011719 9.87304688 100.50585938 C10.57880859 100.38662109 11.28457031 100.26738281 12.01171875 100.14453125 C12.97791138 99.99528198 12.97791138 99.99528198 13.96362305 99.84301758 C17.14561764 98.52573819 18.80424479 96.63245053 21 94 C21.74610565 90.63023444 21.74610565 90.63023444 21.63110352 86.88647461 C21.63825882 86.18991257 21.64541412 85.49335052 21.65278625 84.77568054 C21.66963161 82.48389165 21.65030048 80.19407046 21.62890625 77.90234375 C21.62973525 76.30481301 21.63219583 74.70728236 21.63621521 73.10975647 C21.6390702 69.76651241 21.62440059 66.42393942 21.59692383 63.08081055 C21.56281305 58.79761625 21.56887078 54.51561943 21.5875864 50.23236752 C21.59815854 46.93545057 21.58921727 43.63881192 21.57420158 40.34192085 C21.56902269 38.7626891 21.56949805 37.18342825 21.57574654 35.60420036 C21.58120281 33.39687533 21.56081545 31.19126087 21.53344727 28.98413086 C21.52724869 27.72902206 21.52105011 26.47391327 21.5146637 25.18077087 C20.90744041 21.42795489 19.97150059 20.28814265 17 18 C11.60541868 15.50007207 5.85405753 15.42834567 0 15 C0 10.05 0 5.1 0 0 Z " fill="#E72725" transform="translate(1016,141)"/>
<path d="M0 0 C1.58553987 3.17107975 -0.02010937 5.98303061 -1.0625 9.1875 C-1.29146973 9.9000293 -1.52043945 10.61255859 -1.75634766 11.34667969 C-8.93968152 33.28902791 -17.51749936 50.74093003 -38.81689453 61.57104492 C-48.78207721 66.39131165 -59.32895993 69.87519482 -69.75 73.5625 C-72.19447603 74.43789264 -74.63856231 75.31437433 -77.08227539 76.19189453 C-83.22705622 78.39502198 -89.37704891 80.58315976 -95.52886963 82.76654053 C-100.75531803 84.62374887 -105.97708638 86.49398045 -111.19921875 88.36328125 C-139.53335631 98.49423334 -167.92928431 108.45291801 -196.37109375 118.27734375 C-197.43831161 118.64599045 -198.50552948 119.01463715 -199.60508728 119.39445496 C-200.68391678 119.76709976 -201.76274628 120.13974457 -202.87426758 120.52368164 C-223.86269428 127.77366477 -244.82647339 135.08616319 -265.74853516 142.52563477 C-276.42705365 146.32193117 -287.1128715 150.09558979 -297.8125 153.83203125 C-328.00253256 164.36845166 -328.00253256 164.36845166 -358 175.4375 C-358.69623474 175.69921997 -359.39246948 175.96093994 -360.10980225 176.23059082 C-362.03491424 176.95643653 -363.95559847 177.69279962 -365.875 178.43359375 C-366.92429687 178.83634521 -367.97359375 179.23909668 -369.0546875 179.65405273 C-373.64267985 181.75067092 -377.17910201 183.76865302 -380 188 C-380.51183922 193.32312785 -379.55171515 197.3596641 -377 202 C-374.68450512 204.84351923 -374.68450512 204.84351923 -371.921875 207.43359375 C-371.43221252 207.91522476 -370.94255005 208.39685577 -370.43804932 208.89308167 C-368.88465128 210.41775594 -367.31822859 211.92809813 -365.75 213.4375 C-363.69884558 215.43183841 -361.65322518 217.43177276 -359.609375 219.43359375 C-359.11066895 219.92052704 -358.61196289 220.40746033 -358.09814453 220.90914917 C-355.46347117 223.49810307 -352.94118407 226.12926391 -350.546875 228.94140625 C-345.56036132 234.79732866 -339.96798504 240.09895036 -334.5 245.5 C-321.79974662 258.0447854 -321.79974662 258.0447854 -316.43115234 264.34619141 C-314.42473649 266.66476203 -312.25949615 268.80059264 -310.0625 270.9375 C-308.69012855 272.27321379 -307.32982791 273.62192437 -306 275 C-306 275.33 -306 275.66 -306 276 C-336.69 276 -367.38 276 -399 276 C-399.0825 260.840625 -399.165 245.68125 -399.25 230.0625 C-399.28641602 225.28918213 -399.32283203 220.51586426 -399.36035156 215.59790039 C-399.37841797 209.73522949 -399.37841797 209.73522949 -399.3817749 206.9841156 C-399.38788703 205.07697306 -399.4018925 203.16984525 -399.42230225 201.26280212 C-399.45178336 198.36121073 -399.45561744 195.46055765 -399.45410156 192.55883789 C-399.468494 191.71996316 -399.48288643 190.88108843 -399.497715 190.01679325 C-399.4469355 182.70605094 -397.37667808 176.74232086 -392.5625 171.1875 C-380.10418797 160.55235558 -364.45949605 155.06285113 -349.5 148.75 C-347.42508084 147.87088475 -345.35021203 146.99165064 -343.27539062 146.11230469 C-322.46958814 137.30782507 -301.59015268 128.68212296 -280.69012451 120.10418701 C-278.0694017 119.02848658 -275.44895827 117.95210869 -272.82861328 116.87548828 C-263.93183985 113.22034328 -255.03317829 109.5698259 -246.13296509 105.92306519 C-238.06910903 102.61894467 -230.00678001 99.31110594 -221.94454956 96.00302124 C-217.87975998 94.33520057 -213.81487528 92.66761177 -209.75 91 C-208.12499954 90.33333445 -206.49999954 89.66666778 -204.875 89 C-201.625 87.66666667 -198.375 86.33333333 -195.125 85 C-194.32058975 84.66998489 -193.5161795 84.33996979 -192.68739319 83.99995422 C-191.06275106 83.33343568 -189.4381071 82.6669216 -187.8134613 82.00041199 C-183.74547084 80.33151568 -179.67751245 78.66254129 -175.60961914 76.9934082 C-167.57247873 73.69571458 -159.5348327 70.39926387 -151.49609375 67.10546875 C-73.67798342 37.76895598 -73.67798342 37.76895598 0 0 Z " fill="#E72725" transform="translate(399,0)"/>
<path d="M0 0 C0.85667267 0.00359528 1.71334534 0.00719055 2.59597778 0.01089478 C3.4934523 0.01074875 4.39092682 0.01060272 5.31559753 0.01045227 C8.29702123 0.01115175 11.27838329 0.01894575 14.25979614 0.02676392 C16.32102932 0.02862797 18.38226293 0.03005193 20.4434967 0.03105164 C25.88017999 0.03487779 31.31683675 0.04470891 36.75350952 0.05575562 C42.29661704 0.06596764 47.83972882 0.07054881 53.38284302 0.07559204 C64.26762033 0.08633109 75.15237791 0.10340868 86.03713989 0.12442017 C86.03713989 5.40442017 86.03713989 10.68442017 86.03713989 16.12442017 C78.34963989 16.93692017 78.34963989 16.93692017 75.95632935 17.17056274 C71.67777434 17.66555299 68.50155208 18.36703087 65.03713989 21.12442017 C60.98744855 29.22380286 62.43048069 39.07758188 62.03713989 48.12442017 C86.45713989 48.12442017 110.87713989 48.12442017 136.03713989 48.12442017 C136.96902346 27.44367371 136.96902346 27.44367371 132.03713989 20.12442017 C125.52885099 16.81110945 119.27618918 16.53572978 112.03713989 16.12442017 C112.03713989 10.84442017 112.03713989 5.56442017 112.03713989 0.12442017 C142.06713989 0.12442017 172.09713989 0.12442017 203.03713989 0.12442017 C203.03713989 5.07442017 203.03713989 10.02442017 203.03713989 15.12442017 C201.23048093 16.93107913 198.35319999 16.38264964 195.91213989 16.49942017 C190.57907429 16.88578935 186.59624558 17.2876433 182.03713989 20.12442017 C179.97363157 24.02943507 179.78432677 27.3912773 179.77835083 31.76309204 C179.77484619 32.40927994 179.77134155 33.05546783 179.76773071 33.72123718 C179.75896853 35.84532594 179.7647428 37.96907835 179.77151489 40.09317017 C179.77016665 41.57620304 179.76822479 43.05923548 179.76571655 44.54226685 C179.76277277 47.64570334 179.76703888 50.74902446 179.77639771 53.85244751 C179.78779187 57.8236179 179.78122839 61.79451792 179.76925278 65.76567841 C179.762014 68.82665023 179.76433136 71.88755832 179.76950836 74.9485321 C179.77083928 76.41251152 179.76921673 77.87649678 179.76454926 79.34046936 C179.75945073 81.38905086 179.7672404 83.43719894 179.77835083 85.48574829 C179.77994202 86.64981201 179.7815332 87.81387573 179.78317261 89.01321411 C180.14800534 93.48256855 181.06320979 96.17754368 184.28713989 99.31192017 C189.43049395 102.5039012 196.20730312 102.46443864 202.03713989 103.12442017 C202.03713989 108.07442017 202.03713989 113.02442017 202.03713989 118.12442017 C172.33713989 118.12442017 142.63713989 118.12442017 112.03713989 118.12442017 C112.03713989 113.17442017 112.03713989 108.22442017 112.03713989 103.12442017 C113.29010864 102.95426392 114.54307739 102.78410767 115.83401489 102.60879517 C117.48518514 102.36487229 119.13622011 102.12003247 120.78713989 101.87442017 C122.02463989 101.7100647 122.02463989 101.7100647 123.28713989 101.54238892 C127.02455899 100.96971986 129.47212008 100.5420435 132.55276489 98.26504517 C137.6257909 90.94920765 135.70275815 78.14643669 136.03713989 71.12442017 C111.61713989 71.12442017 87.19713989 71.12442017 62.03713989 71.12442017 C61.71723429 90.17162608 61.71723429 90.17162608 66.03713989 99.12442017 C69.88458984 101.51626294 74.41265036 101.73084247 78.84963989 102.24942017 C81.22151489 102.53817017 83.59338989 102.82692017 86.03713989 103.12442017 C86.03713989 108.07442017 86.03713989 113.02442017 86.03713989 118.12442017 C55.34713989 118.12442017 24.65713989 118.12442017 -6.96286011 118.12442017 C-6.96286011 113.17442017 -6.96286011 108.22442017 -6.96286011 103.12442017 C-5.79368042 102.96586548 -4.62450073 102.80731079 -3.41989136 102.64395142 C-1.87155026 102.40935428 -0.32338164 102.17361683 1.22463989 101.93692017 C1.99356567 101.83572876 2.76249146 101.73453735 3.55471802 101.63027954 C4.30559692 101.51104126 5.05647583 101.39180298 5.83010864 101.26895142 C6.85914307 101.11970215 6.85914307 101.11970215 7.90896606 100.96743774 C11.16418348 99.67797282 12.80756844 97.80378519 15.03713989 95.12442017 C15.78324555 91.75465461 15.78324555 91.75465461 15.66824341 88.01089478 C15.67539871 87.31433273 15.68255402 86.61777069 15.68992615 85.90010071 C15.70677151 83.60831182 15.68744037 81.31849062 15.66604614 79.02676392 C15.66687515 77.42923318 15.66933572 75.83170253 15.6733551 74.23417664 C15.67621009 70.89093257 15.66154048 67.54835959 15.63406372 64.20523071 C15.59995294 59.92203642 15.60601067 55.6400396 15.6247263 51.35678768 C15.63529844 48.05987074 15.62635716 44.76323209 15.61134148 41.46634102 C15.60616258 39.88710926 15.60663795 38.30784841 15.61288643 36.72862053 C15.6183427 34.52129549 15.59795535 32.31568104 15.57058716 30.10855103 C15.56438858 28.85344223 15.55819 27.59833344 15.55180359 26.30519104 C14.9415884 22.53388421 14.06653468 21.38249125 11.03713989 19.12442017 C5.9915703 17.49957572 1.09354775 16.81355222 -4.17770386 16.37051392 C-5.96286011 16.12442017 -5.96286011 16.12442017 -6.96286011 15.12442017 C-7.06195313 12.79281962 -7.09256515 10.45812075 -7.08786011 8.12442017 C-7.09043823 6.84567017 -7.09301636 5.56692017 -7.09567261 4.24942017 C-6.86836198 -1.09906529 -4.81062596 0.00852765 0 0 Z " fill="#E72826" transform="translate(406.9628601074219,139.87557983398438)"/>
<path d="M0 0 C10.86584497 -0.06951846 21.73163701 -0.12282072 32.59765911 -0.15543652 C37.64322962 -0.17109068 42.68864794 -0.19232451 47.73413086 -0.22631836 C52.60354419 -0.25892053 57.47281116 -0.27685489 62.34232521 -0.28463173 C64.19987098 -0.29017368 66.05740876 -0.30099576 67.9148922 -0.31719017 C70.51724925 -0.33897586 73.11900193 -0.34196645 75.72143555 -0.34057617 C76.4889212 -0.351362 77.25640686 -0.36214783 78.04714966 -0.3732605 C82.55763382 -0.34719606 85.39433616 0.2513688 89 3 C90.5546875 4.70727539 90.5546875 4.70727539 91.875 6.59765625 C92.37837891 7.30728516 92.88175781 8.01691406 93.40039062 8.74804688 C93.92826172 9.51181641 94.45613281 10.27558594 95 11.0625 C96.15599969 12.69939555 97.31225683 14.33610931 98.46875 15.97265625 C99.05527344 16.80941895 99.64179687 17.64618164 100.24609375 18.50830078 C102.96101032 22.36526605 105.73144191 26.18145869 108.5 30 C109.58363683 31.49978076 110.66696931 32.99978147 111.75 34.5 C112.28625 35.2425 112.8225 35.985 113.375 36.75 C118.25 43.5 118.25 43.5 119.87597656 45.75146484 C120.95591198 47.24668511 122.03598939 48.74180284 123.11621094 50.23681641 C125.8777244 54.05910435 128.63650813 57.88331583 131.390625 61.7109375 C137.50829312 70.2076497 143.6805653 78.65209349 150 87 C150.05866961 73.47153321 149.92750402 59.95520016 149.62768555 46.42993164 C149.56127151 43.38110453 149.50226867 40.33218347 149.44335938 37.28320312 C149.40148844 35.33332369 149.35918774 33.38345342 149.31640625 31.43359375 C149.29133751 30.07445107 149.29133751 30.07445107 149.26576233 28.68785095 C149.24581711 27.85169754 149.22587189 27.01554413 149.20532227 26.15405273 C149.18977798 25.4216185 149.1742337 24.68918427 149.15821838 23.93455505 C149.05933918 21.7816089 149.05933918 21.7816089 148 19 C145.81629414 18.03145583 145.81629414 18.03145583 143.125 17.4375 C142.14144531 17.19257813 141.15789062 16.94765625 140.14453125 16.6953125 C135.44870914 15.65698165 130.74221999 14.80063454 126 14 C126 9.38 126 4.76 126 0 C150.09 0 174.18 0 199 0 C199 4.95 199 9.9 199 15 C197.164375 15.103125 195.32875 15.20625 193.4375 15.3125 C188.28413459 15.74448222 184.49952259 16.45679158 180 19 C177.34355508 22.98466739 177.73506409 26.43778082 177.77294922 31.0612793 C177.77265717 31.98830658 177.77236511 32.91533386 177.77206421 33.87045288 C177.77345896 36.93846963 177.78902707 40.00624435 177.8046875 43.07421875 C177.80841711 45.19985318 177.81126433 47.32548933 177.81326294 49.4511261 C177.82090346 55.04892717 177.8405556 60.64662465 177.8626709 66.24438477 C177.88312027 71.95522663 177.89226271 77.66608521 177.90234375 83.37695312 C177.92380105 94.58468096 177.9579421 105.79233187 178 117 C170.0198882 117.09284953 162.04000364 117.16384 154.05948448 117.20724869 C150.3534265 117.22808715 146.6477392 117.25633503 142.94189453 117.30175781 C139.36274214 117.34535112 135.78394536 117.36916523 132.20454788 117.37950897 C130.84181753 117.38687635 129.47910573 117.40126338 128.11652756 117.42292023 C114.86063649 117.62515159 114.86063649 117.62515159 110 113 C108.42358398 111.37866211 108.42358398 111.37866211 107.24609375 109.77734375 C106.79105469 109.16632813 106.33601562 108.5553125 105.8671875 107.92578125 C105.39539063 107.26964844 104.92359375 106.61351562 104.4375 105.9375 C103.92574219 105.24140625 103.41398438 104.5453125 102.88671875 103.828125 C98.400499 97.67590617 94.12489743 91.38070773 89.859375 85.07446289 C85.88692901 79.2242303 81.73028495 73.54870283 77.45141602 67.92016602 C73.37995391 62.55077032 69.4717605 57.07911704 65.62280273 51.54833984 C60.54343821 44.27261791 55.26070359 37.14499516 50 30 C49.95357162 37.8497645 49.91807756 45.69949658 49.89637566 53.54936409 C49.88595757 57.19474274 49.87183467 60.84002714 49.84912109 64.48535156 C49.82732196 68.00612179 49.81541653 71.5268016 49.81024551 75.04763412 C49.80477522 77.03838841 49.78917359 79.02910654 49.77340698 81.01980591 C49.77325592 82.24061859 49.77310486 83.46143127 49.77294922 84.71923828 C49.76628738 86.32474045 49.76628738 86.32474045 49.75949097 87.962677 C50.02349655 91.29673152 50.68740546 93.92557758 52 97 C58.09198002 100.92594268 64.91218134 100.63464852 72 101 C72 106.28 72 111.56 72 117 C48.24 117 24.48 117 0 117 C0 112.05 0 107.1 0 102 C1.18078125 101.82984375 2.3615625 101.6596875 3.578125 101.484375 C5.13555121 101.24044077 6.69283585 100.9956015 8.25 100.75 C9.41595703 100.58564453 9.41595703 100.58564453 10.60546875 100.41796875 C14.21932783 99.83110274 16.51188307 99.36532022 19.484375 97.140625 C22.31891434 93.13720346 22.14062063 89.19372012 22.19287109 84.38305664 C22.20104858 83.7272612 22.20922607 83.07146576 22.21765137 82.39579773 C22.24238717 80.23392632 22.25898723 78.07211985 22.2734375 75.91015625 C22.27876118 75.16985106 22.28408485 74.42954586 22.28956985 73.66680717 C22.31624495 69.75127068 22.3356412 65.8357655 22.35009766 61.92016602 C22.3634556 58.68322611 22.3913489 55.44691382 22.43212891 52.21020508 C22.48144026 48.29571517 22.5062156 44.38179582 22.51332474 40.46700859 C22.52003471 38.97784627 22.5352505 37.48869658 22.55921555 35.99971199 C22.59087214 33.91457896 22.59090571 31.83164855 22.58349609 29.74633789 C22.59158295 28.56149307 22.5996698 27.37664825 22.60800171 26.15589905 C21.8148198 22.03880202 20.23469793 20.58554468 17 18 C11.40553102 16.13517701 5.85784272 15.54917276 0 15 C0 10.05 0 5.1 0 0 Z " fill="#E72825" transform="translate(805,141)"/>
<path d="M0 0 C11.77850517 -0.09267174 23.55692364 -0.16375083 35.33571911 -0.20724869 C40.80507978 -0.2281253 46.27419106 -0.25644465 51.7434082 -0.30175781 C57.02131413 -0.34521239 62.29898015 -0.36913655 67.57705116 -0.37950897 C69.59091278 -0.386901 71.60476123 -0.40133586 73.61852074 -0.42292023 C76.43892183 -0.45194883 79.25833103 -0.4559562 82.07885742 -0.45410156 C83.32826866 -0.47567322 83.32826866 -0.47567322 84.60292053 -0.49768066 C88.58198739 -0.4693599 90.51894476 -0.30731103 93.95367432 1.8868866 C96.06446199 4.06656589 97.59009558 6.1412327 99.12890625 8.75390625 C99.95914307 10.14379761 99.95914307 10.14379761 100.80615234 11.56176758 C101.38574707 12.55200928 101.9653418 13.54225098 102.5625 14.5625 C103.8150505 16.66226766 105.06897604 18.76121564 106.32421875 20.859375 C106.94603027 21.90287109 107.5678418 22.94636719 108.20849609 24.02148438 C110.69834498 28.16105325 113.27668432 32.24045285 115.875 36.3125 C121.31121291 44.85865566 126.61239324 53.4847284 131.90185547 62.12231445 C137.10250333 70.59449917 142.41728199 78.98867601 147.83544922 87.32348633 C148.38475098 88.17579834 148.93405273 89.02811035 149.5 89.90625 C149.9846875 90.65197266 150.469375 91.39769531 150.96875 92.16601562 C152 94 152 94 152 96 C159.28324887 98.99898483 166.24279406 100.67559899 174 102 C174 106.95 174 111.9 174 117 C142.98 117 111.96 117 80 117 C80 111.72 80 106.44 80 101 C83.22265625 100.57682292 86.4453125 100.15364583 89.66796875 99.73046875 C93.01836027 98.99597495 95.1929729 97.92950074 98 96 C97.65867196 91.44895941 96.55329427 87.52436767 94.07119751 83.71118164 C89.30170204 79.7707206 81.88242882 81.05597669 75.98046875 81.21875 C74.39580646 81.2336795 72.81110713 81.24506319 71.22639465 81.25305176 C67.0644758 81.28353208 62.90480692 81.3620533 58.74377441 81.45068359 C54.49420614 81.53266753 50.24427255 81.56908962 45.99414062 81.609375 C37.66173024 81.69505713 29.33114533 81.83150782 21 82 C20.1533966 83.38782485 19.32324661 84.78569397 18.5 86.1875 C18.0359375 86.96480469 17.571875 87.74210937 17.09375 88.54296875 C15.89270353 91.24103386 15.79258957 93.0806982 16 96 C22.49049267 99.7963259 27.48863609 100.6244318 35 101 C35 106.28 35 111.56 35 117 C11.24 117 -12.52 117 -37 117 C-37 111.72 -37 106.44 -37 101 C-29.3125 100.1875 -29.3125 100.1875 -26.91918945 99.95385742 C-26.28198975 99.88013916 -25.64479004 99.8064209 -24.98828125 99.73046875 C-24.34415283 99.66239014 -23.70002441 99.59431152 -23.03637695 99.52416992 C-19.12252415 98.51673173 -16.61719082 96.82590957 -14.20166016 93.59350586 C-13.65300293 92.64354736 -13.1043457 91.69358887 -12.5390625 90.71484375 C-11.91008057 89.63944336 -11.28109863 88.56404297 -10.63305664 87.45605469 C-9.96347089 86.28333644 -9.29412471 85.11048137 -8.625 83.9375 C-7.92220806 82.72626917 -7.21833354 81.5156659 -6.51342773 80.30566406 C-4.68863524 77.16649103 -2.87842837 74.01917511 -1.0725708 70.86907959 C0.6342126 67.89481065 2.35058153 64.92609043 4.06640625 61.95703125 C5.98731656 58.63182634 7.90577464 55.30538733 9.81445312 51.97314453 C12.45235704 47.37242997 15.10101602 42.78865581 17.90234375 38.28515625 C18.32717041 37.59969727 18.75199707 36.91423828 19.18969727 36.20800781 C20.26903495 34.48195677 21.36414925 32.76579658 22.4609375 31.05078125 C24.17605702 27.65101387 24.66775278 24.77337918 25 21 C20.29745055 17.54486366 15.29823368 16.83155198 9.6875 15.8125 C8.75615234 15.63525391 7.82480469 15.45800781 6.86523438 15.27539062 C4.57846934 14.84149162 2.28944049 14.41955328 0 14 C0 9.38 0 4.76 0 0 Z " fill="#E72725" transform="translate(1229,141)"/>
<path d="M0 0 C-4.98741564 17.45595473 -15.20611623 37.23650821 -31 47 C-46.8445889 55.67920156 -66.45010451 58.90293489 -83.86205482 63.31687355 C-99.99781824 67.41020529 -116.11251361 71.57950745 -132.20703125 75.83203125 C-133.12535421 76.0746381 -134.04367718 76.31724495 -134.98982811 76.56720352 C-140.63338703 78.05865848 -146.27634944 79.55236119 -151.91918182 81.04656219 C-160.8397698 83.40807765 -169.7615575 85.76505681 -178.68359375 88.12109375 C-179.65245262 88.37698021 -180.62131149 88.63286667 -181.61952972 88.89650726 C-193.97959518 92.16001197 -206.34503558 95.40135859 -218.72265625 98.59765625 C-219.37525988 98.76625719 -220.0278635 98.93485813 -220.700243 99.10856819 C-227.12616925 100.76829621 -233.55379344 102.42121222 -239.98364258 104.06567383 C-241.95524195 104.57242425 -243.92684033 105.07917852 -245.8984375 105.5859375 C-246.76473282 105.80560684 -247.63102814 106.02527618 -248.52357483 106.25160217 C-250.69024286 106.80962458 -252.84611519 107.39479717 -255 108 C-255.99209473 108.27666504 -256.98418945 108.55333008 -258.00634766 108.83837891 C-258.66425293 109.22171387 -259.3221582 109.60504883 -260 110 C-260.65375638 112.53438004 -260.65375638 112.53438004 -261 115 C-269.76013641 117.3557023 -278.52238744 119.70332152 -287.28742409 122.04072571 C-291.35756298 123.1263944 -295.42692649 124.21480495 -299.49462891 125.30957031 C-303.42214578 126.36649716 -307.35155236 127.4161052 -311.28236008 128.46072388 C-312.77970967 128.86000968 -314.27636669 129.26190232 -315.77229691 129.66647339 C-317.87196237 130.23384033 -319.9739267 130.79178465 -322.07666016 131.34765625 C-323.27134918 131.66742432 -324.46603821 131.98719238 -325.69692993 132.31665039 C-329.97345824 133.20139213 -333.49511877 133.90091552 -337.3359375 131.6015625 C-341.16625547 127.88864891 -343.54411707 125.23151811 -343.8125 119.75 C-343.75465526 116.44759107 -343.39470262 115.38280325 -340.99975586 113.06005859 C-337.24579936 110.48205868 -333.53415256 109.1672277 -329.234375 107.7421875 C-328.35530991 107.44228912 -327.47624481 107.14239075 -326.57054138 106.83340454 C-323.63403987 105.83599046 -320.69236365 104.85497496 -317.75 103.875 C-315.63705544 103.16361996 -313.52418278 102.45202635 -311.41137695 101.74023438 C-293.36475366 95.68732654 -275.21791517 89.95798295 -257.05566406 84.26367188 C-237.3344061 78.07732602 -217.65847171 71.75786473 -198 65.375 C-197.22665565 65.12392864 -196.45331131 64.87285728 -195.65653229 64.6141777 C-160.07465094 53.06014305 -124.52839234 41.39732862 -89.0057373 29.66254425 C-87.04912377 29.01622679 -85.09244037 28.37012123 -83.13574219 27.72406006 C-59.23528648 19.83072312 -35.34460292 11.9299328 -11.66235352 3.39941406 C-11.01154816 3.16595779 -10.3607428 2.93250153 -9.69021606 2.69197083 C-7.97203371 2.07482448 -6.25536088 1.45347994 -4.53881836 0.83178711 C-2 0 -2 0 0 0 Z " fill="#E72725" transform="translate(370,74)"/>
<path d="M0 0 C-5.11433732 8.87905785 -10.34739908 17.16503103 -17 25 C-17.64195312 25.84175781 -18.28390625 26.68351562 -18.9453125 27.55078125 C-20.99859627 29.99832673 -22.96376058 31.71726658 -25.5625 33.5625 C-26.32691406 34.12066406 -27.09132813 34.67882812 -27.87890625 35.25390625 C-37.18010716 40.4574567 -47.45586813 42.33608298 -57.8125 44.3125 C-59.3548411 44.61347727 -60.89707503 44.9150042 -62.43920898 45.21704102 C-75.03758337 47.67189892 -87.6607554 49.99762519 -100.2878418 52.29956055 C-113.3057916 54.67389837 -126.304502 57.14281154 -139.2996521 59.63870239 C-148.10206029 61.32849435 -156.90446045 63.00622976 -165.734375 64.546875 C-166.39807098 64.6630014 -167.06176697 64.77912781 -167.74557495 64.89877319 C-170.77235227 65.42678735 -173.8002603 65.94620721 -176.83056641 66.45361328 C-177.86358887 66.63134277 -178.89661133 66.80907227 -179.9609375 66.9921875 C-180.84571777 67.14026855 -181.73049805 67.28834961 -182.64208984 67.44091797 C-185.08786511 68.02083362 -186.91669721 68.58493739 -189 70 C-189.80528889 72.05000871 -189.80528889 72.05000871 -190 74 C-191.65005391 74.29616352 -193.30010834 74.59232414 -194.95016479 74.88847351 C-196.45475055 75.15853935 -197.95932786 75.42865228 -199.46389771 75.69880676 C-203.75414055 76.46906835 -208.04453861 77.23844911 -212.33520508 78.00634766 C-220.61959636 79.4898843 -228.90294782 80.97810387 -237.18074036 82.49809265 C-240.67684987 83.13975014 -244.17370877 83.77726914 -247.67062378 84.41452026 C-249.33060895 84.71822592 -250.99022679 85.0239472 -252.64944458 85.33181763 C-257.11249849 86.15955577 -261.57788759 86.95369453 -266.05889893 87.67843628 C-267.87661926 87.97956069 -269.68842445 88.31579921 -271.49951172 88.65454102 C-278.66572648 89.72293206 -278.66572648 89.72293206 -282.2331543 87.79003906 C-284.29679218 86.05292775 -286.00367478 84.2414166 -287.75 82.1875 C-288.36359375 81.53201172 -288.9771875 80.87652344 -289.609375 80.20117188 C-294 75.41362653 -294 75.41362653 -294 73 C-291.41768184 72.26709569 -288.83418852 71.53876103 -286.25 70.8125 C-285.5590625 70.61591797 -284.868125 70.41933594 -284.15625 70.21679688 C-277.41511073 68.32811562 -270.62596744 66.64233107 -263.832901 64.95285034 C-258.35624565 63.59049137 -252.88409144 62.21261355 -247.41796875 60.80859375 C-246.69832443 60.62379456 -245.97868011 60.43899536 -245.23722839 60.24859619 C-243.70798462 59.85575229 -242.17876484 59.46281501 -240.64956665 59.0697937 C-219.54788006 53.65058074 -198.43146533 48.28890788 -177.3125 42.9375 C-176.49999157 42.73159744 -175.68748314 42.52569489 -174.85035324 42.31355286 C-152.14808816 36.56133803 -129.43575039 30.8500111 -106.71484375 25.171875 C-105.55484171 24.88197252 -104.39483967 24.59207005 -103.19968605 24.29338264 C-91.68047175 21.41489331 -80.1606837 18.5387141 -68.63980579 15.66689014 C-64.3341478 14.59345201 -60.02869936 13.51917506 -55.7232914 12.44473457 C-53.66188591 11.93051739 -51.60038287 11.41669109 -49.53877831 10.90327263 C-40.03633857 8.53654594 -30.53694879 6.16500178 -21.07226562 3.65087891 C-20.41576649 3.47713525 -19.75926735 3.30339159 -19.0828743 3.12438297 C-16.17816957 2.35458346 -13.27651128 1.57576597 -10.37884521 0.77983093 C-9.42399231 0.52417862 -8.4691394 0.26852631 -7.48535156 0.00512695 C-6.68019104 -0.21580124 -5.87503052 -0.43672943 -5.04547119 -0.66435242 C-3 -1 -3 -1 0 0 Z " fill="#E72725" transform="translate(336,138)"/>
<path d="M0 0 C7.06076843 6.00553271 11.22739023 12.3137882 12.77734375 21.51171875 C13.73708978 36.8807426 14.50072509 52.64360298 4.71875 65.38671875 C-2.13536413 72.88900867 -12.01528669 75.49358388 -21.94140625 75.9453125 C-23.86834735 75.96876179 -25.79568168 75.96973395 -27.72265625 75.94921875 C-28.73078369 75.94092041 -29.73891113 75.93262207 -30.77758789 75.92407227 C-41.26039826 75.68526645 -48.62942417 73.63341192 -56.46875 66.48828125 C-60.65475339 61.77086986 -63.01942907 57.11512355 -64.47265625 51.01171875 C-64.72523193 49.96504028 -64.72523193 49.96504028 -64.98291016 48.8972168 C-67.87949153 35.94477313 -67.79898938 19.89276688 -60.56640625 8.37109375 C-55.03532936 0.71762689 -47.49228351 -3.78113475 -38.40234375 -5.984375 C-25.86733994 -7.97088052 -10.68800824 -7.52453857 0 0 Z " fill="#FEFEFE" transform="translate(734.22265625,164.48828125)"/>
<path d="M0 0 C-5.20674584 7.46252946 -10.67466295 14.45075721 -17 21 C-17.63550781 21.66128906 -18.27101563 22.32257813 -18.92578125 23.00390625 C-28.06425998 31.76398007 -39.79186246 33.88573518 -51.9375 35.5 C-53.3523175 35.70010995 -54.76694633 35.90155782 -56.18139648 36.10424805 C-59.97422489 36.642919 -63.76966111 37.16016264 -67.56628418 37.67132568 C-70.09190322 38.01241157 -72.61681903 38.35834506 -75.14160156 38.70556641 C-85.757391 40.16505123 -96.37671577 41.59614116 -107 43 C-107.33 44.32 -107.66 45.64 -108 47 C-120.97156473 49.04329134 -133.94602627 50.76292291 -146.99914551 52.19198608 C-151.8245388 52.72028363 -156.64865949 53.25989866 -161.47265625 53.80078125 C-162.40483978 53.90518021 -163.33702332 54.00957916 -164.29745483 54.11714172 C-170.22731578 54.78618116 -176.14638822 55.50929287 -182.05859375 56.3215332 C-184.67051087 56.67669138 -187.28507598 56.99185163 -189.90234375 57.3046875 C-193.67523389 57.77047641 -197.34645737 58.47743637 -201.06640625 59.2578125 C-215.74109119 61.94092182 -215.74109119 61.94092182 -221.80224609 58.33105469 C-227.62290057 53.64222327 -232.68323855 48.10297898 -237 42 C-237 41.67 -237 41.34 -237 41 C-231.93805817 40.12174956 -226.87546332 39.24733822 -221.8125 38.375 C-221.02549713 38.23928589 -220.23849426 38.10357178 -219.42764282 37.96374512 C-210.73782028 36.46729754 -202.04623068 34.99007481 -193.3359375 33.6171875 C-173.03449739 30.41313351 -152.82769764 26.80660635 -132.62548828 23.02661133 C-113.83554656 19.51196189 -95.02624509 16.11371965 -76.20904541 12.74832153 C-62.72391234 10.33423663 -49.24882131 7.88323847 -35.80078125 5.26953125 C-34.13720329 4.94673439 -34.13720329 4.94673439 -32.4400177 4.61741638 C-27.24799791 3.60778641 -22.05828908 2.58784058 -16.87133789 1.55249023 C-15.05748281 1.19630725 -13.24360103 0.84026021 -11.4296875 0.484375 C-10.61095657 0.31730545 -9.79222565 0.1502359 -8.94868469 -0.02189636 C-3.33953685 -1.11317895 -3.33953685 -1.11317895 0 0 Z " fill="#E72725" transform="translate(299,190)"/>
<path d="M0 0 C11.6015625 -0.12375 11.6015625 -0.12375 23.4375 -0.25 C27.0735022 -0.30462402 27.0735022 -0.30462402 30.78295898 -0.36035156 C32.72899493 -0.37204659 34.67504074 -0.38223648 36.62109375 -0.390625 C37.6114563 -0.41108887 38.60181885 -0.43155273 39.62219238 -0.45263672 C47.56037263 -0.45657871 53.12592277 1.58946305 59.8125 5.75 C67.66790803 13.82984826 68.38225959 25.59344092 68.3125 36.3125 C68.30686035 37.22676758 68.3012207 38.14103516 68.29541016 39.08300781 C68.10148808 49.95416396 66.88768766 60.829979 59 69 C53.82637627 72.57867229 48.48919761 74.13034731 42.23144531 74.11352539 C41.2777002 74.11340454 40.32395508 74.11328369 39.34130859 74.11315918 C37.84978271 74.10548523 37.84978271 74.10548523 36.328125 74.09765625 C35.40821777 74.09664917 34.48831055 74.09564209 33.54052734 74.09460449 C30.11033885 74.08937985 26.68016815 74.07541858 23.25 74.0625 C15.5775 74.041875 7.905 74.02125 0 74 C0 49.58 0 25.16 0 0 Z " fill="#FEFDFD" transform="translate(1081,162)"/>
<path d="M0 0 C1.09731445 0.68578125 2.19462891 1.3715625 3.32519531 2.078125 C4.49037517 2.83311609 5.65541099 3.58832951 6.8203125 4.34375 C8.03602117 5.11161782 9.25317008 5.87720972 10.47167969 6.640625 C12.36372387 7.82616277 14.25481934 9.01293949 16.14147949 10.20703125 C20.64221222 13.05182592 25.19051154 15.80307571 29.78125 18.5 C30.40857025 18.86855103 31.0358905 19.23710205 31.68222046 19.61682129 C34.12125059 21.0471455 36.56210079 22.47432131 39.0043335 23.89916992 C40.67921422 24.87754317 42.35140122 25.86052351 44.0234375 26.84375 C44.97637695 27.400625 45.92931641 27.9575 46.91113281 28.53125 C47.58241211 28.964375 48.25369141 29.3975 48.9453125 29.84375 C48.9453125 30.17375 48.9453125 30.50375 48.9453125 30.84375 C29.95188309 31.07769523 10.95874733 31.2538601 -8.03582573 31.36187172 C-16.85608045 31.41336431 -25.67543829 31.48352247 -34.49511719 31.59814453 C-42.18540379 31.69804089 -49.87504071 31.76238416 -57.56595814 31.78463495 C-61.63598605 31.79763602 -65.70415599 31.82802696 -69.77358627 31.90105057 C-73.61060966 31.96934071 -77.44502509 31.98978775 -81.2825985 31.97482681 C-82.68469273 31.97756014 -84.08688135 31.99721814 -85.48844719 32.03580475 C-91.40475354 32.19058747 -96.13175458 32.24684898 -101.02664566 28.67521286 C-103.53650659 26.16987196 -105.78578134 23.56577355 -108.0546875 20.84375 C-109.48531876 19.54181004 -110.93889903 18.26385018 -112.4296875 17.03125 C-115.40166353 14.57146559 -117.66773178 11.87235053 -120.0546875 8.84375 C-118.37463623 8.67153931 -118.37463623 8.67153931 -116.66064453 8.49584961 C-111.16633225 7.93060741 -105.67288035 7.35726186 -100.1796875 6.78125 C-98.64619659 6.62059555 -98.64619659 6.62059555 -97.08172607 6.45669556 C-83.81995396 5.06086117 -70.57258253 3.57055816 -57.3359375 1.953125 C-55.37731277 1.71409203 -55.37731277 1.71409203 -53.37911987 1.4702301 C-46.94831744 0.68285973 -40.51878566 -0.11385298 -34.09033203 -0.92016602 C-31.71647866 -1.21376351 -29.34261832 -1.50730463 -26.96875 -1.80078125 C-25.35897278 -2.00667877 -25.35897278 -2.00667877 -23.7166748 -2.21673584 C-6.72829411 -4.3044719 -6.72829411 -4.3044719 0 0 Z " fill="#E72624" transform="translate(204.0546875,245.15625)"/>
<path d="M0 0 C0.33 0 0.66 0 1 0 C1.08636719 0.556875 1.17273438 1.11375 1.26171875 1.6875 C3.16968726 12.05004458 8.64742663 17.97678859 16.0859375 25.09375 C18.95505942 27.88173104 21.54627733 30.8778451 24.16113281 33.90283203 C27.24364236 37.41833349 30.46967608 40.79625098 33.6875 44.1875 C40.00986337 50.87781616 46.28318846 57.60911692 52.51171875 64.38671875 C54.13728964 66.14882053 55.77112486 67.90301199 57.40625 69.65625 C57.96538086 70.25727539 58.52451172 70.85830078 59.10058594 71.47753906 C60.18004838 72.63752978 61.26135878 73.79580425 62.34472656 74.95214844 C66 78.88765131 66 78.88765131 66 80 C44.22 80 22.44 80 0 80 C0 53.6 0 27.2 0 0 Z " fill="#FEFEFE" transform="translate(0,196)"/>
<path d="M0 0 C0.66 0 1.32 0 2 0 C3.54735668 2.26246973 4.97272909 4.52402143 6.375 6.875 C10.79308609 14.13908231 15.43725654 21.2182148 20.23974609 28.23388672 C20.73039551 28.95850098 21.22104492 29.68311523 21.7265625 30.4296875 C22.16564941 31.07147949 22.60473633 31.71327148 23.05712891 32.37451172 C24 34 24 34 24 36 C9.15 36 -5.7 36 -21 36 C-19.33995546 31.84988866 -17.47782388 28.2644489 -15.15625 24.4921875 C-14.78649048 23.884888 -14.41673096 23.2775885 -14.0357666 22.65188599 C-12.8607199 20.72406919 -11.68037588 18.79955733 -10.5 16.875 C-9.70669653 15.57442286 -8.91372442 14.27364353 -8.12109375 12.97265625 C-2.42578125 3.63867188 -2.42578125 3.63867188 0 0 Z " fill="#FEFCFC" transform="translate(1284,166)"/>
<path d="M0 0 C0.85667267 0.00359528 1.71334534 0.00719055 2.59597778 0.01089478 C3.4934523 0.01074875 4.39092682 0.01060272 5.31559753 0.01045227 C8.29702123 0.01115175 11.27838329 0.01894575 14.25979614 0.02676392 C16.32102932 0.02862797 18.38226293 0.03005193 20.4434967 0.03105164 C25.88017999 0.03487779 31.31683675 0.04470891 36.75350952 0.05575562 C42.29661704 0.06596764 47.83972882 0.07054881 53.38284302 0.07559204 C64.26762033 0.08633109 75.15237791 0.10340868 86.03713989 0.12442017 C86.03713989 5.40442017 86.03713989 10.68442017 86.03713989 16.12442017 C85.70713989 16.12442017 85.37713989 16.12442017 85.03713989 16.12442017 C85.03713989 11.17442017 85.03713989 6.22442017 85.03713989 1.12442017 C83.72451418 2.20994383 83.72451418 2.20994383 83.93948364 4.84707642 C83.95108521 5.94922485 83.96268677 7.05137329 83.97463989 8.18692017 C83.98366333 9.29164673 83.99268677 10.39637329 84.00198364 11.53457642 C84.01358521 12.38922485 84.02518677 13.24387329 84.03713989 14.12442017 C83.70713989 14.12442017 83.37713989 14.12442017 83.03713989 14.12442017 C83.03713989 10.49442017 83.03713989 6.86442017 83.03713989 3.12442017 C54.32713989 3.12442017 25.61713989 3.12442017 -3.96286011 3.12442017 C-3.96286011 6.42442017 -3.96286011 9.72442017 -3.96286011 13.12442017 C-1.48786011 14.11442017 -1.48786011 14.11442017 1.03713989 15.12442017 C1.03713989 15.45442017 1.03713989 15.78442017 1.03713989 16.12442017 C-1.29580786 16.1668374 -3.62988578 16.16534954 -5.96286011 16.12442017 C-6.96286011 15.12442017 -6.96286011 15.12442017 -7.09567261 11.99942017 C-7.09309448 10.72067017 -7.09051636 9.44192017 -7.08786011 8.12442017 C-7.09043823 6.84567017 -7.09301636 5.56692017 -7.09567261 4.24942017 C-6.86836198 -1.09906529 -4.81062596 0.00852765 0 0 Z " fill="#EC504E" transform="translate(406.9628601074219,139.87557983398438)"/>
<path d="M0 0 C0.99 0.495 0.99 0.495 2 1 C1.51202438 1.47076965 1.02404877 1.94153931 0.52128601 2.42657471 C-1.74999295 6.26869688 -1.39469602 9.78965665 -1.34057617 14.17480469 C-1.34101425 15.101978 -1.34145233 16.02915131 -1.34190369 16.98442078 C-1.33981472 20.04712019 -1.31647828 23.10927129 -1.29296875 26.171875 C-1.28737319 28.2960785 -1.2831029 30.42028587 -1.28010559 32.54449463 C-1.26865373 38.13412168 -1.23918341 43.7235147 -1.20599365 49.31304932 C-1.17530025 55.01726109 -1.1616018 60.72151069 -1.14648438 66.42578125 C-1.1143142 77.6172903 -1.06311356 88.80862568 -1 100 C-8.9801118 100.09284953 -16.95999636 100.16384 -24.94051552 100.20724869 C-28.6465735 100.22808715 -32.3522608 100.25633503 -36.05810547 100.30175781 C-39.63725786 100.34535112 -43.21605464 100.36916523 -46.79545212 100.37950897 C-48.15818247 100.38687635 -49.52089427 100.40126338 -50.88347244 100.42292023 C-64.10137918 100.6245721 -64.10137918 100.6245721 -69 96 C-70.8984375 93.859375 -70.8984375 93.859375 -72.375 91.75 C-72.87773438 91.04359375 -73.38046875 90.3371875 -73.8984375 89.609375 C-74.26195312 89.07828125 -74.62546875 88.5471875 -75 88 C-74.505 87.01 -74.505 87.01 -74 86 C-73.44570313 86.71027344 -72.89140625 87.42054688 -72.3203125 88.15234375 C-71.23363281 89.53099609 -71.23363281 89.53099609 -70.125 90.9375 C-69.40570312 91.85402344 -68.68640625 92.77054687 -67.9453125 93.71484375 C-66.20579164 96.06009485 -66.20579164 96.06009485 -64 97 C-62.06028622 97.12005547 -60.11656384 97.17733344 -58.17333984 97.20532227 C-56.95222504 97.22526749 -55.73111023 97.24521271 -54.47299194 97.26576233 C-53.13564177 97.28274656 -51.79829025 97.29962537 -50.4609375 97.31640625 C-49.09615447 97.33697603 -47.73137782 97.35797251 -46.36660767 97.37937927 C-42.77292027 97.43459759 -39.1791754 97.48400787 -35.58538818 97.53222656 C-31.91885254 97.58244337 -28.25240044 97.63812849 -24.5859375 97.69335938 C-17.39069574 97.800938 -10.19538454 97.90238357 -3 98 C-3.00999275 96.24686493 -3.00999275 96.24686493 -3.02018738 94.45831299 C-3.08096307 83.45191202 -3.12595565 72.44554504 -3.15543652 61.43901443 C-3.17110236 55.78023544 -3.19235759 50.12159175 -3.22631836 44.46289062 C-3.25887876 39.00345273 -3.27684609 33.5441451 -3.28463173 28.08461761 C-3.29018119 26.00016987 -3.30101773 23.91572937 -3.31719017 21.83133698 C-3.33892014 18.91506967 -3.34196876 15.99934286 -3.34057617 13.08300781 C-3.351362 12.21841949 -3.36214783 11.35383118 -3.3732605 10.46304321 C-3.34279011 4.578575 -3.34279011 4.578575 -1.47871399 1.43231201 C-0.99073837 0.95964905 -0.50276276 0.48698608 0 0 Z " fill="#E61716" transform="translate(984,158)"/>
<path d="M0 0 C3.63 0 7.26 0 11 0 C11 0.33 11 0.66 11 1 C8.03 1 5.06 1 2 1 C2 4.96 2 8.92 2 13 C30.71 13 59.42 13 89 13 C89 9.04 89 5.08 89 1 C86.03 1 83.06 1 80 1 C80 0.67 80 0.34 80 0 C83.3 0 86.6 0 90 0 C90 4.95 90 9.9 90 15 C60.3 15 30.6 15 0 15 C0 10.05 0 5.1 0 0 Z " fill="#E71D1B" transform="translate(519,243)"/>
<path d="M0 0 C1.32 0.33 2.64 0.66 4 1 C3.01 1 2.02 1 1 1 C1 4.96 1 8.92 1 13 C31.03 13 61.06 13 92 13 C92 9.04 92 5.08 92 1 C90.35 1 88.7 1 87 1 C87 0.67 87 0.34 87 0 C89.31 0 91.62 0 94 0 C94 4.95 94 9.9 94 15 C62.98 15 31.96 15 0 15 C0 10.05 0 5.1 0 0 Z " fill="#E71D1B" transform="translate(1309,243)"/>
<path d="M0 0 C2.97 0 5.94 0 9 0 C9 0.33 9 0.66 9 1 C6.69 1 4.38 1 2 1 C2 4.96 2 8.92 2 13 C24.77 13 47.54 13 71 13 C71 9.04 71 5.08 71 1 C71.33 1 71.66 1 72 1 C72 5.62 72 10.24 72 15 C48.24 15 24.48 15 0 15 C0 10.05 0 5.1 0 0 Z " fill="#E71D1B" transform="translate(805,243)"/>
<path d="M0 0 C28.71 0 57.42 0 87 0 C87 3.96 87 7.92 87 12 C87.495 12.99 87.495 12.99 88 14 C85.36 14 82.72 14 80 14 C80.33 13.01 80.66 12.02 81 11 C82.65 11 84.3 11 86 11 C86 7.7 86 4.4 86 1 C57.95 1 29.9 1 1 1 C1 4.3 1 7.6 1 11 C2.98 11.495 2.98 11.495 5 12 C3.35 12 1.7 12 0 12 C0 8.04 0 4.08 0 0 Z " fill="#E73431" transform="translate(521,142)"/>
<path d="M0 0 C0.33 0 0.66 0 1 0 C1.33 4.29 1.66 8.58 2 13 C32.03 13.33 62.06 13.66 93 14 C93 14.33 93 14.66 93 15 C62.31 15 31.62 15 0 15 C0 10.05 0 5.1 0 0 Z " fill="#EA3A39" transform="translate(400,243)"/>
<path d="M0 0 C0.66 0 1.32 0 2 0 C4.15032476 2.78188574 5.87272491 5.866354 7.6875 8.875 C8.21150391 9.71675781 8.73550781 10.55851563 9.27539062 11.42578125 C9.76587891 12.23144531 10.25636719 13.03710938 10.76171875 13.8671875 C11.21506592 14.61081543 11.66841309 15.35444336 12.13549805 16.12060547 C12.42078369 16.74080566 12.70606934 17.36100586 13 18 C12.67 18.66 12.34 19.32 12 20 C11.37351562 18.989375 10.74703125 17.97875 10.1015625 16.9375 C9.27641496 15.62476528 8.45087377 14.31227795 7.625 13 C7.00625 11.99839844 7.00625 11.99839844 6.375 10.9765625 C5.30339045 9.28272806 4.15669501 7.63691136 3 6 C2.34 6 1.68 6 1 6 C0.67 4.02 0.34 2.04 0 0 Z " fill="#E51615" transform="translate(1334,163)"/>
<path d="M0 0 C3.63 0 7.26 0 11 0 C11 0.33 11 0.66 11 1 C8.69 1 6.38 1 4 1 C5.09966775 2.29549899 6.20491801 3.58626071 7.3125 4.875 C8.23482422 5.95394531 8.23482422 5.95394531 9.17578125 7.0546875 C11.0412324 9.19179331 11.0412324 9.19179331 14 11 C13.67 11.66 13.34 12.32 13 13 C11.39179588 11.58791833 9.78859292 10.17013964 8.1875 8.75 C7.29417969 7.96109375 6.40085937 7.1721875 5.48046875 6.359375 C3 4 3 4 0 0 Z " fill="#E51A17" transform="translate(84,254)"/>
<path d="M0 0 C3.32054417 3.1877224 6.31454033 6.61442208 9.31640625 10.09765625 C10.82248517 11.7994206 12.37400467 13.41354255 14 15 C7.21337251 12.86705993 3.5625742 7.93762367 0 2 C0 1.34 0 0.68 0 0 Z " fill="#E51917" transform="translate(671,222)"/>
<path d="M0 0 C0.33 0.99 0.66 1.98 1 3 C-6.625 4.25 -6.625 4.25 -10 2 C-8.7090864 1.66376204 -7.41723903 1.33110751 -6.125 1 C-5.40570313 0.814375 -4.68640625 0.62875 -3.9453125 0.4375 C-2 0 -2 0 0 0 Z " fill="#E82F2E" transform="translate(184,175)"/>
<path d="M0 0 C0.66 0 1.32 0 2 0 C-0.89066059 9.59453303 -0.89066059 9.59453303 -4 13 C-3.27991594 8.39146203 -1.68704061 4.32762591 0 0 Z " fill="#E51613" transform="translate(368,74)"/>
<path d="M0 0 C0.99 0.495 0.99 0.495 2 1 C2 1.66 2 2.32 2 3 C2.99 3 3.98 3 5 3 C4.67 5.31 4.34 7.62 4 10 C2.26337666 6.77484237 1.1094072 3.48670834 0 0 Z " fill="#E41514" transform="translate(1325,227)"/>
<path d="M0 0 C2.97 0.33 5.94 0.66 9 1 C4.78370866 3.10814567 2.60209225 3.17700355 -2 3 C-1.34 2.67 -0.68 2.34 0 2 C0 1.34 0 0.68 0 0 Z " fill="#E61312" transform="translate(108,215)"/>
</svg>
