<?xml version="1.0" encoding="UTF-8"?>
<svg version="1.1" xmlns="http://www.w3.org/2000/svg" width="2211" height="436">
<path d="M0 0 C0.96490356 0.00027191 1.92980713 0.00054382 2.9239502 0.00082397 C14.01050602 0.01518837 25.07102022 0.06608696 36.125 1 C36.98432129 1.07001221 37.84364258 1.14002441 38.72900391 1.2121582 C45.45109823 1.90367211 52.45238515 3.24402997 57.0625 8.5625 C70.29846671 25.11499595 69.41681955 49.92327501 69.70602417 70.02770996 C69.86890484 98.44651142 69.86890484 98.44651142 75.375 126.1875 C80.53416922 121.5828672 84.04037309 116.00525041 87.8125 110.25 C88.51552246 109.18604004 89.21854492 108.12208008 89.94287109 107.02587891 C97.99989333 94.79261838 105.83905344 82.4211721 113.62109375 70.01171875 C120.5748327 58.95819486 127.74945131 48.06790042 135.0625 37.25 C135.49426544 36.60958771 135.92603088 35.96917542 136.37088013 35.30935669 C141.23907413 28.09672373 146.20270705 20.96342218 151.33203125 13.93359375 C151.79163742 13.30147476 152.25124359 12.66935577 152.72477722 12.01808167 C157.70205489 5.25098454 160.19696273 3.50462077 168.375 2.1875 C184.50384606 -0.06228708 200.8740583 -0.0217362 217.125 -0.0625 C218.53066223 -0.07026459 218.53066223 -0.07026459 219.96472168 -0.07818604 C230.41254504 -0.12363519 240.78846163 0.14492661 251.203125 1.015625 C252.53497833 1.11928375 252.53497833 1.11928375 253.89373779 1.22503662 C260.44200284 1.83804784 267.26292125 2.86817109 272.64453125 6.87890625 C282.64934148 19.01132169 283.362517 33.06449636 282.22119141 48.23144531 C280.87676845 61.74078014 276.99075489 74.8332098 273.42407227 87.88623047 C273.22473083 88.61654984 273.0253894 89.3468692 272.82000732 90.09931946 C272.43961612 91.4877713 272.05654676 92.8754929 271.67047119 94.26237488 C270.70005397 97.67453248 270.70005397 97.67453248 270.375 101.1875 C272.35507423 100.06409814 274.33397779 98.938633 276.3125 97.8125 C276.94075684 97.45671875 277.56901367 97.1009375 278.21630859 96.734375 C281.64443442 94.78361417 285.03699981 92.79379127 288.38671875 90.7109375 C304.23951118 80.92453603 321.22644369 74.34587258 339.375 70.1875 C340.06722656 70.02378906 340.75945312 69.86007813 341.47265625 69.69140625 C362.6799214 64.89499675 388.28182973 64.87133514 409.375 70.1875 C410.03628906 70.35378906 410.69757812 70.52007812 411.37890625 70.69140625 C431.42326757 75.90525746 448.06966145 85.1780188 462.4140625 100.21875 C464.22377246 102.24443339 464.22377246 102.24443339 466.375 103.1875 C466.92027344 101.59421875 466.92027344 101.59421875 467.4765625 99.96875 C471.49416846 88.54275429 475.58218327 79.63764491 486.375 73.1875 C492.06956479 70.79578279 497.96816388 70.8358719 504.0703125 70.62890625 C507.73701762 70.1391454 509.54368005 69.56167975 512.375 67.1875 C514.05138638 64.14254885 514.05138638 64.14254885 515.25 60.4375 C515.4970166 59.74575684 515.7440332 59.05401367 515.99853516 58.34130859 C517.79692474 53.19519941 519.34449371 47.98061703 520.8840332 42.75244141 C523.36883301 34.31659158 525.99143307 26.10952718 529.5625 18.0625 C529.88331543 17.33498535 530.20413086 16.6074707 530.53466797 15.85791016 C534.91260979 6.35391152 534.91260979 6.35391152 539.33300781 4.26000977 C544.39970477 2.44602738 549.47058536 1.5115038 554.8125 1 C555.61179932 0.92104492 556.41109863 0.84208984 557.23461914 0.76074219 C572.25389451 -0.55356887 587.49321897 -0.39386271 602.5 1 C603.28624756 1.06993164 604.07249512 1.13986328 604.88256836 1.21191406 C611.27648525 1.90839801 617.23408062 3.19594708 622.0625 7.6875 C631.80690384 20.97532341 633.55499323 37.22726159 633.4375 53.125 C633.43298828 54.28580078 633.42847656 55.44660156 633.42382812 56.64257812 C633.41210647 59.49093934 633.3956976 62.33919222 633.375 65.1875 C638.70107979 67.87959863 638.70107979 67.87959863 644.09765625 70.42578125 C655.16071443 75.50481464 659.90945399 82.62169173 664.125 93.6875 C664.5375 94.8425 664.95 95.9975 665.375 97.1875 C670.49335295 95.66031869 675.02400564 93.45429133 679.74609375 91.01171875 C681.38979032 90.17476945 683.03367692 89.33819329 684.67773438 88.50195312 C687.23332774 87.196508 689.7872268 85.88803612 692.33764648 84.57250977 C715.75701629 72.51462813 736.02850414 68.83210236 762.27172852 68.92675781 C765.80177021 68.93746745 769.33130195 68.92681779 772.86132812 68.9140625 C805.45284184 68.89184811 827.80765906 76.20736821 851.5 99 C856.48931645 104.07928773 860.81106445 109.63061319 865.125 115.28125 C867.81875076 118.76067807 869.10180388 120.33286078 873.375 121.1875 C875.03319731 116.24895583 876.66147032 111.30375057 878.2421875 106.33984375 C878.91131198 104.26818189 879.58058501 102.19656801 880.25 100.125 C880.57613281 99.08794922 880.90226562 98.05089844 881.23828125 96.98242188 C883.60960275 89.70698606 886.16238376 83.08669027 891.9375 77.875 C914.01681535 67.03606337 944.48358256 71.03495989 968.46284056 71.0531745 C972.91749853 71.05574395 977.37215467 71.05334759 981.82681274 71.05178833 C989.31244278 71.04997793 996.79806289 71.05234114 1004.28369141 71.05712891 C1012.85576885 71.06254935 1021.42782242 71.06082045 1029.99989927 71.0553025 C1037.43252333 71.0507149 1044.86514035 71.0501486 1052.29776537 71.05274117 C1056.70432653 71.05427589 1061.1108766 71.05457752 1065.51743698 71.05120468 C1155.64197161 70.99179774 1155.64197161 70.99179774 1178.375 93.1875 C1179.2825 94.05375 1180.19 94.92 1181.125 95.8125 C1187.73606524 102.79084665 1193.38041693 109.24166926 1194.375 119.1875 C1204.23760165 117.82653167 1213.00985174 108.99491177 1220.8125 103.1875 C1228.12377431 97.7583572 1235.42838062 92.66062882 1243.375 88.1875 C1244.94314453 87.28451172 1244.94314453 87.28451172 1246.54296875 86.36328125 C1275.51963682 70.70297177 1310.17282422 71.14901095 1342.2578125 70.87109375 C1344.29475257 70.85045791 1346.331689 70.82946007 1348.36862183 70.80812073 C1353.66527308 70.75358303 1358.96195843 70.70387999 1364.25866699 70.65527344 C1369.6894017 70.6045514 1375.12008841 70.54913322 1380.55078125 70.49414062 C1391.15881293 70.38739785 1401.76688673 70.28577573 1412.375 70.1875 C1412.70185791 69.10557373 1413.02871582 68.02364746 1413.36547852 66.90893555 C1414.61039199 62.79373689 1415.86290807 58.68088166 1417.11743164 54.56860352 C1417.65360317 52.80748995 1418.18786346 51.04579308 1418.7199707 49.28344727 C1421.61692487 39.69362452 1424.6396938 30.17653184 1428.08984375 20.76953125 C1428.37356339 19.99365158 1428.65728302 19.21777191 1428.94960022 18.41838074 C1433.72282038 5.63601559 1433.72282038 5.63601559 1438.375 3.1875 C1451.12159069 -1.04256328 1465.90250716 0.0009892 1479.17919922 0.00219727 C1481.87092751 0.00000332 1484.56224951 -0.01825063 1487.25390625 -0.03710938 C1515.40909036 -0.13137878 1515.40909036 -0.13137878 1522.50390625 6.09375 C1530.42123612 14.9532256 1537.79804559 25.11222329 1537.59155273 37.33325195 C1537.18726705 42.66189223 1535.89926164 47.75936728 1534.625 52.9375 C1534.30773623 54.25253475 1533.99077227 55.56764186 1533.67407227 56.8828125 C1532.78500728 60.54840155 1531.87482766 64.20843651 1530.95709229 67.86694336 C1530.57041393 69.40846702 1530.18494756 70.95029523 1529.80072021 72.49243164 C1473.14403358 299.88166961 1473.14403358 299.88166961 1451.25 314.125 C1417.09544719 334.35711462 1335.6501301 317.47923853 1296.98689651 315.90524673 C1294.73693638 315.81449403 1292.48688418 315.72650484 1290.23678589 315.63925171 C1275.03694784 315.04459006 1259.84475654 314.30076866 1244.68163109 313.06928635 C1243.28611262 312.95780418 1241.8900881 312.85243853 1240.49358559 312.75404739 C1228.12208258 311.86571183 1217.36631899 308.34200935 1206.625 302.1875 C1205.96943115 301.8164917 1205.3138623 301.4454834 1204.63842773 301.06323242 C1197.79159112 297.05716492 1191.60919199 292.22954775 1185.41015625 287.30078125 C1181.23369851 284.00401663 1176.83983243 281.0767375 1172.375 278.1875 C1172.07843506 278.776521 1171.78187012 279.36554199 1171.47631836 279.97241211 C1170.09830816 282.69509571 1168.70552382 285.40996925 1167.3125 288.125 C1166.84650391 289.05119141 1166.38050781 289.97738281 1165.90039062 290.93164062 C1160.73364298 300.94880443 1153.8166172 312.26400753 1142.875 316.5625 C1115.4605244 321.45794207 1088.17642981 316.79628986 1063.04394531 305.33496094 C1060.29920919 304.12875997 1057.95614135 303.1875 1054.93359375 303.1875 C1050.12060348 305.06860765 1045.76458495 307.80413393 1041.3203125 310.41796875 C1020.00866256 322.66313711 991.86421494 319.02908696 968.796875 313.46875 C962.63116376 311.80263781 956.82333338 309.29407417 951.01171875 306.67578125 C945.27223371 304.32551783 945.27223371 304.32551783 939.2421875 304.75390625 C938.58476563 305.08261719 937.92734375 305.41132813 937.25 305.75 C936.48042969 306.12125 935.71085937 306.4925 934.91796875 306.875 C933.1231198 307.80137365 931.33460707 308.74007384 929.55078125 309.6875 C907.41167494 321.2635033 880.97515255 320.46055441 857.46508789 313.27758789 C847.37167102 310.00578362 839.3135932 305.7475645 831.62890625 298.3359375 C830.88511719 297.62695312 830.14132812 296.91796875 829.375 296.1875 C828.64152344 295.39601563 827.90804687 294.60453125 827.15234375 293.7890625 C823.45262977 291.65561281 821.79404149 292.44928192 817.79530334 293.44207764 C814.00074536 294.61075279 810.58548004 296.30265281 807.078125 298.14453125 C806.32263367 298.5293718 805.56714233 298.91421234 804.78875732 299.31071472 C802.39577599 300.5308859 800.00993416 301.76418369 797.625 303 C777.72798875 313.26857025 760.27756505 320.32525509 737.58984375 320.35546875 C736.68988174 320.35879715 735.78991974 320.36212555 734.86268616 320.36555481 C732.96941635 320.3705818 731.07613781 320.37296446 729.18286133 320.37280273 C726.34375712 320.37497607 723.50505072 320.39314142 720.66601562 320.41210938 C687.68664981 320.51584691 655.67742193 311.26531018 629.66015625 289.96484375 C627.45660866 288.2509734 626.0988915 287.59103948 623.375 287.1875 C619.54990149 291.34976525 616.04154448 295.56121645 612.875 300.25 C606.73513704 309.13233509 600.88709017 314.6093298 590.12109375 316.87109375 C558.92044391 321.58860598 521.73931139 320.14665593 494.69140625 302.4296875 C492.47303939 300.77648516 490.41816295 299.05213415 488.375 297.1875 C487.61832031 296.49914062 486.86164062 295.81078125 486.08203125 295.1015625 C478.11977971 287.49941278 472.59835218 278.70572171 467 269.3125 C466.55857666 268.57451172 466.11715332 267.83652344 465.66235352 267.07617188 C465.25041748 266.37298828 464.83848145 265.66980469 464.4140625 264.9453125 C464.04490723 264.3177002 463.67575195 263.69008789 463.29541016 263.04345703 C462.33599503 261.10884861 461.8198326 259.29506208 461.375 257.1875 C456.12623514 261.59675073 451.28116229 266.26830243 446.52685547 271.20361328 C419.53000282 299.0991129 387.68342085 317.67973412 348.23728943 318.33201599 C344.61642654 318.37221845 340.99605933 318.38032161 337.375 318.375 C336.6104248 318.37439575 335.84584961 318.3737915 335.05810547 318.37316895 C297.46684702 318.29287922 265.1918237 313.25465044 237.375 286.1875 C235.93322042 284.73339752 234.49519187 283.2755572 233.0625 281.8125 C229.75881695 278.4464833 226.29667974 275.80195316 222.375 273.1875 C219.84959759 275.44680902 218.56867517 277.56091357 217.2109375 280.65234375 C216.81567871 281.52955078 216.42041992 282.40675781 216.01318359 283.31054688 C215.59633301 284.23931641 215.17948242 285.16808594 214.75 286.125 C203.92368088 309.45545928 203.92368088 309.45545928 192.375 314.1875 C168.78386306 322.31641082 139.2838161 319.38710332 116.375 310.1875 C112.08754325 308.01919385 108.02866037 305.71132753 104.484375 302.4453125 C102.38337207 300.95127625 102.38337207 300.95127625 99.57421875 301.16796875 C95.37448686 302.50634485 92.59072342 304.76525903 89.1875 307.5 C70.377034 321.90280924 44.20427497 320.01348207 21.60400391 317.16723633 C19.52157871 316.87026481 17.44882848 316.53934519 15.375 316.1875 C14.66730469 316.06922852 13.95960938 315.95095703 13.23046875 315.82910156 C-2.56007562 313.03374844 -17.44096664 306.9902848 -27.625 294.1875 C-29.59215805 296.15465805 -30.35116213 297.51718098 -31.5 300 C-34.83724011 306.74755846 -38.7981354 310.96832808 -45.625 314.1875 C-70.63468291 322.42198063 -104.35478334 320.34890765 -128.0625 308.9375 C-135.60784132 304.95547389 -141.79843254 300.4554884 -144.625 292.1875 C-145.63860984 283.35986487 -143.80701244 275.17630402 -141.5625 266.6875 C-141.20716445 265.31108479 -140.85202977 263.93461771 -140.49707031 262.55810547 C-121.56032418 189.91019169 -98.49702111 117.95195685 -74.9375 46.6875 C-74.66867004 45.86870361 -74.39984009 45.04990723 -74.12286377 44.20629883 C-71.13643774 35.13061216 -67.92584173 26.16954319 -64.41796875 17.28125 C-64.08597977 16.43212036 -63.75399078 15.58299072 -63.41194153 14.70812988 C-60.22546107 6.77276111 -60.22546107 6.77276111 -57.625 4.1875 C-54.67771867 3.41331555 -51.99939254 2.89174758 -49 2.5 C-47.87464844 2.32500977 -47.87464844 2.32500977 -46.7265625 2.14648438 C-31.27914125 -0.08733389 -15.57194505 -0.01652045 0 0 Z M-41.625 20.1875 C-42.43461182 20.34395996 -43.24422363 20.50041992 -44.07836914 20.66162109 C-48.13715052 23.0935436 -48.7206573 26.82865014 -50.078125 31.19921875 C-50.37479065 32.10048996 -50.6714563 33.00176117 -50.97711182 33.93034363 C-51.87721019 36.67742158 -52.7516884 39.43181045 -53.625 42.1875 C-54.11305347 43.67861273 -54.60313479 45.169064 -55.09570312 46.65869141 C-56.55582789 51.09526487 -57.96970314 55.54579751 -59.375 60 C-59.77551071 61.26629242 -59.77551071 61.26629242 -60.18411255 62.5581665 C-80.03873167 125.41954048 -98.70281737 188.741356 -116.375 252.25 C-116.68796021 253.37165558 -117.00092041 254.49331116 -117.32336426 255.6489563 C-118.19423433 258.77641265 -119.05938953 261.90537845 -119.921875 265.03515625 C-120.16973755 265.92638184 -120.4176001 266.81760742 -120.67297363 267.73583984 C-122.25179594 273.50983437 -123.52429174 279.30392894 -124.625 285.1875 C-110.71912552 289.35926234 -95.62130085 288.31637147 -81.25 288.25 C-79.33854285 288.24497156 -77.42708441 288.24041104 -75.515625 288.23632812 C-70.88538413 288.22543688 -66.25520677 288.20824751 -61.625 288.1875 C-55.58017704 267.66805229 -49.8302798 247.07415778 -44.31640625 226.40625 C-44.08210907 225.52874966 -43.84781189 224.65124931 -43.60641479 223.74715805 C-41.45460217 215.68707561 -39.30443427 207.62656812 -37.17474365 199.56060791 C-32.25251586 180.91859923 -27.1992841 162.34016257 -21.56640625 143.8984375 C-21.33023024 143.12272022 -21.09405422 142.34700294 -20.85072136 141.54777908 C-20.18613125 139.37191587 -19.51561944 137.19799795 -18.84204102 135.02490234 C-18.27091331 133.18187027 -18.27091331 133.18187027 -17.68824768 131.30160522 C-15.38985342 124.56992671 -15.38985342 124.56992671 -12.625 123.1875 C-11.81267855 130.99702664 -11.41387811 138.757967 -11.23046875 146.60546875 C-11.16367346 149.12452302 -11.0964301 151.64356543 -11.02880859 154.16259766 C-10.99350128 155.5105171 -10.95824416 156.85843786 -10.92303467 158.20635986 C-10.13152261 188.25804994 -8.89316158 218.28312483 -7.5 248.3125 C-7.45381405 249.30902462 -7.4076281 250.30554924 -7.36004257 251.33227158 C-6.79011727 263.6177489 -6.21193209 275.90282371 -5.625 288.1875 C2.98947226 288.41969886 11.60262791 288.59712109 20.21946049 288.70562172 C24.22124673 288.75771191 28.2208855 288.82828906 32.22143555 288.94189453 C36.08605783 289.05094704 39.94862228 289.11041764 43.81466484 289.13627243 C45.28569381 289.15468277 46.75661588 289.19064084 48.22676277 289.24480057 C56.59986119 289.72272267 56.59986119 289.72272267 63.77812195 286.05168152 C65.58538503 283.50138364 66.99693143 280.98848661 68.375 278.1875 C69.32046595 276.68850692 70.28007539 275.1982112 71.26171875 273.72265625 C72.19783702 272.23335467 73.13136192 270.74242035 74.0625 269.25 C75.11189337 267.57807115 76.16137497 265.90619766 77.2109375 264.234375 C77.7378418 263.39326172 78.26474609 262.55214844 78.80761719 261.68554688 C80.77446068 258.55085176 82.75350063 255.42397775 84.7331543 252.29736328 C89.76921641 244.34212668 94.76675087 236.36340976 99.75 228.375 C105.15252764 219.71568313 110.60590078 211.09076689 116.09838867 202.48828125 C120.46286522 195.64377895 124.76990306 188.76476195 129.0625 181.875 C140.79877318 163.06391137 153.04684283 144.61354294 165.375 126.1875 C164.83509262 132.8169636 163.53013951 138.62819306 161.4453125 144.9296875 C161.14326904 145.86616119 160.84122559 146.80263489 160.5300293 147.76748657 C159.52787046 150.8684294 158.51377864 153.96533862 157.5 157.0625 C156.78669854 159.26468293 156.07431648 161.46716385 155.36279297 163.66992188 C153.44464017 169.60233685 151.51702492 175.53163454 149.58740234 181.46032715 C145.87765026 192.86486402 142.18547012 204.27509631 138.5 215.6875 C138.09591919 216.93846466 137.69183838 218.18942932 137.2755127 219.478302 C132.44767123 234.44064771 127.68024581 249.41453262 123.25 264.5 C122.9459726 265.53133057 122.9459726 265.53133057 122.63580322 266.58349609 C120.91751738 272.43539243 119.29139215 278.15019185 118.375 284.1875 C131.20201828 289.86098886 145.87538455 288.31291915 159.625 288.25 C161.54557175 288.24497402 163.46614477 288.24041306 165.38671875 288.23632812 C170.04951118 288.22541167 174.71224119 288.2082078 179.375 288.1875 C182.4021061 280.54424122 184.73048863 272.69434133 187.109375 264.83203125 C187.57937144 263.28528225 188.04956086 261.73859188 188.51992798 260.19195557 C189.79209123 256.00591627 191.06065284 251.81879388 192.32823944 247.63136673 C193.13085194 244.9806735 193.9343441 242.33024842 194.73809814 239.67990112 C206.12918612 202.11473421 217.39523632 164.51265766 228.57390594 126.8837738 C229.40828088 124.07548523 230.24296276 121.26728802 231.07769775 118.45910645 C234.66254121 106.39812496 238.24205827 94.33557707 241.81549072 82.27120972 C242.96840897 78.37898607 244.12271582 74.48717868 245.27825928 70.59573364 C246.6372758 66.01845001 247.99281023 61.44014861 249.3458004 56.86108017 C249.84165384 55.18481331 250.33862386 53.50887623 250.83686256 51.8333168 C253.95470554 41.34439657 256.81239665 30.82619007 259.375 20.1875 C244.40875999 18.08350509 229.56967703 17.35132257 214.46792889 17.09061813 C210.33738918 17.01873452 206.21452975 16.91098201 202.08764648 16.71972656 C184.77599677 15.15056729 184.77599677 15.15056729 168.84225464 19.90197754 C164.99993885 24.03807522 162.97541827 28.62853793 161.21871948 33.93612671 C159.88903246 37.4842513 157.77807863 40.39088709 155.5625 43.4375 C155.11342285 44.10442871 154.6643457 44.77135742 154.20166016 45.45849609 C153.83862793 45.99555176 153.4755957 46.53260742 153.1015625 47.0859375 C149.16418554 52.96406785 145.40587384 58.95768276 141.61791992 64.93261719 C138.06457849 70.53590773 134.48971425 76.12361597 130.875 81.6875 C127.41435952 87.01497326 123.98922728 92.36329398 120.59008789 97.73022461 C112.47982243 110.53232193 104.18485592 123.20844092 95.86355591 135.87374878 C87.34336696 148.84401457 78.87300844 161.84720982 70.453125 174.8828125 C67.94746406 178.76133557 65.43436387 182.63487688 62.9140625 186.50390625 C62.3257666 187.40729736 61.7374707 188.31068848 61.13134766 189.24145508 C59.98854582 190.99568925 58.84502886 192.74945782 57.70068359 194.50268555 C55.61311606 197.7077842 53.54526407 200.89409852 51.625 204.203125 C50.375 206.1875 50.375 206.1875 48.375 207.1875 C48.38187332 206.54942413 48.38874664 205.91134827 48.39582825 205.25393677 C48.58865044 184.07231958 47.95278056 162.95000298 47.16362762 141.78567505 C47.06129679 139.03009979 46.96085396 136.2744613 46.86090088 133.51879883 C45.99004231 109.56648094 45.00256469 85.62307065 43.75 61.6875 C43.65674942 59.90300446 43.65674942 59.90300446 43.56161499 58.0824585 C43.38569573 54.75268947 43.2058918 51.42316686 43.0234375 48.09375 C42.97249435 47.15375153 42.92155121 46.21375305 42.86906433 45.24526978 C42.71728835 42.55836045 42.54943099 39.87302918 42.375 37.1875 C42.27967987 35.60231567 42.27967987 35.60231567 42.18243408 33.98510742 C42.10885681 32.91945557 42.03527954 31.85380371 41.95947266 30.75585938 C41.89571442 29.78692749 41.83195618 28.81799561 41.76626587 27.81970215 C41.3680729 25.14089866 40.90689952 23.41690706 39.375 21.1875 C15.93206538 13.37318846 -17.71044355 14.90766286 -41.625 20.1875 Z M549.55908203 23.93457031 C542.25686196 34.81035616 539.51764854 49.15786992 536.22265625 61.69189453 C535.48924293 64.47836958 534.74156445 67.26074886 533.9921875 70.04296875 C533.51740124 71.82530049 533.04341214 73.60784482 532.5703125 75.390625 C532.34852325 76.21661194 532.12673401 77.04259888 531.89822388 77.89361572 C531.69736176 78.66252136 531.49649963 79.431427 531.28955078 80.22363281 C531.0235759 81.23046112 531.0235759 81.23046112 530.75222778 82.25762939 C530.24710838 84.51405231 530.24710838 84.51405231 530.375 88.1875 C529.06680298 88.25481323 529.06680298 88.25481323 527.73217773 88.32348633 C524.46809566 88.49767772 521.20510361 88.68357078 517.94213867 88.87719727 C516.53517164 88.95832812 515.12793415 89.03491134 513.72045898 89.10668945 C511.6864392 89.2112385 509.65398376 89.33261382 507.62109375 89.45703125 C506.40091553 89.52510986 505.1807373 89.59318848 503.92358398 89.66333008 C499.14243505 90.36956515 494.86547487 91.3398167 491.73388672 95.22192383 C488.72448856 101.95926797 486.45796347 108.76248486 484.5 115.875 C484.1803125 116.96361328 483.860625 118.05222656 483.53125 119.17382812 C481.27661405 127.15381317 481.27661405 127.15381317 482.375 135.1875 C486.79343729 138.13312486 490.67321933 138.31432559 495.89453125 138.28515625 C497.4269043 138.28032227 497.4269043 138.28032227 498.99023438 138.27539062 C500.57288086 138.26282227 500.57288086 138.26282227 502.1875 138.25 C503.79915039 138.24323242 503.79915039 138.24323242 505.44335938 138.23632812 C508.08729683 138.22457729 510.73111952 138.20814787 513.375 138.1875 C513.19231567 138.770121 513.00963135 139.352742 512.82141113 139.95301819 C486.70326759 205.72858895 486.70326759 205.72858895 490.0625 272.4375 C499.31886114 283.44506459 512.48486435 286.04780184 526.20239258 287.48339844 C537.8765047 288.43866289 549.54552784 288.29784336 561.25 288.25 C563.40234271 288.24497343 565.55468655 288.24041258 567.70703125 288.23632812 C572.92971278 288.2254177 578.15235092 288.20877185 583.375 288.1875 C584.76545293 284.32908887 586.15286927 280.46960027 587.53759766 276.60913086 C588.00813778 275.29861694 588.47947679 273.98838955 588.95166016 272.6784668 C589.63398755 270.78511647 590.31311299 268.8906132 590.9921875 266.99609375 C591.40065918 265.85970459 591.80913086 264.72331543 592.22998047 263.55249023 C594.39675197 257.1847692 595.94326197 251.89299127 595.375 245.1875 C592.15136834 243.03841223 591.16708129 242.92316106 587.4375 242.84375 C586.45910156 242.81410156 585.48070312 242.78445313 584.47265625 242.75390625 C583.45042969 242.73199219 582.42820312 242.71007812 581.375 242.6875 C561.00274098 242.23713797 561.00274098 242.23713797 555.25 237.75 C551.34239619 232.40960812 551.7579367 226.53322361 552.375 220.1875 C552.92310737 216.78510451 553.63767712 213.427583 554.37890625 210.0625 C554.59620895 209.07090881 554.81351166 208.07931763 555.03739929 207.05767822 C558.01914402 193.86406346 561.88740859 180.91333957 565.6875 167.9375 C566.79902822 164.129547 567.90668912 160.32050033 569.01054382 156.51031494 C569.69066758 154.16413591 570.37491557 151.81914748 571.063797 149.4755249 C571.36799057 148.42882629 571.67218414 147.38212769 571.9855957 146.30371094 C572.38933159 144.92551178 572.38933159 144.92551178 572.80122375 143.51947021 C573.494461 141.10223416 573.494461 141.10223416 573.375 138.1875 C591.855 138.1875 610.335 138.1875 629.375 138.1875 C631.68793134 132.14266369 631.68793134 132.14266369 633.64941406 126.03808594 C633.95422699 124.97723785 633.95422699 124.97723785 634.26519775 123.8949585 C634.47158875 123.16134094 634.67797974 122.42772339 634.890625 121.671875 C635.11071228 120.89362366 635.33079956 120.11537231 635.55755615 119.3135376 C636.01656682 117.68385944 636.47359708 116.05362226 636.92871094 114.42285156 C637.62779493 111.92752369 638.34109478 109.43652438 639.0546875 106.9453125 C639.50087884 105.35441289 639.94622171 103.76327501 640.390625 102.171875 C640.60511292 101.43016052 640.81960083 100.68844604 641.04058838 99.92425537 C642.41328663 95.02974747 642.41328663 95.02974747 641.375 90.1875 C635.80804991 89.0097192 630.38585437 89.05989252 624.7265625 89.08984375 C623.20776993 89.09196617 623.20776993 89.09196617 621.65829468 89.09413147 C618.43883249 89.09970857 615.21944101 89.11225688 612 89.125 C609.81119892 89.13001796 607.62239675 89.13458035 605.43359375 89.13867188 C600.08070523 89.1496705 594.72785767 89.1663858 589.375 89.1875 C589.54373123 88.60249222 589.71246246 88.01748444 589.88630676 87.41474915 C591.65887521 81.26653061 593.42659902 75.1169334 595.19165039 68.96655273 C595.84896426 66.678443 596.50746851 64.39067484 597.16723633 62.10327148 C604.1509724 41.50908857 604.1509724 41.50908857 606.375 20.1875 C597.58425747 18.08633333 589.01346196 17.84637478 580.03100586 17.87182617 C577.68101506 17.87500878 575.33226006 17.85136531 572.98242188 17.82617188 C571.46354323 17.82390016 569.94466125 17.82319479 568.42578125 17.82421875 C567.73599686 17.815009 567.04621246 17.80579926 566.33552551 17.79631042 C559.53573437 17.86003802 554.44116654 19.17185011 549.55908203 23.93457031 Z M1451.375 20.1875 C1448.89262966 22.98344453 1447.70755775 25.63011168 1446.60766602 29.17797852 C1446.13303673 30.6891198 1446.13303673 30.6891198 1445.64881897 32.23078918 C1445.31224777 33.33154282 1444.97567657 34.43229645 1444.62890625 35.56640625 C1444.26611069 36.73133102 1443.90331512 37.8962558 1443.52952576 39.09648132 C1442.53311259 42.30406378 1441.54430552 45.51379297 1440.55944824 48.72492981 C1439.93375472 50.76219466 1439.30515295 52.79853889 1438.67553711 54.83459473 C1428.66370274 87.21181203 1418.96502384 119.68317354 1409.375 152.1875 C1409.16957329 152.88365921 1408.96414658 153.57981842 1408.75249481 154.29707336 C1399.65346291 185.13700189 1390.65819149 216.0059968 1381.875 246.9375 C1381.56090179 248.04051453 1381.24680359 249.14352905 1380.92318726 250.27996826 C1379.26575662 256.10693909 1377.62567235 261.93791628 1376.03125 267.7824707 C1375.61226665 269.31796363 1375.18947373 270.85242555 1374.76171875 272.38549805 C1374.24960337 274.23632063 1373.76407671 276.09444677 1373.28125 277.953125 C1372.89936523 279.39606934 1372.89936523 279.39606934 1372.50976562 280.86816406 C1372.12954544 283.23240428 1372.12954544 283.23240428 1373.63085938 284.95214844 C1377.24307948 287.5106358 1380.61422344 287.31623796 1384.89453125 287.3203125 C1385.54838303 287.32126923 1386.2022348 287.32222595 1386.87590027 287.32321167 C1388.2721669 287.32389309 1389.66843669 287.32204143 1391.06469727 287.31787109 C1393.11417664 287.31268552 1395.16341966 287.31772913 1397.21289062 287.32421875 C1408.95062006 287.32947641 1420.65459442 286.79012155 1432.375 286.1875 C1455.82070391 210.00845398 1478.98584484 133.71173229 1500.75469971 57.03417969 C1501.45137866 54.58304034 1502.15128981 52.132817 1502.85467529 49.68359375 C1503.80831938 46.35707691 1504.74811137 43.02697527 1505.68359375 39.6953125 C1505.96046524 38.73771027 1506.23733673 37.78010803 1506.52259827 36.79348755 C1508.01473793 31.40575117 1508.65632455 26.77887637 1508.375 21.1875 C1503.04032308 18.54288833 1498.97061904 17.74982933 1493.0546875 17.82421875 C1492.27417023 17.82372025 1491.49365295 17.82322174 1490.68948364 17.82270813 C1489.04393967 17.82503713 1487.39839135 17.8346959 1485.75292969 17.85131836 C1483.2776574 17.87473832 1480.80347886 17.8718912 1478.328125 17.86523438 C1464.658925 17.64231225 1464.658925 17.64231225 1451.375 20.1875 Z M676.375 120.1875 C675.47007812 120.95835937 674.56515625 121.72921875 673.6328125 122.5234375 C647.34397783 145.60809287 630.19467456 179.83507487 627.50390625 214.7578125 C627.46136719 215.55960938 627.41882812 216.36140625 627.375 217.1875 C627.32214844 218.07179688 627.26929688 218.95609375 627.21484375 219.8671875 C626.57181615 240.49998612 633.19736232 258.84767644 647.19140625 274.05859375 C664.32468513 290.76277441 688.33717986 294.659954 711.25390625 294.3984375 C742.17342804 293.61493014 774.89837358 282.63738781 798.375 262.1875 C799.20644531 261.47722656 800.03789063 260.76695312 800.89453125 260.03515625 C828.18590071 236.18140936 848.70018231 199.06580579 851.25 162.5625 C852.1462694 143.76663462 847.41578965 126.06998652 835.16015625 111.56640625 C818.36005127 93.67715346 792.98582233 86.69320079 769.11328125 84.94921875 C735.67163657 84.22471334 701.48019281 98.63416726 676.375 120.1875 Z M289.375 117.1875 C288.16457031 118.23357422 288.16457031 118.23357422 286.9296875 119.30078125 C284.3724946 121.5573637 281.86696079 123.85913358 279.375 126.1875 C278.49972656 126.99703125 277.62445312 127.8065625 276.72265625 128.640625 C251.47271488 152.83999492 236.43247002 185.46214026 235.30151367 220.46166992 C235.08112374 241.39871353 240.73892118 258.29309621 255.3671875 273.234375 C273.15382331 290.87604136 296.38604496 291.62340828 320.17672729 291.55636597 C331.44087752 291.4650612 342.40157111 290.88600339 353.375 288.1875 C354.59268066 287.88948486 354.59268066 287.88948486 355.83496094 287.58544922 C390.02713765 278.89086714 418.69663943 257.38357897 436.84765625 227.13671875 C451.79841622 201.47698515 464.22438703 168.71228155 458.3125 138.5 C453.77424868 121.37176115 439.27231614 105.37707946 424.5625 95.9375 C383.57641425 72.84762879 323.13674654 87.80227616 289.375 117.1875 Z M1220.1328125 131.12109375 C1196.15887586 157.14823534 1184.26807726 191.41934094 1184.125 226.4375 C1184.104375 227.68402344 1184.08375 228.93054688 1184.0625 230.21484375 C1184.00253033 244.56258707 1187.091421 258.38130865 1197.09765625 269.17578125 C1202.04808092 273.54879789 1207.68005495 276.87907039 1213.375 280.1875 C1214.13683594 280.63351562 1214.89867187 281.07953125 1215.68359375 281.5390625 C1225.62709631 286.61742053 1237.92584751 287.30213486 1248.90234375 287.765625 C1249.86241837 287.80646713 1250.82249298 287.84730927 1251.81166077 287.88938904 C1268.05524156 288.48395052 1284.32412359 288.29674592 1300.57568359 288.25616455 C1305.18912286 288.24577299 1309.80256793 288.24133367 1314.41601562 288.23632812 C1323.40235857 288.22573361 1332.38867637 288.20875954 1341.375 288.1875 C1342.48205962 284.56949525 1343.58691052 280.95081944 1344.69140625 277.33203125 C1345.0006604 276.32144653 1345.30991455 275.31086182 1345.62854004 274.26965332 C1347.59440762 267.82403752 1349.49469949 261.36393312 1351.3125 254.875 C1351.62761536 253.7534552 1351.62761536 253.7534552 1351.94909668 252.60925293 C1353.00677065 248.95275625 1353.00677065 248.95275625 1353.375 245.1875 C1345.78031679 244.23262038 1338.21133566 243.8344435 1330.56640625 243.50390625 C1329.23231615 243.4432884 1327.89824559 243.3822392 1326.56419373 243.32078552 C1320.95232335 243.06287827 1315.34018562 242.81123906 1309.7277832 242.56518555 C1256.42870656 240.21956327 1256.42870656 240.21956327 1249.55078125 233.37109375 C1248.15266439 230.77459102 1247.97341755 229.06236031 1248 226.125 C1247.98839844 224.83916016 1247.98839844 224.83916016 1247.9765625 223.52734375 C1248.46152918 220.67935316 1249.1795568 220.00416209 1251.375 218.1875 C1257.96166756 215.69750376 1265.50401725 215.61790836 1272.453125 215.1640625 C1273.65148987 215.08233795 1274.84985474 215.0006134 1276.08453369 214.91641235 C1292.54999802 213.84813757 1309.04090214 213.27142053 1325.52832031 212.65948486 C1329.92786546 212.49516375 1334.32720238 212.32543995 1338.7265625 212.15625 C1347.27585304 211.82822023 1355.82534537 211.50589893 1364.375 211.1875 C1366.86987767 204.62619585 1369.05137508 198.03864222 1371.0625 191.3125 C1371.38283203 190.28769531 1371.70316406 189.26289063 1372.03320312 188.20703125 C1373.86970034 182.04360562 1375.66064246 175.63794466 1374.375 169.1875 C1372.31023508 165.85888445 1369.20123129 165.47287013 1365.55755329 164.60523987 C1362.27542636 163.97704202 1359.08165825 163.91131156 1355.74414062 163.88452148 C1354.66903229 163.87186249 1354.66903229 163.87186249 1353.57220459 163.85894775 C1351.225212 163.83336732 1348.87834551 163.82106405 1346.53125 163.80859375 C1344.87706558 163.79238106 1343.22289041 163.77519726 1341.56872559 163.75709534 C1337.22172409 163.71156465 1332.87470901 163.67671152 1328.52758789 163.64489746 C1321.60074373 163.59293816 1314.67404103 163.52681419 1307.74736023 163.45668221 C1305.35490077 163.43428329 1302.96245737 163.41772643 1300.56994629 163.40196228 C1274.04923468 163.18766063 1274.04923468 163.18766063 1267.375 161.1875 C1267.68651131 156.82634173 1268.69146162 153.89931708 1271.67578125 150.6328125 C1286.85799983 137.7192013 1311.75265056 138.91134288 1330.5390625 138.7734375 C1332.19486377 138.75465578 1333.85065617 138.73507765 1335.50643921 138.7147522 C1339.79694303 138.66416258 1344.08747765 138.62415333 1348.37811279 138.58660889 C1352.78339792 138.54610123 1357.18856319 138.49522628 1361.59375 138.4453125 C1370.18741708 138.34942381 1378.78114522 138.26475051 1387.375 138.1875 C1392.13312803 121.6136137 1392.13312803 121.6136137 1396.75 105 C1397.13865234 103.59331055 1397.13865234 103.59331055 1397.53515625 102.15820312 C1397.77878906 101.26681641 1398.02242187 100.37542969 1398.2734375 99.45703125 C1398.48661621 98.67948486 1398.69979492 97.90193848 1398.91943359 97.10083008 C1399.45220871 95.19103469 1399.45220871 95.19103469 1399.375 93.1875 C1394.44652548 90.85232851 1390.00236475 89.56664815 1384.5546875 89.015625 C1383.81999237 88.93604553 1383.08529724 88.85646606 1382.32833862 88.7744751 C1374.05716038 87.94967094 1365.80480255 87.87948699 1357.5 87.9375 C1356.70096252 87.94060181 1355.90192505 87.94370361 1355.07867432 87.94689941 C1304.50714895 88.175168 1256.91987111 93.44318045 1220.1328125 131.12109375 Z M906.375 89.1875 C904.00369498 95.43129784 904.00369498 95.43129784 901.88647461 101.76391602 C901.62924118 102.58710327 901.37200775 103.41029053 901.10697937 104.25842285 C900.83319962 105.14380737 900.55941986 106.02919189 900.27734375 106.94140625 C899.97516434 107.91339966 899.67298492 108.88539307 899.36164856 109.88684082 C898.34181262 113.17350255 897.32664592 116.46157827 896.3125 119.75 C895.95506714 120.90732635 895.59763428 122.06465271 895.22937012 123.25704956 C878.63897673 177.03039338 862.28305922 230.92085917 847.375 285.1875 C851.04532697 287.5110236 854.18464918 287.43181875 858.46484375 287.41796875 C859.15797165 287.41787308 859.85109955 287.4177774 860.56523132 287.41767883 C862.81449827 287.41396321 865.06332415 287.39505688 867.3125 287.375 C868.85270036 287.36815303 870.39290226 287.3616437 871.93310547 287.35546875 C883.43118629 287.28947153 894.8993894 286.92615999 906.375 286.1875 C908.37355135 280.9811719 910.18984465 275.76593122 911.78833008 270.421875 C912.01036574 269.68740143 912.23240141 268.95292786 912.46116543 268.19619751 C913.1915946 265.77741907 913.91812721 263.35749002 914.64453125 260.9375 C915.16303867 259.21690246 915.68173999 257.49636335 916.20062256 255.77587891 C917.58210448 251.19206718 918.95984424 246.6071395 920.33641434 242.02185059 C921.1869966 239.18917645 922.03843054 236.35675963 922.8901062 233.52441406 C929.63307569 211.09672414 936.35656264 188.66335294 942.9375 166.1875 C943.22831451 165.19862793 943.51912903 164.20975586 943.8187561 163.19091797 C944.61413938 160.4827324 945.40394602 157.77299832 946.19140625 155.0625 C946.53168854 153.90609009 946.53168854 153.90609009 946.87884521 152.72631836 C947.72838444 149.77797273 948.375 147.27331206 948.375 144.1875 C949.17381592 144.16244385 949.97263184 144.1373877 950.7956543 144.11157227 C970.71342874 143.48356808 970.71342874 143.48356808 990.625 142.6875 C991.49213623 142.65213135 992.35927246 142.6167627 993.25268555 142.58032227 C997.44900381 142.48149195 997.44900381 142.48149195 1001.375 141.1875 C1001.08069092 142.08911865 1000.78638184 142.9907373 1000.4831543 143.91967773 C989.35450956 178.11717208 979.30241752 212.62653653 969.375 247.1875 C969.07561523 248.227854 968.77623047 249.26820801 968.46777344 250.34008789 C967.02737749 255.34988608 965.59802301 260.36237686 964.1986084 265.38378906 C963.82193288 266.73241407 963.44190992 268.08010949 963.05822754 269.42675781 C962.5537471 271.20326192 962.06536005 272.98431386 961.578125 274.765625 C961.31676758 275.70825195 961.05541016 276.65087891 960.78613281 277.62207031 C960.33517986 280.43597391 960.64654726 282.45054597 961.375 285.1875 C973.85028894 289.44043941 987.61677505 288.31275586 1000.625 288.25 C1002.44921752 288.24497327 1004.27343638 288.24041244 1006.09765625 288.23632812 C1010.52347132 288.22541939 1014.94922043 288.20821994 1019.375 288.1875 C1022.23572166 280.96564657 1024.4105416 273.57440124 1026.59375 266.125 C1027.00850325 264.71802426 1027.42353437 263.31113041 1027.83882141 261.90431213 C1028.72547583 258.89878108 1029.61035723 255.89273618 1030.49380493 252.88626099 C1031.88449954 248.15370782 1033.27910249 243.4223126 1034.67456055 238.69116211 C1035.15013579 237.0786604 1035.62570644 235.46615734 1036.10127258 233.85365295 C1036.33852869 233.04920305 1036.5757848 232.24475315 1036.82023048 231.41592598 C1037.54708963 228.95086827 1038.27355682 226.48569535 1038.99992371 224.02049255 C1043.82959321 207.6312292 1048.69039014 191.25125116 1053.55679321 174.87286377 C1054.59931691 171.36388651 1055.64143522 167.85478885 1056.68359375 164.34570312 C1058.58029161 157.9595054 1060.47745254 151.57344534 1062.375 145.1875 C1066.54126463 144.8490135 1070.70806653 144.51764248 1074.875 144.1875 C1076.04804687 144.09210938 1077.22109375 143.99671875 1078.4296875 143.8984375 C1094.65046718 142.62264584 1094.65046718 142.62264584 1101.75 144 C1102.58273437 144.15082031 1103.41546875 144.30164063 1104.2734375 144.45703125 C1106.375 145.1875 1106.375 145.1875 1108.375 148.1875 C1108.67382092 157.01031704 1106.35828057 165.87814094 1104.37890625 174.41015625 C1104.22730104 175.07237749 1104.07569584 175.73459873 1103.91949654 176.41688728 C1100.43157977 191.61803667 1096.21809927 206.60274587 1091.89996338 221.58514404 C1085.12157255 245.08895089 1085.12157255 245.08895089 1078.81640625 268.72265625 C1078.56455063 269.68731308 1078.31269501 270.65196991 1078.0532074 271.64585876 C1076.80398803 276.63906364 1076.0990231 281.04019956 1076.375 286.1875 C1087.99154172 290.05968057 1102.69551687 288.30931469 1114.8125 288.25 C1116.62304562 288.24496935 1118.43359261 288.24040924 1120.24414062 288.23632812 C1124.62112846 288.22545937 1128.99804848 288.20828325 1133.375 288.1875 C1167.44224402 202.12067282 1167.44224402 202.12067282 1169.1875 115.9375 C1162.91518681 104.55981561 1153.72227841 98.10847409 1141.47238159 94.06106567 C1130.07009598 90.84523804 1117.82964223 90.58686433 1106.0546875 90.0703125 C1105.11611782 90.02819767 1104.17754814 89.98608284 1103.21053696 89.9426918 C1068.32881783 88.44920498 1033.36070912 88.96304377 998.45603824 89.04344487 C988.38996756 89.06622362 978.32389343 89.07690284 968.2578032 89.08685279 C947.63017339 89.10749898 927.00259006 89.14244436 906.375 89.1875 Z " fill="#000000" transform="translate(673.625,60.8125)"/>
<path d="M0 0 C0.80179687 0.73992188 1.60359375 1.47984375 2.4296875 2.2421875 C4.45225254 4.09678866 6.52233984 5.86285161 8.625 7.625 C42.00027966 36.92033565 63.64841131 82.00989803 70.6875 125.3125 C70.79642578 125.98168457 70.90535156 126.65086914 71.01757812 127.34033203 C80.14971861 185.45003729 66.34952695 244.70092684 31.6875 292.3125 C29.13466993 295.76158155 26.50920242 299.08080663 23.6875 302.3125 C23.04296875 303.0653125 22.3984375 303.818125 21.734375 304.59375 C2.45294678 326.58886071 -19.46309218 343.69568086 -45.3125 357.3125 C-45.94784668 357.64991211 -46.58319336 357.98732422 -47.23779297 358.33496094 C-97.31489565 384.5165627 -157.78065676 388.10880318 -211.33496094 371.36767578 C-234.0672608 363.87777874 -255.34954526 352.91628101 -274.3125 338.3125 C-275.24835938 337.60609375 -276.18421875 336.8996875 -277.1484375 336.171875 C-291.63127792 324.93282534 -305.0883144 311.78045681 -316.3125 297.3125 C-316.7780127 296.71808105 -317.24352539 296.12366211 -317.72314453 295.51123047 C-324.56809459 286.74051133 -330.8218484 277.8184569 -336.28759766 268.12304688 C-337.26955618 266.38836264 -338.28065193 264.6702699 -339.29296875 262.953125 C-365.34591258 216.98345963 -371.15999968 160.34106147 -357.8125 109.5234375 C-349.58621009 80.07554295 -335.6341995 52.98234741 -316.3125 29.3125 C-315.10787109 27.80236328 -315.10787109 27.80236328 -313.87890625 26.26171875 C-279.26755366 -16.43364658 -227.70000016 -48.04603091 -172.5625 -53.875 C-110.42493673 -59.5788336 -46.90277407 -42.07036705 0 0 Z M-191.3125 -26.6875 C-192.19292969 -26.46288086 -193.07335937 -26.23826172 -193.98046875 -26.00683594 C-234.09335912 -15.58415981 -273.07118437 8.08523141 -298.3125 41.3125 C-299.41658203 42.71048828 -299.41658203 42.71048828 -300.54296875 44.13671875 C-332.66454825 85.54646581 -344.90027076 138.73749599 -338.71484375 190.36669922 C-333.66741479 227.32196487 -319.0869841 262.22909507 -294.3125 290.3125 C-293.87550781 290.80975586 -293.43851563 291.30701172 -292.98828125 291.81933594 C-260.41351287 328.70547072 -212.05641873 352.78433116 -163.04638672 357.14477539 C-108.09820896 360.51585934 -56.04377912 344.742113 -14.5 308.125 C-12.76174082 306.53069041 -11.0332443 304.92569779 -9.3125 303.3125 C-8.57193359 302.62293213 -8.57193359 302.62293213 -7.81640625 301.91943359 C5.16034195 289.73957424 15.92778436 275.80488965 24.6875 260.3125 C25.04263672 259.69503906 25.39777344 259.07757813 25.76367188 258.44140625 C51.06564072 214.15199804 57.33857046 161.98387245 44.22094727 112.83081055 C30.10761759 62.77649329 -4.08043046 18.87687808 -49.40332031 -6.63330078 C-91.88602106 -30.09113989 -143.9875188 -39.14753876 -191.3125 -26.6875 Z " fill="#000000" transform="translate(364.3125,54.6875)"/>
<path d="M0 0 C1.53720703 -0.01836914 1.53720703 -0.01836914 3.10546875 -0.03710938 C10.09554298 -0.05043226 17.73880946 -0.00559527 24.125 3.1875 C24.34355942 8.709768 23.61340527 13.46905307 22.25 18.8125 C22.04093018 19.64555664 21.83186035 20.47861328 21.61645508 21.33691406 C18.24103209 34.18313925 13.59486553 46.69009431 9.125 59.1875 C7.37026367 59.217229 7.37026367 59.217229 5.58007812 59.24755859 C1.21138138 59.32402611 -3.15700004 59.41267803 -7.52539062 59.50488281 C-9.41074364 59.54300338 -11.29616521 59.57788481 -13.18164062 59.609375 C-15.90259179 59.65539532 -18.62307793 59.71332614 -21.34375 59.7734375 C-22.17741089 59.78498871 -23.01107178 59.79653992 -23.86999512 59.80844116 C-29.15891436 59.93976557 -33.80793411 60.62552002 -38.875 62.1875 C-42.57367437 66.26748101 -43.51732332 73.33850874 -44.984375 78.515625 C-45.33983398 79.76762695 -45.69529297 81.01962891 -46.06152344 82.30957031 C-46.3299707 83.25928711 -46.59841797 84.20900391 -46.875 85.1875 C-45.7197583 85.24284912 -44.5645166 85.29819824 -43.37426758 85.35522461 C-39.07834182 85.56204484 -34.78267171 85.773814 -30.48706055 85.98706055 C-28.62970451 86.07857587 -26.77228228 86.16875832 -24.91479492 86.25756836 C-22.24118733 86.38563252 -19.5678563 86.5185262 -16.89453125 86.65234375 C-16.06726028 86.69093002 -15.23998932 86.7295163 -14.38764954 86.76927185 C-10.45819504 86.97049955 -6.71627949 87.26193133 -2.875 88.1875 C-3.53757422 95.91172049 -4.63964626 103.53550303 -5.875 111.1875 C-5.215 111.1875 -4.555 111.1875 -3.875 111.1875 C-3.62105469 110.49527344 -3.36710937 109.80304688 -3.10546875 109.08984375 C0.53509226 100.50274269 5.49173352 92.6398332 13.125 87.1875 C13.455 87.1875 13.785 87.1875 14.125 87.1875 C14.72387985 93.0907442 12.65583114 97.18238503 10.1875 102.375 C9.77927002 103.25430176 9.37104004 104.13360352 8.95043945 105.03955078 C8.0992933 106.86808418 7.24303859 108.69424784 6.38183594 110.51806641 C5.21909724 112.9876439 4.07846471 115.46596095 2.9453125 117.94921875 C-2.322896 129.40342523 -8.24675491 140.44501852 -14.36962891 151.46191406 C-15.83126322 154.10831131 -17.2691844 156.76610441 -18.69921875 159.4296875 C-23.10238003 167.60654075 -27.63724013 175.66307835 -32.625 183.5 C-33.2603064 184.51284058 -33.2603064 184.51284058 -33.90844727 185.54614258 C-37.79091703 191.51426759 -42.66360671 198.38465168 -49.875 200.1875 C-55.16621745 201.08487984 -60.27588318 201.38013077 -65.625 201.375 C-66.41124756 201.37491943 -67.19749512 201.37483887 -68.00756836 201.37475586 C-83.84210857 201.22039143 -83.84210857 201.22039143 -86.875 198.1875 C-86.43345449 191.48183991 -84.99353894 185.47145575 -83.015625 179.0703125 C-82.71950317 178.0902121 -82.42338135 177.11011169 -82.11828613 176.10031128 C-81.12886275 172.8351062 -80.12736681 169.57375309 -79.125 166.3125 C-78.41017489 163.96884358 -77.6956647 161.62509108 -76.98144531 159.28125 C-74.83311991 152.24713158 -72.66741221 145.21847954 -70.49475098 138.19184875 C-69.87414927 136.18474863 -69.25396196 134.17752075 -68.63378906 132.17028809 C-58.78892981 100.31908703 -48.7525449 68.53004088 -38.40986633 36.83679199 C-37.75422341 34.82545628 -37.1006735 32.81345117 -36.44763184 30.80126953 C-35.24125797 27.08625056 -34.02384948 23.37490583 -32.8046875 19.6640625 C-32.44939972 18.56840973 -32.09411194 17.47275696 -31.72805786 16.34390259 C-31.39482513 15.33661102 -31.06159241 14.32931946 -30.71826172 13.29150391 C-30.432966 12.42103424 -30.14767029 11.55056458 -29.85372925 10.65371704 C-27.12065499 3.76687441 -27.12065499 3.76687441 -23.1875 1.9375 C-15.46028882 0.18794275 -7.89162797 0.00492611 0 0 Z " fill="#000000" transform="translate(165.875,102.8125)"/>
<path d="M0 0 C0.66 0 1.32 0 2 0 C3.10370043 3.3111013 2.92673641 5.24748949 2.5625 8.6875 C2.46066406 9.68136719 2.35882813 10.67523438 2.25390625 11.69921875 C2.17011719 12.45847656 2.08632813 13.21773437 2 14 C4.94204045 14.98068015 7.01231579 15.1650078 10.0859375 15.24609375 C11.09382324 15.27759521 12.10170898 15.30909668 13.14013672 15.34155273 C14.74139404 15.38904663 14.74139404 15.38904663 16.375 15.4375 C40.29443801 16.29443801 40.29443801 16.29443801 44 20 C44.35162034 25.48586098 43.73839981 29.93002512 42.234375 35.25 C42.04481735 35.92990997 41.8552597 36.60981995 41.65995789 37.31033325 C41.03389731 39.54336807 40.3924318 41.77162498 39.75 44 C39.30554432 45.56869854 38.86162587 47.13754938 38.41821289 48.70654297 C34.86701103 61.21097383 31.16612215 73.67249951 27.4375 86.125 C27.17247681 87.01010254 26.90745361 87.89520508 26.63439941 88.80712891 C25.88266991 91.31234892 25.12771482 93.81656597 24.37109375 96.3203125 C24.14548264 97.07071808 23.91987152 97.82112366 23.68742371 98.5942688 C22.11698244 103.76603513 22.11698244 103.76603513 21 106 C21.78076904 105.98984863 22.56153809 105.97969727 23.3659668 105.96923828 C33.00709149 105.90130887 42.59759506 106.25263666 52.22436523 106.74462891 C54.82568364 106.87566409 57.427388 106.99462424 60.02929688 107.11328125 C61.71357844 107.19718168 63.39782482 107.28179205 65.08203125 107.3671875 C66.22609184 107.41732498 66.22609184 107.41732498 67.39326477 107.46847534 C80.44785514 108.17703938 80.44785514 108.17703938 85.1875 111.5625 C86.53206355 115.59619065 85.44636652 119.09265165 84 123 C81.40674786 126.88987822 78.60747933 127.52102983 74.16412354 128.57012939 C59.37619519 131.50752904 43.09136042 130.15438912 28.10595703 130.13037109 C24.13960939 130.12501971 20.17337543 130.1303412 16.20703125 130.13671875 C-31.6981297 130.15093515 -31.6981297 130.15093515 -40 126 C-38.57233056 115.78359752 -35.51018412 106.0832905 -32.5 96.25 C-32.22421112 95.34302368 -31.94842224 94.43604736 -31.66427612 93.50158691 C-26.49558196 76.5207526 -21.063911 59.62556692 -15.5625 42.75 C-14.98943115 40.98565613 -14.98943115 40.98565613 -14.40478516 39.18566895 C-4.74051703 9.48103405 -4.74051703 9.48103405 0 0 Z " fill="#000000" transform="translate(281,174)"/>
<path d="M0 0 C0.72928711 -0.0103125 1.45857422 -0.020625 2.20996094 -0.03125 C8.63315934 0.07457844 14.13180332 1.55370719 19.25 5.625 C27.18136 15.5392 28.53544798 27.03801047 27.5 39.4375 C23.57660777 60.79323725 12.60459903 82.59470284 -5.58544922 95.20239258 C-18.29657471 103.5313879 -32.60362867 107.37048268 -47.76953125 104.90625 C-57.89155852 102.60976046 -57.89155852 102.60976046 -61.5 98.4375 C-69.94747419 84.66695988 -67.59117043 65.47501259 -64.00048828 50.35107422 C-59.37889024 32.68078865 -48.5639989 17.27573674 -32.75 7.9375 C-22.45220581 2.29216062 -11.67278322 0.13533662 0 0 Z " fill="#000000" transform="translate(1041.5,198.5625)"/>
<path d="M0 0 C6.16920482 4.87770774 9.26334718 11.17285404 11.71484375 18.52734375 C13.86573672 39.79123497 7.74561572 58.98144272 -5.16015625 75.90234375 C-16.54084933 89.17249552 -30.68470136 98.2828413 -48.28515625 100.52734375 C-56.79546967 101.16983028 -64.82540199 100.75722088 -72.53515625 96.90234375 C-77.02496165 93.02478454 -80.09033181 88.37222587 -81.28515625 82.52734375 C-82.89775536 57.3976743 -79.23129861 35.5865378 -63.22265625 15.46484375 C-55.49047881 7.02026344 -44.96898799 0.44817303 -34.28515625 -3.47265625 C-33.62515625 -3.71628906 -32.96515625 -3.95992187 -32.28515625 -4.2109375 C-21.38773979 -7.54827129 -9.55385557 -6.15692914 0 0 Z " fill="#000000" transform="translate(1448.28515625,203.47265625)"/>
<path d="M0 0 C0.99 0.33 1.98 0.66 3 1 C2.34 6.61 1.68 12.22 1 18 C3.65696758 18.88565586 5.28190083 19.1450262 8.01245117 19.20532227 C8.81305466 19.22526749 9.61365814 19.24521271 10.43852234 19.26576233 C11.29798965 19.28247482 12.15745697 19.29918732 13.04296875 19.31640625 C13.9265657 19.33718735 14.81016266 19.35796844 15.72053528 19.37937927 C18.54277785 19.44475754 21.36511335 19.50370528 24.1875 19.5625 C26.10092106 19.60569637 28.01433273 19.64931102 29.92773438 19.69335938 C34.61839572 19.80121406 39.30912773 19.90037461 44 20 C43.67 26.93 43.34 33.86 43 41 C45.74636045 35.96482404 45.74636045 35.96482404 48.47338867 30.91918945 C50.85994331 26.61075288 53.18928205 23.15888462 57 20 C59.8125 20.1875 59.8125 20.1875 62 21 C61.49360323 26.23054558 60.18107606 30.3338697 57.75 34.9375 C57.40791504 35.60281738 57.06583008 36.26813477 56.71337891 36.95361328 C55.49149658 39.31112119 54.24831526 41.65638008 53 44 C52.48727539 44.96405762 51.97455078 45.92811523 51.44628906 46.92138672 C44.66490133 59.63099407 44.66490133 59.63099407 41.55004883 65.18701172 C40.51275687 67.06946217 39.52278342 68.9787332 38.58081055 70.91064453 C35.1898794 77.46407496 35.1898794 77.46407496 32.06054688 78.87353516 C29.66907783 79.23138668 27.47829947 79.23075864 25.0625 79.125 C23.74016357 79.12560425 23.74016357 79.12560425 22.39111328 79.1262207 C20.40041178 79.12267613 18.40967262 79.0972535 16.41943359 79.05419922 C12.5550299 78.99294707 8.69596935 79.03969621 4.83203125 79.09765625 C2.01305519 79.13154174 -0.80595247 79.1602802 -3.625 79.1875 C-4.31697479 79.19517395 -5.00894958 79.2028479 -5.72189331 79.21075439 C-7.70254919 79.22834192 -9.68332868 79.22972229 -11.6640625 79.23046875 C-13.38810303 79.23663208 -13.38810303 79.23663208 -15.14697266 79.24291992 C-18 79 -18 79 -21 77 C-20.49507601 69.64386311 -19.13929116 62.77116367 -17.26953125 55.6484375 C-16.99662766 54.59073151 -16.72372406 53.53302551 -16.44255066 52.44326782 C-15.86540344 50.21528079 -15.28447439 47.98827032 -14.69995117 45.76220703 C-13.82121063 42.40824658 -12.95963405 39.05020785 -12.09960938 35.69140625 C-3.85532117 3.85532117 -3.85532117 3.85532117 0 0 Z " fill="#000000" transform="translate(201,170)"/>
<path d="M0 0 C1.05767578 -0.00322266 2.11535156 -0.00644531 3.20507812 -0.00976562 C14.44322784 0.06822784 14.44322784 0.06822784 17.6875 3.3125 C19.56919267 21.96813875 12.36096154 41.15698523 5.6875 58.3125 C4.02302957 59.97697043 2.03094469 59.43994421 -0.25610352 59.44189453 C-1.31132706 59.44504669 -2.3665506 59.44819885 -3.45375061 59.45144653 C-5.18014015 59.44841019 -5.18014015 59.44841019 -6.94140625 59.4453125 C-8.11960434 59.44626923 -9.29780243 59.44722595 -10.51170349 59.44821167 C-13.01439466 59.44889408 -15.51708759 59.44703557 -18.01977539 59.44287109 C-21.83418827 59.43755686 -25.6484816 59.44279677 -29.46289062 59.44921875 C-31.89322943 59.44855733 -34.32356815 59.44727484 -36.75390625 59.4453125 C-37.89066299 59.44733673 -39.02741974 59.44936096 -40.19862366 59.45144653 C-45.99923309 59.43447387 -51.57653245 59.18972976 -57.3125 58.3125 C-58.1468857 51.99202834 -55.23936069 47.54950878 -52.3125 42.1875 C-51.81065186 41.25188232 -51.30880371 40.31626465 -50.79174805 39.35229492 C-47.00647288 32.38272572 -43.01861387 25.70699287 -38.3125 19.3125 C-37.65636719 18.41144531 -37.00023437 17.51039062 -36.32421875 16.58203125 C-26.38438889 3.51549763 -16.23964742 -0.25201191 0 0 Z " fill="#000000" transform="translate(332.3125,102.6875)"/>
<path d="M0 0 C2.49413123 2.82032546 2.96609217 4.48830001 3.21484375 8.2421875 C2.18085615 21.78596873 -1.23457555 33.56876496 -6.65625 45.9921875 C-7.07422852 46.95825928 -7.49220703 47.92433105 -7.92285156 48.91967773 C-8.94518855 51.28127618 -9.97096696 53.64131348 -11 56 C-17.49207158 56.05108629 -23.98409052 56.08589434 -30.47631836 56.10986328 C-32.68076515 56.11986516 -34.88519886 56.13347099 -37.08959961 56.15087891 C-40.27460984 56.17538453 -43.4594433 56.18654155 -46.64453125 56.1953125 C-47.61582474 56.20563507 -48.58711823 56.21595764 -49.58784485 56.22659302 C-56.15600077 56.22764839 -62.65116512 55.80445154 -69 54 C-69.66 53.34 -70.32 52.68 -71 52 C-69.16117453 34.22468708 -54.63855363 14.95981649 -42 3 C-39.69968797 1.35378433 -37.57534319 0.20883456 -35 -1 C-34.34 -1.33 -33.68 -1.66 -33 -2 C-22.50230324 -3.77927064 -9.98863039 -3.92065806 0 0 Z " fill="#000000" transform="translate(266,106)"/>
<path d="M0 0 C0.66 0 1.32 0 2 0 C1.5346949 7.79386038 -0.11385525 14.94478227 -2.25 22.4375 C-2.60151123 23.68861572 -2.95302246 24.93973145 -3.31518555 26.22875977 C-9.84218724 49.32027196 -16.98026922 72.24166029 -24.06567192 95.1661911 C-25.92162404 101.17241752 -27.77421404 107.17967983 -29.625 113.1875 C-29.82983128 113.85225845 -30.03466255 114.51701691 -30.24570084 115.20191956 C-36.90093966 136.81025011 -43.22970425 158.48583478 -49.02734375 180.34130859 C-50.32805672 185.23400049 -51.66043855 190.11782382 -53 195 C-44.13901858 196.85137731 -35.48831231 197.35350917 -26.45092773 197.57006836 C-20.11079765 197.76078552 -14.17606877 198.54918898 -8 200 C-7.67 201.32 -7.34 202.64 -7 204 C-15.61933591 207.80264819 -24.75249684 207.28469271 -33.98608398 207.35009766 C-35.70562212 207.36671785 -37.42508949 207.39408709 -39.14428711 207.43212891 C-41.6395197 207.48692729 -44.13315301 207.50876445 -46.62890625 207.5234375 C-47.39360733 207.54610687 -48.15830841 207.56877625 -48.94618225 207.59213257 C-52.91838956 207.57643138 -54.79631651 207.15446012 -57.99536133 204.72851562 C-60.99492606 200.64580518 -60.60163953 197.86958076 -60 193 C-59.47118674 189.57357983 -58.71077476 186.23890673 -57.875 182.875 C-57.6162207 181.82119141 -57.35744141 180.76738281 -57.09082031 179.68164062 C-48.14030086 144.36759551 -36.51868169 109.67538823 -25.47679138 74.9778595 C-22.69971563 66.23809494 -19.9671477 57.48507461 -17.25 48.7265625 C-16.09898523 45.0276161 -14.94735486 41.32886188 -13.79556274 37.63015747 C-13.06504976 35.27810647 -12.33742215 32.92515709 -11.61288452 30.57125854 C-10.60769826 27.30677634 -9.59202279 24.0457227 -8.57421875 20.78515625 C-8.2853479 19.83665802 -7.99647705 18.88815979 -7.69885254 17.91091919 C-5.71378249 11.5982408 -3.12231496 5.8322747 0 0 Z " fill="#000000" transform="translate(126,113)"/>
<path d="M0 0 C1.32 0 2.64 0 4 0 C4.29587479 6.41308614 3.28543378 11.67126238 1.5 17.8125 C1.23735352 18.74666748 0.97470703 19.68083496 0.70410156 20.64331055 C-1.86107003 29.69777318 -4.55536014 38.71722525 -7.28320312 47.72387695 C-9.57922296 55.3531218 -11.71112261 62.82797107 -12.55175781 70.7668457 C-12.63709778 71.56363235 -12.72243774 72.36041901 -12.81036377 73.18135071 C-12.87294373 73.78150497 -12.93552368 74.38165924 -13 75 C6.26552227 76.71965841 25.43123771 77.36454745 44.76141357 77.54260254 C51.06762262 77.60196966 57.37368721 77.67566518 63.6796875 77.75390625 C64.34998552 77.76215109 65.02028355 77.77039593 65.71089363 77.77889061 C74.17402868 77.88690604 82.62695269 78.0700201 91.08203125 78.4609375 C91.90327484 78.49800308 92.72451843 78.53506866 93.57064819 78.57325745 C99.47826749 78.88052703 105.23971781 79.61051741 111 81 C111.33 81.99 111.66 82.98 112 84 C96.14020972 87.68749074 80.06622301 87.13442827 63.88671875 87.09765625 C61.4614922 87.09578824 59.03626527 87.09436615 56.61103821 87.09336853 C50.26704849 87.08957354 43.92308213 87.07976942 37.57910156 87.06866455 C31.08984696 87.05838515 24.60058854 87.05385699 18.11132812 87.04882812 C5.40754219 87.0381441 -7.29622765 87.02130013 -20 87 C-20.02502208 83.79200641 -20.04010641 80.58403825 -20.0534668 77.37597656 C-20.06063469 76.47247467 -20.06780258 75.56897278 -20.07518768 74.63809204 C-20.09565489 68.0829793 -19.53334124 62.09468219 -17.8125 55.75 C-17.43895386 54.27648071 -17.43895386 54.27648071 -17.05786133 52.77319336 C-13.24687398 38.36306601 -8.42345284 24.20780737 -3.73046875 10.06640625 C-3.47026947 9.28111038 -3.21007019 8.49581451 -2.94198608 7.6867218 C-1.12323852 2.24647705 -1.12323852 2.24647705 0 0 Z " fill="#000000" transform="translate(249,233)"/>
<path d="M0 0 C0.66 0 1.32 0 2 0 C3.43509221 2.87018441 3.11158506 5.33543723 3.09765625 8.5390625 C3.09443359 9.84101563 3.09121094 11.14296875 3.08789062 12.484375 C3.07953466 13.86458399 3.07106971 15.24479232 3.0625 16.625 C3.05748501 18.01301926 3.0529221 19.40104022 3.04882812 20.7890625 C3.03700976 24.19275132 3.02053434 27.59635439 3 31 C4.24910156 31.04898438 5.49820313 31.09796875 6.78515625 31.1484375 C16.66375077 31.56172368 26.52094288 32.12171658 36.375 32.9375 C37.33027588 33.01210449 38.28555176 33.08670898 39.26977539 33.16357422 C44.42686877 33.61074483 49.0798432 34.38027896 54 36 C53.67 36.99 53.34 37.98 53 39 C37.52863925 43.97293738 12.64261253 45.22195284 -2.30078125 38.51953125 C-6.07337476 36.39574127 -7.62503484 35.12489549 -9 31 C-10.07549654 20.24503463 -5.88697577 8.93948173 0 0 Z " fill="#000000" transform="translate(175,224)"/>
</svg>
