<?xml version="1.0" encoding="UTF-8"?>
<svg version="1.1" xmlns="http://www.w3.org/2000/svg" width="540" height="105">
<path d="M0 0 C178.2 0 356.4 0 540 0 C540 34.65 540 69.3 540 105 C361.8 105 183.6 105 0 105 C0 70.35 0 35.7 0 0 Z " fill="#FDFCFD" transform="translate(0,0)"/>
<path d="M0 0 C21.45 0 42.9 0 65 0 C65 34.65 65 69.3 65 105 C-13.87 105 -92.74 105 -174 105 C-173.505 104.01 -173.505 104.01 -173 103 C-171.27734375 102.578125 -171.27734375 102.578125 -168.9375 102.25 C-156.0242952 99.85866578 -139.56435139 93.87792528 -129.70239258 84.91088867 C-126.39494274 82.57215799 -124.57125576 82.50274657 -120.5546875 82.49609375 C-119.31203125 82.47740234 -118.069375 82.45871094 -116.7890625 82.43945312 C-115.49742187 82.43880859 -114.20578125 82.43816406 -112.875 82.4375 C-97.77348127 82.44324002 -97.77348127 82.44324002 -83.875 77.125 C-79.39117805 75.37046098 -76.3043361 77.27826556 -72 79 C-57.28754555 83.99668264 -41.08729374 84.83575265 -26 81 C-22.98405731 81.27417661 -21.27130064 81.8500707 -18.625 83.3125 C-15.7661234 84.37440648 -15.7661234 84.37440648 -12.5 82.1875 C-11.9534375 81.80980469 -11.406875 81.43210937 -10.84375 81.04296875 C-1.73739689 75.89170544 13.56383605 78.52776072 23.23925781 81.08911133 C32.81084213 83.91599554 42.0697188 88.74738014 49 96 C49 97.32 49 98.64 49 100 C53.95 100.66 58.9 101.32 64 102 C51.31814501 86.83691251 35.33916142 75.8102093 19.14794922 64.73291016 C17.25914497 63.43475124 15.37899826 62.12480051 13.5 60.8125 C12.92451416 60.420625 12.34902832 60.02875 11.75610352 59.625 C7.30511323 56.49773645 2.76871067 52.86519432 1.3125 47.4375 C2.17741276 44.37099113 3.75674459 42.82854839 6.296875 40.953125 C9.10832747 39.37974335 10.8439714 39.43191485 14 40 C16.76703083 41.16796772 19.39013171 42.51621701 22 44 C22 45.32 22 46.64 22 48 C26.29 47.67 30.58 47.34 35 47 C35.66 45.35 36.32 43.7 37 42 C36.36384766 41.38125 36.36384766 41.38125 35.71484375 40.75 C31.84827974 36.94292159 28.19814701 33.02217227 24.67578125 28.89453125 C23.00520888 26.90996777 23.00520888 26.90996777 20.78515625 25.15234375 C18.34736804 22.21312864 18.84997433 20.49389776 19.125 16.75 C19.14333964 13.26098628 19.14333964 13.26098628 18 10 C13.71065501 6.37481166 9.12347106 4.23090568 4 2 C2.02 1.01 2.02 1.01 0 0 Z " fill="#FEFDFD" transform="translate(475,0)"/>
<path d="M0 0 C2 3 2 3 2 6.5625 C2.64585386 13.0808399 8.47993451 16.81229227 13 21 C14.39992171 22.43442682 15.778387 23.89041436 17.125 25.375 C17.96417969 26.28378906 17.96417969 26.28378906 18.8203125 27.2109375 C20 29 20 29 20 33 C19.34 33.99 18.68 34.98 18 36 C14.9609375 36.29296875 14.9609375 36.29296875 11.375 36.1875 C10.18648437 36.16042969 8.99796875 36.13335937 7.7734375 36.10546875 C6.85820312 36.07066406 5.94296875 36.03585938 5 36 C4.90074219 35.37609375 4.80148437 34.7521875 4.69921875 34.109375 C4.13397131 31.60297794 4.13397131 31.60297794 0.8125 30.25 C-2.59069562 28.99033046 -5.3562121 28.44551054 -9 29 C-12.04913936 30.389089 -12.04913936 30.389089 -14 33 C-14.55971982 36.43954057 -14.55971982 36.43954057 -13 40 C-8.4320001 45.45690799 -1.96102701 49.12550863 3.93359375 52.9765625 C17.39177207 61.85724577 30.24995031 71.96072837 42 83 C42.56847656 83.52722656 43.13695312 84.05445312 43.72265625 84.59765625 C44.8612151 85.68547153 45.9407468 86.83482148 47 88 C47 88.66 47 89.32 47 90 C41.61560473 90.18892615 37.06267001 90.1263214 32 88 C31.7009375 87.22140625 31.401875 86.4428125 31.09375 85.640625 C29.09179635 80.8073369 24.30580679 78.67831434 20 76 C19.38125 75.60554688 18.7625 75.21109375 18.125 74.8046875 C6.10759447 67.99124776 -10.44082819 65.76276657 -23.89453125 68.61328125 C-27.02501962 69.62562824 -29.85860507 70.93087359 -32.8125 72.375 C-33.534375 72.58125 -34.25625 72.7875 -35 73 C-35.60070312 72.51273437 -36.20140625 72.02546875 -36.8203125 71.5234375 C-39.56553795 69.60473154 -40.79638458 69.79678338 -44.0625 70.25 C-44.91972656 70.35828125 -45.77695312 70.4665625 -46.66015625 70.578125 C-49.14275586 70.96820977 -49.14275586 70.96820977 -52 72 C-66.47944616 72.64453021 -79.67255815 71.97369006 -93.02734375 65.828125 C-97.36159687 64.62068524 -100.06615961 65.99314656 -103.93896484 68.00952148 C-112.94342744 72.336826 -123.54207213 71.28107822 -133.25195312 71.12695312 C-141.09782164 71.21290161 -145.63054702 72.25765092 -151.76293945 77.20678711 C-155.0264386 79.82278637 -158.58049678 81.47730137 -162.375 83.1875 C-163.11049072 83.52136719 -163.84598145 83.85523437 -164.60375977 84.19921875 C-166.72893446 85.14961896 -168.86263565 86.07741549 -171 87 C-172.03253906 87.46019531 -173.06507813 87.92039062 -174.12890625 88.39453125 C-186.47352785 93.25340178 -200.5977289 92.08545401 -213 88 C-213 87.34 -213 86.68 -213 86 C-210.91798472 85.49453964 -208.83432933 84.99583165 -206.75 84.5 C-205.58984375 84.2215625 -204.4296875 83.943125 -203.234375 83.65625 C-200 83 -200 83 -196 83 C-196 83.99 -196 84.98 -196 86 C-180.16485633 83.36466222 -167.95807637 77.42604412 -158.4375 64.1875 C-155.58292421 60.31295978 -153.38675243 58.99243738 -148.83984375 57.6484375 C-141.35082863 55.00899693 -135.43587338 43.79753288 -131.5625 37.3125 C-127.90862002 31.43165028 -123.64196254 27.21398751 -117 25 C-108.10078667 24.01119852 -100.70740091 27.94120764 -92.6953125 31.4453125 C-83.01332021 35.50849871 -74.19115261 36.86304877 -64.203125 32.96484375 C-63.47609375 32.64644531 -62.7490625 32.32804687 -62 32 C-60.81664062 31.50693359 -60.81664062 31.50693359 -59.609375 31.00390625 C-53.5833851 28.26568128 -48.82944691 24.60864145 -43.796875 20.34375 C-41.03109334 18.02605587 -38.21246568 15.83443592 -35.3125 13.6875 C-34.48363281 13.07261719 -33.65476562 12.45773438 -32.80078125 11.82421875 C-25.07408988 6.79163176 -19.53523144 5.45717369 -10.359375 5.59960938 C-5.34699155 5.57456381 -5.34699155 5.57456381 -1.453125 2.46484375 C-0.97359375 1.65144531 -0.4940625 0.83804687 0 0 Z " fill="#EE343F" transform="translate(492,12)"/>
<path d="M0 0 C16.5 0 33 0 50 0 C50 5.94 50 11.88 50 18 C46.04 18 42.08 18 38 18 C38.495 37.8 38.495 37.8 39 58 C42.1865625 52.3075 42.1865625 52.3075 45.4375 46.5 C50.94676869 36.66013909 56.46497793 26.82539632 62 17 C59.36 17 56.72 17 54 17 C54 11.72 54 6.44 54 1 C68.85 1 83.7 1 99 1 C95.57864582 7.84270836 92.12531114 14.26080336 88.0625 20.6875 C86.90282633 22.54115423 85.74400133 24.3953396 84.5859375 26.25 C83.99264648 27.19875 83.39935547 28.1475 82.78808594 29.125 C79.88602258 33.7911248 77.03698234 38.48914481 74.1875 43.1875 C70.39069858 49.44399647 66.58030894 55.69153404 62.734375 61.91796875 C62.37567825 62.49904892 62.01698151 63.08012909 61.64741516 63.67881775 C59.9064355 66.49867288 58.1633111 69.31714077 56.41674805 72.13354492 C55.78293213 73.15939697 55.14911621 74.18524902 54.49609375 75.2421875 C53.94107178 76.1379248 53.3860498 77.03366211 52.81420898 77.95654297 C50.45245292 81.91854689 48.24003911 85.96792961 46 90 C34.78 90 23.56 90 12 90 C10.85000341 73.9000478 9.78020529 57.80271574 8.875 41.6875 C8.83070862 40.91200806 8.78641724 40.13651611 8.74078369 39.33752441 C8.6137272 37.10405492 8.48991592 34.87042982 8.3671875 32.63671875 C8.29612793 31.35498779 8.22506836 30.07325684 8.15185547 28.75268555 C7.99299222 24.8268222 7.97440745 20.92845572 8 17 C5.36 17 2.72 17 0 17 C0 11.39 0 5.78 0 0 Z " fill="#2A4083" transform="translate(94,13)"/>
<path d="M0 0 C1.40185547 0.28037109 1.40185547 0.28037109 2.83203125 0.56640625 C3.54746094 0.70949219 4.26289063 0.85257813 5 1 C4.54625 2.19625 4.0925 3.3925 3.625 4.625 C1.80509301 10.00746076 1.12120621 15.4354548 0.4296875 21.05859375 C0 24 0 24 -1 26 C-6.28 26 -11.56 26 -17 26 C-17 23.69 -17 21.38 -17 19 C-18.91595968 18.91866209 -20.83291932 18.86065633 -22.75 18.8125 C-23.81734375 18.77769531 -24.8846875 18.74289063 -25.984375 18.70703125 C-29.33728161 19.032767 -30.65489791 19.62147603 -33 22 C-33.75060849 24.91382729 -33.75060849 24.91382729 -33 28 C-29.26157978 32.44743095 -25.12150726 34.72040227 -20.0625 37.3125 C-7.93378778 43.96165287 -7.93378778 43.96165287 -6 50 C-4.7295213 58.61203062 -4.84478066 66.49375174 -10.10546875 73.82421875 C-17.48406073 82.29818933 -26.69462786 89.04231764 -38 91 C-42.71059368 91.31488928 -47.40527119 91.3245156 -52.125 91.3125 C-53.36765625 91.32861328 -54.6103125 91.34472656 -55.890625 91.36132812 C-64.04705692 91.36558514 -72.31096423 90.98293605 -80 88 C-81.17064786 84.48805643 -80.7566793 83.23391962 -79.8203125 79.7109375 C-79.55089844 78.68742187 -79.28148437 77.66390625 -79.00390625 76.609375 C-78.71386719 75.54203125 -78.42382812 74.4746875 -78.125 73.375 C-77.84269531 72.29992187 -77.56039062 71.22484375 -77.26953125 70.1171875 C-75.14585574 62.14585574 -75.14585574 62.14585574 -74 61 C-71.13732433 60.92674832 -68.299281 60.90761795 -65.4375 60.9375 C-64.63119141 60.94201172 -63.82488281 60.94652344 -62.99414062 60.95117188 C-60.99606244 60.96299482 -58.99802217 60.98093086 -57 61 C-57 64.3 -57 67.6 -57 71 C-54.93690624 70.88521587 -52.87451646 70.75773802 -50.8125 70.625 C-49.08966797 70.52058594 -49.08966797 70.52058594 -47.33203125 70.4140625 C-44.17304206 70.02150347 -41.8281068 69.43731936 -39 68 C-37.50894221 65.01788442 -37.49005339 63.31465295 -38 60 C-41.25662343 55.80209339 -45.85404775 53.4960377 -50.5 51.125 C-56.90316185 47.77809284 -62.36404186 42.89498309 -65 36 C-65.86777952 28.15344622 -66.0744625 20.60789389 -61.5390625 13.85546875 C-46.77014528 -3.94969795 -20.94341052 -4.39394677 0 0 Z " fill="#283F82" transform="translate(256,14)"/>
<path d="M0 0 C28.05 0 56.1 0 85 0 C83.875 9 83.875 9 83.02734375 12.9375 C82.78745728 14.06478516 82.78745728 14.06478516 82.54272461 15.21484375 C82.24313843 16.59349609 82.24313843 16.59349609 81.9375 18 C80.9784375 22.455 80.9784375 22.455 80 27 C73.4 27 66.8 27 60 27 C60.33 24.36 60.66 21.72 61 19 C58.69 19 56.38 19 54 19 C50.95794445 31.01208851 48.0841021 43.05809444 45.27368164 55.1262207 C44.75261576 57.36176143 44.2298863 59.59690843 43.70703125 61.83203125 C43.54975052 62.51006302 43.39246979 63.18809479 43.23042297 63.88667297 C42.58572485 66.64119197 41.89534864 69.31395409 41 72 C44.96 72 48.92 72 53 72 C51.125 83.375 51.125 83.375 50 89 C32.51 89 15.02 89 -3 89 C-0 77 -0 77 2 72 C6.95 71.505 6.95 71.505 12 71 C12.16081055 70.24605957 12.32162109 69.49211914 12.48730469 68.71533203 C17.89465817 43.37945112 17.89465817 43.37945112 20.25 32.6875 C20.47574707 31.65230225 20.47574707 31.65230225 20.70605469 30.59619141 C21.64948501 26.34227466 22.7680094 22.17688042 24 18 C20.04 18.495 20.04 18.495 16 19 C15.34 21.64 14.68 24.28 14 27 C7.4 27 0.8 27 -6 27 C-4.08540862 17.97406922 -2.07547137 8.99370925 0 0 Z " fill="#283F82" transform="translate(6,14)"/>
<path d="M0 0 C1.64651567 1.155854 3.24388642 2.38125486 4.828125 3.62109375 C3.508125 5.27109375 2.188125 6.92109375 0.828125 8.62109375 C0.085625 8.45609375 -0.656875 8.29109375 -1.421875 8.12109375 C-19.06860389 5.76819656 -30.27478952 12.84664079 -44.171875 22.62109375 C-45.96576806 23.87758185 -47.76029585 25.13311143 -49.55688477 26.38574219 C-51.13251705 27.48737768 -52.7012745 28.5988275 -54.26953125 29.7109375 C-60.01564445 33.49269975 -64.14539551 35.06940548 -71.046875 34.80859375 C-71.73523438 34.79505859 -72.42359375 34.78152344 -73.1328125 34.76757812 C-74.81284501 34.73257745 -76.4924685 34.67878329 -78.171875 34.62109375 C-75.10697012 32.98407397 -72.03418761 31.88412213 -68.734375 30.80859375 C-64.11477273 29.14995995 -61.30468351 27.51337099 -58.171875 23.62109375 C-57.40875 22.69296875 -56.645625 21.76484375 -55.859375 20.80859375 C-55.3025 20.08671875 -54.745625 19.36484375 -54.171875 18.62109375 C-55.821875 18.62109375 -57.471875 18.62109375 -59.171875 18.62109375 C-55.03177229 14.08033594 -50.34797324 10.90267237 -45.171875 7.62109375 C-45.666875 5.64109375 -45.666875 5.64109375 -46.171875 3.62109375 C-40.74466487 -0.12027999 -35.52186323 -2.61236817 -29.171875 -4.37890625 C-28.55054688 -4.56324219 -27.92921875 -4.74757813 -27.2890625 -4.9375 C-17.44397006 -6.99007462 -8.41200165 -5.34071328 0 0 Z " fill="#EE3742" transform="translate(487.171875,5.37890625)"/>
<path d="M0 0 C6.28018829 2.37244693 12.05399796 6.0447665 17.625 9.7421875 C20.31209605 11.16528771 21.98066724 11.3738302 25 11.3125 C26.2375 11.30669922 26.2375 11.30669922 27.5 11.30078125 C30.03564169 11.11478275 30.03564169 11.11478275 32.33984375 9.99609375 C35.83446397 8.68753552 38.84021213 8.73521435 42.5625 8.75 C43.86316406 8.74484375 45.16382813 8.7396875 46.50390625 8.734375 C49.66829413 8.97479777 51.37357522 9.31588029 54 11 C53.18660156 11.18433594 52.37320313 11.36867188 51.53515625 11.55859375 C43.25126251 13.65519228 36.41631013 16.57330732 29.12719727 21.00170898 C24.12574527 23.89652355 19.77093901 25.26165763 14 24 C11.04211328 22.55898715 8.60325052 20.70120063 6.0625 18.625 C5.40443359 18.11710937 4.74636719 17.60921875 4.06835938 17.0859375 C1.58127305 15.15125417 -0.770267 13.229733 -3 11 C-2.01 10.67 -1.02 10.34 0 10 C-3.60742391 6.04901191 -6.99794841 5.82811141 -12.1875 5.4375 C-13.27417969 5.35371094 -14.36085938 5.26992188 -15.48046875 5.18359375 C-16.31191406 5.12300781 -17.14335937 5.06242187 -18 5 C-18 4.34 -18 3.68 -18 3 C-12.36970999 -1.17631402 -6.73035946 -1.13832718 0 0 Z " fill="#EE3C46" transform="translate(320,23)"/>
<path d="M0 0 C-4.95 0 -9.9 0 -15 0 C-8.48873247 -3.25563377 -6.62683628 -3.31341814 0 0 Z " fill="#F0535D" transform="translate(424,40)"/>
</svg>
