<?xml version="1.0" encoding="UTF-8"?>
<svg version="1.1" xmlns="http://www.w3.org/2000/svg" width="2250" height="467">
<path d="M0 0 C1.22267578 0.49218018 2.44535156 0.98436035 3.70507812 1.49145508 C17.7281462 7.16626022 31.5621665 13.28698373 45.3828125 19.43426514 C48.2355278 20.70181878 51.09040748 21.9644571 53.94526672 23.22717285 C63.80603628 27.58921267 73.65520701 31.97703724 83.5 36.375 C84.29339783 36.72927063 85.08679565 37.08354126 85.90423584 37.44854736 C112.20905344 49.19658063 138.4058249 61.1661128 164.5 73.375 C165.32409363 73.76040955 166.14818726 74.14581909 166.99725342 74.54290771 C184.20162224 82.59292989 201.3692726 90.72110785 218.39376831 99.14614868 C219.77754586 99.83030825 221.1625434 100.51200682 222.54885864 101.19100952 C224.4535009 102.12553231 226.35239495 103.07081668 228.25 104.01953125 C229.31734375 104.54909424 230.3846875 105.07865723 231.484375 105.62426758 C238.28214078 109.57073604 242.1896408 113.80433145 244.5 121.375 C245.16067713 126.84918196 244.09956453 130.53443157 241.5 135.375 C238.25320754 138.98009307 235.16571301 141.36789556 230.86328125 143.58203125 C229.74655029 144.16017578 228.62981934 144.73832031 227.47924805 145.33398438 C226.25733938 145.95249642 225.03507889 146.57031381 223.8125 147.1875 C222.52443539 147.8455856 221.23643224 148.50379151 219.94848633 149.16210938 C206.73934238 155.87792549 193.32719864 162.1650905 179.88821411 168.40457153 C175.04843436 170.65162932 170.21679999 172.91528473 165.390625 175.19140625 C152.63910995 181.20118668 139.8603131 187.1382579 127.01196289 192.93841553 C103.8211944 203.40865039 80.80358901 214.34357591 58.22265625 226.078125 C55.5 227.375 55.5 227.375 53.5 227.375 C53.5 228.035 53.5 228.695 53.5 229.375 C54.32242187 229.61605469 55.14484375 229.85710937 55.9921875 230.10546875 C60.12165382 231.59998607 63.78204479 233.58145969 67.625 235.6875 C77.17684561 240.81143724 86.94954522 245.37506317 96.7958374 249.90055847 C97.4084845 250.18216324 98.02113159 250.46376801 98.65234375 250.75390625 C99.27610901 251.04046585 99.89987427 251.32702545 100.5425415 251.62226868 C108.55747166 255.31126431 116.52627588 259.0980171 124.5 262.875 C135.3756564 268.02367043 146.26545133 273.13792534 157.1875 278.1875 C168.08508753 283.22783904 178.9224218 288.38423032 189.734375 293.60546875 C193.33712948 295.3430646 196.9485611 297.05742362 200.578125 298.73828125 C208.96146051 302.6248215 217.19407824 306.70776531 225.3125 311.125 C226.14305908 311.57302979 226.97361816 312.02105957 227.8293457 312.48266602 C234.07244708 315.93339142 240.55928301 319.56491856 243.5 326.375 C244.75237531 331.10317056 245.02124072 335.0342268 243 339.5625 C237.99811348 347.81219572 229.74394886 351.65521482 221.375 355.875 C220.1807057 356.48454805 218.98661839 357.09450182 217.79272461 357.70483398 C198.85687746 367.34710043 179.64985105 376.43502548 160.36035156 385.34448242 C151.87559923 389.26346723 143.41865792 393.2379862 134.96878052 397.23144531 C119.01068252 404.76951626 102.97951345 412.13404296 86.89208984 419.39160156 C83.09005175 421.10729997 79.291324 422.83021978 75.49311829 424.55438232 C56.62770455 433.11475498 37.70004338 441.52122854 18.6875 449.75 C17.28121841 450.3602301 17.28121841 450.3602301 15.8465271 450.98278809 C10.76943624 453.18378823 5.6838123 455.36137103 0.57904053 457.49743652 C-1.24877838 458.2689593 -3.06555594 459.06653114 -4.88037109 459.86816406 C-11.15771477 462.47565932 -15.12698176 462.7540679 -21.5 460.375 C-22.84916504 459.8802417 -22.84916504 459.8802417 -24.22558594 459.37548828 C-27.46959528 458.12277221 -30.67167363 456.79085908 -33.875 455.4375 C-35.12644419 454.91352488 -36.37790979 454.38960092 -37.62939453 453.86572266 C-74.45195599 438.38101435 -110.83321937 421.78124925 -146.875 404.5625 C-147.84260254 404.10109619 -148.81020508 403.63969238 -149.80712891 403.16430664 C-152.38307229 401.92310293 -154.94455448 400.65780721 -157.5 399.375 C-158.36399414 398.94912598 -159.22798828 398.52325195 -160.11816406 398.08447266 C-160.93768555 397.66085449 -161.75720703 397.23723633 -162.6015625 396.80078125 C-163.32939941 396.42993408 -164.05723633 396.05908691 -164.80712891 395.67700195 C-166.90091239 394.06665477 -167.14394916 392.94229611 -167.5 390.375 C-162.43358379 385.7279667 -157.42812212 382.41864192 -151.3125 379.3125 C-150.40306641 378.84408691 -149.49363281 378.37567383 -148.55664062 377.89306641 C-137.04934917 372.03330045 -125.3005804 366.68207756 -113.55761719 361.31628418 C-109.85918132 359.62438581 -106.16410642 357.92517363 -102.46875 356.2265625 C-100.89982299 355.50552944 -99.33089394 354.78450083 -97.76196289 354.06347656 C-96.9774173 353.70290161 -96.1928717 353.34232666 -95.384552 352.9708252 C-92.21405085 351.51381564 -89.04331012 350.05732788 -85.87257385 348.60083008 C-82.80412537 347.19119287 -79.73589161 345.78108863 -76.66766357 344.37097168 C-74.60434508 343.42294321 -72.54072334 342.47557775 -70.47705078 341.52832031 C-38.14058709 327.80660965 -38.14058709 327.80660965 -8.2578125 309.65625 C-6.5 308.375 -6.5 308.375 -4.5 308.375 C-8.31925839 303.23745716 -12.32004317 300.22574725 -17.8125 297 C-18.59995605 296.52884766 -19.38741211 296.05769531 -20.19873047 295.57226562 C-27.75203626 291.11259299 -35.48589419 286.95006579 -43.5 283.375 C-44.14549805 283.08367187 -44.79099609 282.79234375 -45.45605469 282.4921875 C-52.55040849 279.53419098 -57.92029092 279.60475835 -65.0625 282.2890625 C-67.21478041 283.17724353 -69.36025723 284.08202539 -71.5 285 C-72.67860596 285.49363037 -73.85721191 285.98726074 -75.0715332 286.49584961 C-78.89084212 288.09958281 -82.69590726 289.73557322 -86.5 291.375 C-87.74654954 291.9100692 -88.99313131 292.44506331 -90.23974609 292.97998047 C-116.76315715 304.38170685 -143.04171616 316.35408955 -169.328125 328.2890625 C-201.19771058 342.75596717 -201.19771058 342.75596717 -215.58807373 349.03964233 C-217.42425197 349.84190422 -219.25831649 350.64899863 -221.09228516 351.45629883 C-227.46439806 354.21822983 -233.78789182 356.57954894 -240.5 358.375 C-244.04847707 347.25643852 -243.63426948 335.97267829 -243.59765625 324.43359375 C-243.59578838 322.69767803 -243.59436622 320.96176178 -243.59336853 319.22584534 C-243.58957241 314.68360915 -243.5797673 310.14140555 -243.56866455 305.59918213 C-243.55838761 300.95349569 -243.55385751 296.30780393 -243.54882812 291.66210938 C-243.5381421 282.56639203 -243.52110104 273.47069874 -243.5 264.375 C-242.35040298 263.84736053 -241.20080597 263.31972107 -240.01637268 262.77609253 C-214.41243878 251.02610086 -214.41243878 251.02610086 -188.9375 239 C-187.31074341 238.22619995 -187.31074341 238.22619995 -185.65112305 237.43676758 C-179.6110555 234.52909929 -179.6110555 234.52909929 -173.91015625 231.0234375 C-171.5 229.375 -171.5 229.375 -169.5 229.375 C-169.5 228.715 -169.5 228.055 -169.5 227.375 C-170.16902344 227.12878906 -170.83804688 226.88257813 -171.52734375 226.62890625 C-174.40954238 225.41315623 -177.12130117 224.00256682 -179.86645508 222.50708008 C-191.81159251 216.00929715 -204.11571257 210.28304017 -216.42993164 204.52905273 C-217.18485901 204.17573883 -217.93978638 203.82242493 -218.71759033 203.45840454 C-220.11437801 202.80522031 -221.5119454 202.15369863 -222.9105835 201.50448608 C-229.84192593 198.26613799 -236.6660038 194.81256252 -243.5 191.375 C-243.54657672 181.42960257 -243.5819969 171.48423159 -243.60362434 161.53874683 C-243.61401043 156.91942777 -243.62807376 152.30018397 -243.65087891 147.6809082 C-243.67279355 143.21346496 -243.68460741 138.74609359 -243.68975449 134.27860069 C-243.69341712 132.58397988 -243.70056809 130.88936249 -243.71146011 129.19477272 C-243.86003859 105.09507719 -243.86003859 105.09507719 -240.5 98.375 C-233.87450489 100.22019874 -227.61863035 102.44550248 -221.34765625 105.26171875 C-220.50243912 105.63572311 -219.65722198 106.00972748 -218.78639221 106.39506531 C-216.04235002 107.6114709 -213.30235839 108.83670333 -210.5625 110.0625 C-208.63799552 110.91844062 -206.71335175 111.77406811 -204.78857422 112.62939453 C-189.99499572 119.21440886 -175.26278546 125.93116942 -160.546875 132.6875 C-135.40459031 144.2301456 -110.08436582 155.38932323 -84.71105957 166.41369629 C-82.69158567 167.29170418 -80.67331781 168.17242404 -78.65527344 169.05371094 C-75.5895276 170.38606655 -72.51644632 171.69850843 -69.4375 173 C-68.6132251 173.3599707 -67.7889502 173.71994141 -66.93969727 174.09082031 C-60.54630085 176.7412581 -55.65062779 177.4036374 -48.88671875 175.1953125 C-47.64581997 174.6476066 -46.41291301 174.08152773 -45.1875 173.5 C-44.51307861 173.19118896 -43.83865723 172.88237793 -43.14379883 172.56420898 C-20.97861031 163.09510428 -20.97861031 163.09510428 -3.5 147.375 C-4.19351563 147.12105469 -4.88703125 146.86710938 -5.6015625 146.60546875 C-8.21896411 145.49430769 -10.60325658 144.20825719 -13.04785156 142.76342773 C-33.74261389 130.57718808 -56.05154244 121.0290561 -78.00048828 111.3659668 C-91.41229168 105.45549937 -104.67768711 99.25772828 -117.92855835 92.99662781 C-124.24449029 90.0158699 -130.5899814 87.10029723 -136.9375 84.1875 C-149.53140619 78.40089846 -162.02516262 72.41340377 -174.5 66.375 C-174.5 65.715 -174.5 65.055 -174.5 64.375 C-156.4773455 55.83545668 -138.42364533 47.37712026 -120.24975586 39.16381836 C-112.81157067 35.80017647 -105.38919204 32.40592247 -97.98828125 28.9609375 C-81.8675295 21.46086456 -65.72137882 14.06019214 -49.375 7.0625 C-48.65950989 6.75562256 -47.94401978 6.44874512 -47.20684814 6.13256836 C-42.65046391 4.18215607 -38.07963637 2.27016805 -33.5 0.375 C-31.72157715 -0.37982666 -31.72157715 -0.37982666 -29.90722656 -1.14990234 C-17.8281228 -6.09987118 -11.97774528 -4.92472715 0 0 Z " fill="#000000" transform="translate(243.5,4.625)"/>
<path d="M0 0 C28.648125 -0.020625 57.29625 -0.04125 86.8125 -0.0625 C100.27381714 -0.07615601 100.27381714 -0.07615601 114.00708008 -0.09008789 C125.14782715 -0.09460449 125.14782715 -0.09460449 130.39848328 -0.09544373 C133.98861843 -0.09635817 137.57873809 -0.10003449 141.16886902 -0.10557556 C159.83486147 -0.13305765 178.4879033 -0.08868504 197.1472168 0.45532227 C197.84538438 0.47559475 198.54355197 0.49586723 199.26287615 0.51675403 C275.03335616 2.78101576 275.03335616 2.78101576 299 26 C308.67332259 36.82446654 310.34394189 48.17956705 310.5 62.1875 C310.52791626 63.84458984 310.52791626 63.84458984 310.55639648 65.53515625 C310.47480215 76.1059795 307.48136666 85.33443303 300 93 C295.48418252 96.8732743 290.76605052 100.4426144 286 104 C284.50998011 105.12311898 283.02040736 106.24683138 281.53125 107.37109375 C277.69709003 110.26038612 273.8515066 113.13387885 270 116 C270.53367187 116.32685791 271.06734375 116.65371582 271.6171875 116.99047852 C274.08295378 118.50678613 276.54143442 120.03454702 279 121.5625 C280.25876953 122.33303711 280.25876953 122.33303711 281.54296875 123.11914062 C295.70130437 131.95438107 306.35708364 143.72571549 310.57421875 160.25 C312.91102782 175.34278518 310.75999905 189.65173867 302.03125 202.375 C289.85218412 218.11410052 272.28429702 227.59273625 252.64404297 230.328125 C239.6098335 231.76969655 226.51961071 232.20942721 213.42016602 232.52514648 C212.60002742 232.54579442 211.77988882 232.56644235 210.93489754 232.58771598 C193.57983788 233.02442769 176.22359094 233.29080685 158.86455989 233.50525212 C154.71002464 233.55702398 150.55552364 233.61143833 146.40101624 233.66539001 C139.43916 233.75539134 132.47727996 233.84331359 125.51538086 233.92993164 C117.583212 234.02865055 109.65109472 234.13091214 101.71899503 234.23503023 C93.93641999 234.33708346 86.15381177 234.43637594 78.37118721 234.53457451 C75.12781129 234.57555123 71.88444925 234.61743291 68.64109612 234.66017342 C67.46965574 234.67545313 67.46965574 234.67545313 66.2745499 234.69104153 C64.85778174 234.70954237 63.44101646 234.72826765 62.02425581 234.74733537 C41.34569894 235.01567743 20.68348831 235 0 235 C0 157.45 0 79.9 0 0 Z M76 51 C76 76.41 76 101.82 76 128 C79.42793907 124.57206093 82.04820824 121.21941552 84.6953125 117.22265625 C85.34558914 116.25011147 85.34558914 116.25011147 86.00900269 115.25791931 C86.92054345 113.89196386 87.82977426 112.5244644 88.73681641 111.15551758 C90.12107467 109.06841836 91.51506099 106.98806952 92.91015625 104.90820312 C93.79746721 103.57591506 94.68420541 102.24324531 95.5703125 100.91015625 C95.9849173 100.29229752 96.39952209 99.67443878 96.82669067 99.03785706 C98.96627074 95.79366447 100.71579523 92.67268689 102 89 C102.56130615 89.01047363 103.1226123 89.02094727 103.70092773 89.03173828 C134.34296988 89.50783649 165.22968652 88.40840687 195.75 85.625 C197.51972168 85.47260864 197.51972168 85.47260864 199.32519531 85.31713867 C208.97585303 84.3350357 218.81658938 82.46706844 227 77 C229.26749868 74.08464455 229.53799019 70.81344247 229.44921875 67.16015625 C228.39148723 62.0738473 224.6266115 58.35550958 220.75 55.125 C208.98157105 50.3106427 195.10084146 50.84431441 182.6003418 50.88647461 C181.43776855 50.88632858 180.27519531 50.88618256 179.07739258 50.8860321 C175.28464811 50.8867215 171.4919545 50.89446772 167.69921875 50.90234375 C165.04978858 50.9042114 162.40036113 50.90568294 159.75093079 50.90663147 C153.52168652 50.9097207 147.29246012 50.91790111 141.06322366 50.92798096 C133.26415776 50.94032297 125.46508887 50.94574383 117.66601562 50.95117188 C103.77732988 50.96086833 89.88868305 50.98090757 76 51 Z M76 134 C75.97647356 141.93006268 75.95888537 149.86010996 75.94818783 157.79019928 C75.94304473 161.47538007 75.93611051 165.16053641 75.92456055 168.84570312 C75.88086086 183.22385593 75.86432121 197.59744382 76.37890625 211.96875 C76.40951645 212.96765259 76.44012665 213.96655518 76.47166443 214.99572754 C76.51009964 215.89883667 76.54853485 216.8019458 76.58813477 217.73242188 C76.63466942 218.90508606 76.63466942 218.90508606 76.68214417 220.10144043 C76.85097749 222.23807221 76.85097749 222.23807221 79 224 C79.65226563 222.94941406 80.30453125 221.89882813 80.9765625 220.81640625 C83.22962281 217.1924248 85.49721919 213.57775475 87.76953125 209.96582031 C88.76378273 208.37738521 89.74355549 206.77989303 90.71875 205.1796875 C97.02636184 195.12255084 104.62690451 190.3220382 116 187 C129.98517945 183.8048841 144.76973512 183.96026698 159.05078125 183.75390625 C160.20615387 183.73719879 161.36152649 183.72049133 162.5519104 183.70327759 C167.35364033 183.63705622 172.15536659 183.57497897 176.95727539 183.52319336 C180.50943574 183.48321689 184.06129282 183.4317975 187.61328125 183.37890625 C189.21215935 183.36628502 189.21215935 183.36628502 190.84333801 183.35340881 C201.32795444 183.1832366 212.51399106 182.96353189 220.625 175.625 C225.24510283 170.51857056 228.5827001 166.6861491 229.375 159.6875 C228.60082026 152.07473251 225.01165484 147.51450985 219.390625 142.54296875 C204.86587452 133.16833404 182.57064517 135.42823968 166 135 C165.17058899 134.97808594 164.34117798 134.95617187 163.4866333 134.93359375 C134.32127763 134.16771147 105.17480565 133.85035019 76 134 Z " fill="#000000" transform="translate(720,116)"/>
<path d="M0 0 C2.16180791 -0.03641401 4.32354332 -0.0773863 6.48518372 -0.12266541 C11.0054702 -0.19252533 15.51793383 -0.18614626 20.03833008 -0.12915039 C24.65121271 -0.07824726 29.23899627 -0.14039416 33.84887695 -0.3137207 C71.87058516 -1.73494717 71.87058516 -1.73494717 80.44616699 5.75479126 C85.92539003 11.5962953 89.04949599 18.80658458 91.64342594 26.28965569 C94.12061817 33.41955941 98.0693811 39.47420872 102.14453125 45.78515625 C102.9397905 47.07869142 103.73125306 48.37458856 104.51513672 49.67504883 C105.44156982 51.19328247 105.44156982 51.19328247 106.38671875 52.7421875 C111.07817686 60.44782672 115.67527782 68.20880886 120.26953125 75.97265625 C126.27155321 86.11436554 132.323388 96.22248822 138.45703125 106.28515625 C145.41541484 117.70159824 152.25304167 129.18509548 159.0546875 140.6953125 C163.7825798 148.6940279 168.56589132 156.65902757 173.35595703 164.62060547 C174.76602869 166.96682832 176.17264295 169.31508781 177.578125 171.6640625 C183.07496452 180.84769203 188.60646477 190.00971396 194.16546631 199.15582275 C196.3365626 202.72854781 198.50562219 206.30251003 200.67474365 209.87643433 C202.34781814 212.63266063 204.02245977 215.38791204 205.69970703 218.14160156 C207.41452749 220.95785556 209.12398209 223.77729214 210.83203125 226.59765625 C211.59193359 227.84095703 211.59193359 227.84095703 212.3671875 229.109375 C212.8209375 229.86089844 213.2746875 230.61242187 213.7421875 231.38671875 C214.13672119 232.03592285 214.53125488 232.68512695 214.93774414 233.35400391 C215.76953125 234.97265625 215.76953125 234.97265625 215.76953125 236.97265625 C186.39953125 236.97265625 157.02953125 236.97265625 126.76953125 236.97265625 C119.05761614 223.32849875 111.3542685 209.68681998 103.76953125 195.97265625 C103.21460401 195.96842431 102.65967676 195.96419237 102.08793354 195.95983219 C88.53072264 195.85613348 74.97356014 195.74738418 61.41643238 195.63331699 C54.86007578 195.57830304 48.30371459 195.52491915 41.74731445 195.4753418 C35.41249178 195.42737861 29.07771878 195.37502741 22.74295616 195.3197155 C20.3338413 195.29943574 17.9247129 195.28070039 15.5155735 195.26358223 C-15.79671299 195.03858415 -15.79671299 195.03858415 -23.23046875 192.97265625 C-22.00839867 187.16942293 -20.29785543 182.67826095 -17.16796875 177.66015625 C-16.7723877 177.01425537 -16.37680664 176.36835449 -15.96923828 175.70288086 C-12.21253223 169.70240079 -7.87480366 164.3097925 -3.23046875 158.97265625 C-2.62332031 158.20953125 -2.01617188 157.44640625 -1.390625 156.66015625 C5.55952851 148.08672425 12.65348537 146.40186037 23.41195679 145.19219971 C32.29263454 144.36520793 41.2348753 144.17679764 50.14453125 143.84765625 C52.34507805 143.76107417 54.54559928 143.67383964 56.74609375 143.5859375 C62.08696824 143.37399111 67.42810149 143.1700869 72.76953125 142.97265625 C64.97959813 127.6127589 56.87261539 112.59383757 47.76953125 97.97265625 C47.25471191 97.13943848 46.73989258 96.3062207 46.20947266 95.44775391 C40.3888693 86.03636644 34.49308886 76.77260665 27.76953125 67.97265625 C23.5252439 71.68135496 20.91397385 76.26943319 18.01953125 81.03515625 C17.45661377 81.95417725 16.89369629 82.87319824 16.3137207 83.82006836 C4.03939482 103.93469732 -7.77974789 124.30256147 -19.41992188 144.78808594 C-22.01580303 149.35398047 -24.62290735 153.91342586 -27.23046875 158.47265625 C-28.1940812 160.15881372 -29.15762153 161.8450124 -30.12109375 163.53125 C-32.40234375 167.5234375 -34.68359375 171.515625 -36.96484375 175.5078125 C-37.29045792 176.07764862 -37.61607208 176.64748474 -37.95155334 177.23458862 C-39.6367885 180.18379515 -41.32210091 183.13295747 -43.00756836 186.08203125 C-46.16594756 191.60845125 -49.32369839 197.13522653 -52.47872925 202.66355896 C-53.90688211 205.16591297 -55.33544639 207.668032 -56.76403809 210.1701355 C-57.75617536 211.90820015 -58.74772787 213.64659857 -59.73925781 215.38500977 C-60.35639648 216.46580811 -60.97353516 217.54660645 -61.609375 218.66015625 C-62.14119385 219.59214844 -62.6730127 220.52414062 -63.22094727 221.484375 C-63.68321213 222.23966995 -63.68321213 222.23966995 -64.15481567 223.01022339 C-65.3509717 225.10420964 -65.3509717 225.10420964 -66.46310425 227.993927 C-68.08273494 231.52131507 -69.55717469 234.14741577 -72.23046875 236.97265625 C-77.45352499 238.67125479 -82.50646943 238.42513058 -87.91796875 238.21484375 C-89.46381925 238.19749544 -91.00973422 238.18522652 -92.55566406 238.17776489 C-96.62264486 238.14338263 -100.68453871 238.03543375 -104.74969482 237.91320801 C-108.02944665 237.82654413 -111.30875966 237.79099419 -114.58943176 237.75866508 C-129.29568025 237.61143196 -143.67382491 237.22073242 -158.23046875 234.97265625 C-158.23046875 230.24548821 -156.60810004 227.60317422 -154.29296875 223.66015625 C-153.93912109 223.04076172 -153.58527344 222.42136719 -153.22070312 221.78320312 C-150.15582075 216.455023 -146.97146437 211.1971203 -143.80445862 205.92929077 C-141.11832979 201.4594274 -138.44896026 196.98001876 -135.79296875 192.4921875 C-135.42497665 191.87055222 -135.05698456 191.24891693 -134.67784119 190.60844421 C-133.92021929 189.32857303 -133.16261556 188.0486911 -132.4050293 186.76879883 C-125.56977452 175.22516028 -118.67443522 163.72161958 -111.69067383 152.26724243 C-105.55657401 142.20252131 -99.52701986 132.07829114 -93.5244751 121.93466187 C-87.9474133 112.51253538 -82.30890343 103.13127625 -76.60546875 93.78515625 C-70.51636139 83.806257 -64.56075174 73.75668423 -58.67245483 63.65814209 C-51.47611456 51.32256843 -44.22401699 38.99663432 -36.56054688 26.94418335 C-34.78610073 24.05145513 -33.35589649 21.10820693 -31.96777344 18.0128479 C-24.41536618 2.13046229 -16.96520635 -0.15276874 0 0 Z " fill="#000000" transform="translate(1793.23046875,113.02734375)"/>
<path d="M0 0 C0.92898102 -0.0455603 1.85796204 -0.09112061 2.81509399 -0.13806152 C12.56858578 -0.5820047 22.33423566 -0.77070904 32.09570312 -0.94140625 C36.71836008 -1.03022558 41.3279261 -1.19656058 45.9453125 -1.43359375 C84.30943619 -3.35763032 84.30943619 -3.35763032 92.61737061 3.52844238 C98.58922568 9.61061144 101.64689595 17.28641862 104.46841431 25.19819641 C106.95742669 31.48617447 110.65402724 36.98442464 114.30810547 42.6484375 C115.10089543 43.93909105 115.88954585 45.23232046 116.66992188 46.53051758 C117.28528809 47.54525146 117.9006543 48.55998535 118.53466797 49.60546875 C123.72107401 58.17056121 128.81198595 66.79221848 133.91009521 75.41003418 C138.67242151 83.45679751 143.47579988 91.46961959 148.43310547 99.3984375 C154.24312556 108.69110477 159.83348131 118.10734336 165.41259766 127.53955078 C171.0268443 137.02945302 176.69284036 146.48424082 182.43310547 155.8984375 C189.2853463 167.13847275 196.02967143 178.43966913 202.73510742 189.76782227 C206.84659029 196.71159758 210.97408123 203.64504284 215.13623047 210.55859375 C215.76822105 211.60883728 215.76822105 211.60883728 216.41297913 212.68029785 C218.438726 216.04569557 220.46717458 219.4094267 222.49926758 222.77099609 C223.22077337 223.96838215 223.94221274 225.16580824 224.66357422 226.36328125 C225.29674561 227.4112085 225.92991699 228.45913574 226.58227539 229.53881836 C227.93310547 231.8984375 227.93310547 231.8984375 227.93310547 232.8984375 C216.87345215 233.6583749 205.82710231 234.16650932 194.74560547 234.4609375 C193.60730789 234.49170883 193.60730789 234.49170883 192.4460144 234.52310181 C146.20273465 235.7579631 146.20273465 235.7579631 136.93310547 228.8984375 C131.37129154 223.57844157 128.01973716 217.02184173 124.37451172 210.32421875 C123.99440445 209.68121323 123.61429718 209.0382077 123.22267151 208.37571716 C121.93310547 205.8984375 121.93310547 205.8984375 120.99702454 202.88764954 C119.4626272 198.93126016 118.1257801 196.73527553 114.93310547 193.8984375 C107.4269952 191.54054529 98.982905 192.41684263 91.22216797 192.578125 C88.85151692 192.58315319 86.48084802 192.58258575 84.11019897 192.57669067 C77.86522685 192.57483951 71.62298773 192.64291987 65.37866211 192.72747803 C57.84351158 192.81812229 50.3079308 192.83383409 42.77231407 192.85333443 C36.8962978 192.86896426 31.02152336 192.89757871 25.14590454 192.96969604 C13.23784642 193.08959352 1.71235297 192.71513988 -10.06689453 190.8984375 C-9.03589676 183.18202858 -9.03589676 183.18202858 -7.31689453 180.1015625 C-6.96014648 179.45815918 -6.60339844 178.81475586 -6.23583984 178.15185547 C-5.85008789 177.49072754 -5.46433594 176.82959961 -5.06689453 176.1484375 C-4.66825195 175.45250488 -4.26960938 174.75657227 -3.85888672 174.03955078 C-0.17612919 167.77597455 4.13361075 162.35539725 8.93310547 156.8984375 C9.83201923 155.75501919 10.72844347 154.6096317 11.62060547 153.4609375 C19.82805357 144.36619771 33.14342687 143.2062268 44.85864258 142.60131836 C46.72575815 142.51844334 48.59304091 142.43927472 50.46044922 142.36328125 C51.44936661 142.32030411 52.438284 142.27732697 53.45716858 142.23304749 C56.59485154 142.0974302 59.7327132 141.96661282 62.87060547 141.8359375 C65.0066868 141.74445823 67.1427547 141.65266471 69.27880859 141.56054688 C74.49675756 141.33620596 79.71486133 141.11579844 84.93310547 140.8984375 C79.57061178 130.58981064 74.18450451 120.32764767 68.24560547 110.3359375 C67.05607872 108.316833 65.86730573 106.29728429 64.67919922 104.27734375 C64.07188965 103.24625488 63.46458008 102.21516602 62.83886719 101.15283203 C60.8236595 97.71154092 58.82946006 94.25886167 56.84326172 90.80078125 C56.50484756 90.21189621 56.16643341 89.62301117 55.81776428 89.01628113 C54.17843419 86.16252857 52.54147371 83.30745682 50.90698242 80.45092773 C47.37000981 74.26358198 47.37000981 74.26358198 43.50341797 68.28125 C41.93310547 65.8984375 41.93310547 65.8984375 41.93310547 63.8984375 C41.27310547 63.8984375 40.61310547 63.8984375 39.93310547 63.8984375 C39.68689453 64.4346875 39.44068359 64.9709375 39.18701172 65.5234375 C37.95752493 67.85218507 36.55814977 69.98949274 35.06713867 72.1574707 C21.52307081 91.8642138 9.67540098 112.83236635 -2.17236328 133.58154297 C-3.79642005 136.42489802 -5.42413972 139.26611161 -7.05403137 142.10612488 C-14.46221039 155.01527776 -21.80057415 167.96112887 -29.05932617 180.95507812 C-31.73231284 185.73723324 -34.41044845 190.51616323 -37.11376953 195.28125 C-37.5722226 196.09237747 -38.03067566 196.90350494 -38.50302124 197.73921204 C-39.48157874 199.44226872 -40.4799751 201.13424929 -41.5071106 202.80845642 C-44.33869791 207.48674528 -46.48400352 211.89495653 -48.13769531 217.11499023 C-50.75772618 224.33685501 -53.65424632 230.37836463 -60.06689453 234.8984375 C-72.85611675 239.43454234 -88.54513212 237.24253792 -101.82165527 236.54638672 C-107.03519343 236.29918167 -112.25150849 236.19092023 -117.46923828 236.0703125 C-127.67580176 235.81420358 -137.86993872 235.40567339 -148.06689453 234.8984375 C-146.36280386 230.51575419 -144.2899881 226.43956389 -142.00439453 222.3359375 C-141.57521729 221.56419189 -141.14604004 220.79244629 -140.70385742 219.99731445 C-136.28892005 212.15014138 -131.60118031 204.47101441 -126.90640259 196.78939819 C-121.40965727 187.79462785 -116.00561019 178.75251983 -110.69189453 169.6484375 C-109.27808345 167.22771766 -107.86401326 164.80714934 -106.44970703 162.38671875 C-106.09455521 161.77887543 -105.73940338 161.1710321 -105.37348938 160.54476929 C-94.5539291 142.04143614 -83.56075994 123.64152795 -72.41064453 105.33569336 C-67.26008827 96.87798597 -62.1541262 88.39436846 -57.06689453 79.8984375 C-50.60998816 69.11508138 -44.10180752 58.36440737 -37.5625 47.63085938 C-33.63061874 41.1672942 -29.73895786 34.68122301 -25.88330078 28.171875 C-25.2323217 27.07300461 -25.2323217 27.07300461 -24.56819153 25.95193481 C-22.44848623 22.3715754 -20.33263776 18.78899287 -18.22143555 15.20361328 C-17.4538002 13.90395708 -16.68614186 12.60431447 -15.91845703 11.3046875 C-15.57234879 10.71432709 -15.22624054 10.12396667 -14.86964417 9.51571655 C-13.95302568 7.9660583 -13.01097479 6.43152022 -12.06689453 4.8984375 C-11.72146606 4.19618042 -11.3760376 3.49392334 -11.0201416 2.77038574 C-7.84431598 -0.2732544 -4.25056952 0.14319554 0 0 Z " fill="#000000" transform="translate(1172.06689453125,115.1015625)"/>
<path d="M0 0 C24.75 0 49.5 0 75 0 C75.08060607 38.15353906 75.08060607 38.15353906 75.09765625 54.28125 C75.10947124 65.36720657 75.12327378 76.45313249 75.15087891 87.5390625 C75.17098389 95.61695364 75.18375643 103.69481965 75.18817699 111.77273512 C75.19075582 116.03916002 75.19669766 120.30551309 75.21146011 124.57191467 C75.45395352 197.61232772 75.45395352 197.61232772 58.3125 216.5 C42.19668226 230.92103768 17.80011137 231.56268937 -2.67578125 232.515625 C-3.57744019 232.55779648 -4.47909912 232.59996796 -5.40808105 232.64341736 C-15.93488321 233.11436338 -26.46511685 233.35832987 -37 233.5625 C-38.04216675 233.58301422 -39.0843335 233.60352844 -40.15808105 233.62466431 C-54.90368564 233.90872756 -69.65006105 234.12354429 -84.3984375 234.17623901 C-86.25978176 234.18358957 -88.12111694 234.19412561 -89.98242188 234.20828247 C-99.75297823 234.27637036 -109.43502337 234.03386716 -119.171875 233.17578125 C-120.0097052 233.10642868 -120.8475354 233.03707611 -121.71075439 232.96562195 C-132.43392671 231.90687074 -142.36740991 229.03321032 -149.89819336 220.96679688 C-155.02561205 214.66227687 -159.10515813 207.99686254 -162.95727539 200.87475586 C-163.95214246 199.03542877 -164.9601941 197.20382002 -165.97070312 195.37304688 C-170.82327378 186.53017867 -170.82327378 186.53017867 -172 183 C-170.97214433 182.99503478 -170.97214433 182.99503478 -169.9235239 182.98996925 C-153.1770141 182.90841272 -136.43059909 182.81621645 -119.68421268 182.71247292 C-111.58547375 182.66255254 -103.4867439 182.61610906 -95.38793945 182.578125 C-88.32123555 182.54497245 -81.2546068 182.50501691 -74.18798631 182.45720994 C-70.45334702 182.43217359 -66.71875609 182.41032779 -62.98405647 182.39665604 C-34.61889282 184.13603801 -34.61889282 184.13603801 -9.25 174.6875 C-0.53251592 164.27494957 -1.69580993 149.321019 -1.58935547 136.45751953 C-1.5701377 134.95792639 -1.55011433 133.45834339 -1.52935791 131.95877075 C-1.47589807 127.93500041 -1.43353925 123.91118468 -1.39335394 119.88726282 C-1.34923457 115.66449652 -1.29465521 111.44186488 -1.24124146 107.21920776 C-1.14192218 99.24407231 -1.05184931 91.26886103 -0.96519673 83.29357898 C-0.8473979 72.50168886 -0.71511593 61.70997655 -0.58369637 50.91824532 C-0.37738462 33.94561718 -0.19025117 16.97283337 0 0 Z " fill="#000000" transform="translate(2175,116)"/>
<path d="M0 0 C25.41 0 50.82 0 77 0 C77 18.69049094 76.93132663 37.3553334 76.59765625 56.0390625 C76.55506974 58.51125855 76.51262837 60.9834571 76.47032166 63.45565796 C76.38199961 68.583099 76.29188921 73.71050445 76.20043945 78.83789062 C76.08487191 85.32606611 75.97396877 91.81431152 75.86443424 98.30259132 C75.77798884 103.39062923 75.68897157 108.47861986 75.59924126 113.5666008 C75.55740751 115.95577007 75.51633321 118.3449528 75.4761219 120.73414993 C75.26269674 133.33137454 74.97118925 145.92211062 74.51733398 158.51318359 C74.45916425 160.15721885 74.45916425 160.15721885 74.39981937 161.83446693 C73.63411326 181.96554724 72.01665724 195.91798662 59 212 C58.40960937 212.76828125 57.81921875 213.5365625 57.2109375 214.328125 C48.16605494 225.5592114 34.82618282 229.51442198 20.9375 231.1875 C3.28197665 233.01841679 -14.51714939 233.24418049 -32.25 233.5625 C-33.36998383 233.58301422 -34.48996765 233.60352844 -35.64389038 233.62466431 C-52.97964392 233.93456582 -70.31592111 234.12750024 -87.65441895 234.17623901 C-90.06466882 234.18365869 -92.47491132 234.1942619 -94.88513184 234.20828247 C-134.32692881 234.41793229 -134.32692881 234.41793229 -147.5 222.0625 C-156.07624472 213.32597938 -161.64808567 203.04134295 -166.7734375 192.03125 C-167.18295654 191.15887695 -167.59247559 190.28650391 -168.0144043 189.38769531 C-169.0127198 187.25989876 -170.00784361 185.13067355 -171 183 C-169.97214433 182.99503478 -169.97214433 182.99503478 -168.9235239 182.98996925 C-152.1770141 182.90841272 -135.43059909 182.81621645 -118.68421268 182.71247292 C-110.58547375 182.66255254 -102.4867439 182.61610906 -94.38793945 182.578125 C-87.32123555 182.54497245 -80.2546068 182.50501691 -73.18798631 182.45720994 C-69.45334702 182.43217359 -65.71875609 182.41032779 -61.98405647 182.39665604 C-32.72292518 184.13607106 -32.72292518 184.13607106 -7.1875 173.375 C1.21225044 162.00564082 -0.85295427 144.32196588 -0.79467773 131.00830078 C-0.78506731 129.56782775 -0.77505556 128.12735736 -0.76467896 126.68688965 C-0.73796582 122.82422259 -0.71677747 118.96154374 -0.69667697 115.09883738 C-0.67460669 111.04429457 -0.6473223 106.98978669 -0.62062073 102.93527222 C-0.57097517 95.27882557 -0.52593361 87.62235923 -0.48259836 79.96587455 C-0.42368318 69.60457234 -0.35754996 59.24331627 -0.29184818 48.88205528 C-0.18871441 32.58806808 -0.09513291 16.29404043 0 0 Z " fill="#000000" transform="translate(1566,116)"/>
</svg>
