<?xml version="1.0" encoding="UTF-8"?>
<svg version="1.1" xmlns="http://www.w3.org/2000/svg" width="540" height="106">
<path d="M0 0 C0.89156799 -0.00358521 1.78313599 -0.00717041 2.70172119 -0.01086426 C12.11345896 -0.03117845 21.44323052 0.20376178 30.80859375 1.1875 C31.91475288 1.2994294 31.91475288 1.2994294 33.04325867 1.41362 C38.60853025 2.07093041 42.74354848 3.43463183 46.8125 7.3125 C47.6375 8.09625 48.4625 8.88 49.3125 9.6875 C51.68191023 13.8339679 51.38553005 17.17917126 50.1640625 21.7265625 C48.16559579 27.95940421 48.16559579 27.95940421 46.8125 29.3125 C42.03004698 29.74726846 38.81161605 29.48616708 34.4375 27.5 C8.31733451 16.28299418 -30.32632695 17.0609024 -56.1875 27.3125 C-57.6725 27.8075 -57.6725 27.8075 -59.1875 28.3125 C-59.30963894 30.65398231 -59.30963894 30.65398231 -58.1875 33.3125 C-51.10749501 38.82016886 -42.95546949 40.60796373 -34.4375 42.8125 C-22.51837606 45.92866486 -10.66062383 49.04328581 -0.1875 55.8125 C0.67875 56.3590625 1.545 56.905625 2.4375 57.46875 C5.86954975 60.13310441 8.38147967 62.59364315 9.45703125 66.8828125 C9.51246094 67.72585937 9.56789062 68.56890625 9.625 69.4375 C9.69332031 70.28570312 9.76164063 71.13390625 9.83203125 72.0078125 C9.8125 74.3125 9.8125 74.3125 8.8125 77.3125 C12.73011499 75.81496902 16.64654705 74.31437162 20.5625 72.8125 C21.73578857 72.36269775 22.90907715 71.91289551 24.11791992 71.44946289 C32.30793594 68.30031195 40.46670415 65.08266793 48.57910156 61.73828125 C55.09850505 59.08480878 60.74423974 57.75152696 67.8125 58.3125 C70.375 59.8125 70.375 59.8125 71.8125 62.3125 C71.58568268 68.89020239 69.61746128 73.24303877 66.25 78.8125 C65.82525391 79.53953125 65.40050781 80.2665625 64.96289062 81.015625 C63.92488217 82.78840348 62.87037842 84.55150643 61.8125 86.3125 C65.02998828 86.3125 66.82638156 86.16149364 69.77978516 85.2902832 C70.54803619 85.06617264 71.31628723 84.84206207 72.1078186 84.61116028 C73.34222183 84.24096016 73.34222183 84.24096016 74.6015625 83.86328125 C75.46002777 83.60878708 76.31849304 83.35429291 77.20297241 83.09208679 C79.02109257 82.5509715 80.83834587 82.00693627 82.65478516 81.46020508 C85.40349834 80.63520527 88.15649785 79.82589417 90.91015625 79.01757812 C106.24254256 74.49600294 106.24254256 74.49600294 119.8125 66.25 C129.44771478 58.68226046 140.93340569 57.55912596 152.8125 58.3125 C159.64222523 59.43564708 168.70775445 61.20775445 173.8125 66.3125 C173.85330783 68.31208364 173.85504356 70.31295254 173.8125 72.3125 C169.50179512 74.81548993 166.52635432 74.123246 161.9375 72.9609375 C159.8125 72.3125 159.8125 72.3125 157.3125 71.1875 C150.7425475 68.88801662 144.42815302 70.1785174 138.18359375 72.90625 C133.82009713 75.49415574 129.60050943 79.42456988 128.23266602 84.4375 C128.09401123 85.05625 127.95535645 85.675 127.8125 86.3125 C131.58512877 84.5245962 135.35528357 82.73153518 139.125 80.9375 C140.19685547 80.42960937 141.26871094 79.92171875 142.37304688 79.3984375 C143.40107422 78.90859375 144.42910156 78.41875 145.48828125 77.9140625 C146.43614502 77.46369629 147.38400879 77.01333008 148.3605957 76.54931641 C150.96820177 75.29574308 150.96820177 75.29574308 153.8125 73.3125 C160.39788855 72.44884248 160.39788855 72.44884248 163.66796875 74.4453125 C166.60882998 77.1137424 167.71994572 78.61173186 168.25 82.625 C167.8125 85.3125 167.8125 85.3125 166.8125 86.3125 C172.78998469 86.65750918 177.57857371 85.44077913 183.25 83.625 C184.11802246 83.35606934 184.98604492 83.08713867 185.88037109 82.81005859 C188.52770796 81.9876367 191.17047526 81.15181314 193.8125 80.3125 C196.15068085 79.57434742 198.48920171 78.83731502 200.82836914 78.10229492 C202.20769035 77.66753492 203.58584298 77.22904542 204.96264648 76.78637695 C209.59491816 75.3125 209.59491816 75.3125 211.8125 75.3125 C212.1528125 73.765625 212.1528125 73.765625 212.5 72.1875 C214.02278061 66.82513685 217.17660387 63.40309742 221.8125 60.3125 C226.83623786 59.84733909 229.74929582 60.29411975 233.8125 63.3125 C236.17203094 65.67203094 236.30391413 67.09145617 236.8125 70.3125 C237.401521 69.98975098 237.99054199 69.66700195 238.59741211 69.33447266 C241.3088243 67.85725896 244.02920295 66.39735087 246.75 64.9375 C247.67619141 64.42960937 248.60238281 63.92171875 249.55664062 63.3984375 C257.85322797 58.97359092 266.28561459 56.05701898 275.8125 57.3125 C278.23119578 58.4714584 279.93572096 59.43572096 281.8125 61.3125 C281.83203125 63.16796875 281.83203125 63.16796875 281.625 65.5 C281.54185547 66.63501953 281.54185547 66.63501953 281.45703125 67.79296875 C280.596447 71.1570708 278.8300921 73.51859992 276.8125 76.3125 C277.65167969 75.86261719 278.49085938 75.41273437 279.35546875 74.94921875 C282.68937759 73.16430831 286.02811078 71.38855885 289.36767578 69.61425781 C291.08091794 68.7020342 292.79271189 67.78708793 294.50341797 66.87011719 C297.31154865 65.36560435 300.12416111 63.86974707 302.9375 62.375 C303.83750732 61.8905542 304.73751465 61.4061084 305.66479492 60.90698242 C306.52049072 60.45427979 307.37618652 60.00157715 308.2578125 59.53515625 C309.39500732 58.92812866 309.39500732 58.92812866 310.55517578 58.30883789 C315.18853717 56.26376458 319.79080134 55.95380724 324.8125 56.3125 C327.12529611 57.46889806 328.98659828 58.48659828 330.8125 60.3125 C331.18224063 71.03497829 324.06839515 80.08241763 317.8125 88.3125 C326.11674946 87.12367336 333.99668161 85.31454314 342 82.8125 C343.10843262 82.47081787 344.21686523 82.12913574 345.35888672 81.77709961 C354.61967873 78.84819921 363.6085862 75.36307968 372.53979492 71.55078125 C378.03519957 69.24096615 382.81566364 67.46747442 388.8125 67.3125 C389.8025 67.9725 390.7925 68.6325 391.8125 69.3125 C391.8125 72.5625 391.8125 72.5625 390.8125 76.3125 C383.71610085 80.57741819 375.69792787 83.12305299 367.9375 85.9375 C367.22795166 86.19584625 366.51840332 86.4541925 365.78735352 86.72036743 C354.40356237 90.8472612 342.92433382 94.56945602 331.3125 98 C330.59547913 98.21400452 329.87845825 98.42800903 329.13970947 98.64849854 C321.72798647 100.84903054 314.55839316 102.82304035 306.8125 103.3125 C305.77480469 103.37953125 304.73710937 103.4465625 303.66796875 103.515625 C302.78753906 103.53109375 301.90710938 103.5465625 301 103.5625 C300.10667969 103.58828125 299.21335937 103.6140625 298.29296875 103.640625 C295.29080427 103.24348828 293.97442981 102.40626085 291.8125 100.3125 C290.05894028 94.46730093 291.19153129 89.65858187 293.8125 84.3125 C295.4113498 81.9275174 297.09197715 79.61088968 298.8125 77.3125 C286.60876731 83.26472929 274.54196777 89.50404581 262.87817383 96.46728516 C258.19917661 99.24561519 255.18781536 100.13626015 249.8125 100.3125 C247.375 99.5 247.375 99.5 245.8125 98.3125 C243.93617956 94.55985912 244.9780622 90.30232841 245.8125 86.3125 C247.24111094 82.83291296 248.93467989 79.56923598 250.8125 76.3125 C241.32570817 76.3125 232.23820148 85.05695071 225.8347168 91.39941406 C222.79547807 94.25037333 220.83032901 95.66052694 216.57421875 95.71484375 C211.99858268 95.2254455 209.08655265 94.58655265 205.8125 91.3125 C205.8125 90.3225 205.8125 89.3325 205.8125 88.3125 C204.73355469 88.68761719 203.65460938 89.06273438 202.54296875 89.44921875 C194.32455345 92.26926322 186.08751923 94.89652579 177.6875 97.125 C176.91946045 97.3314917 176.1514209 97.5379834 175.36010742 97.75073242 C166.72863287 99.98775658 156.43102823 102.30239542 147.8125 99.25 C145.09170233 96.61422726 144.74749613 93.92308775 143.8125 90.3125 C143.16176514 90.61019287 142.51103027 90.90788574 141.84057617 91.21459961 C138.894435 92.56130932 135.94723254 93.90568049 133 95.25 C131.97583984 95.71857422 130.95167969 96.18714844 129.89648438 96.66992188 C128.42211914 97.3418457 128.42211914 97.3418457 126.91796875 98.02734375 C126.01199951 98.44105225 125.10603027 98.85476074 124.17260742 99.28100586 C120.41812744 100.92191596 117.44917006 101.49616345 113.375 101.5625 C111.95380859 101.60117188 111.95380859 101.60117188 110.50390625 101.640625 C107.28044514 101.2476341 106.10678275 100.59131977 103.8125 98.3125 C103.421875 95.61328125 103.421875 95.61328125 103.5625 92.625 C103.59859375 91.63113281 103.6346875 90.63726562 103.671875 89.61328125 C103.71828125 88.85402344 103.7646875 88.09476562 103.8125 87.3125 C103.22083038 87.48567245 102.62916077 87.65884491 102.01956177 87.83726501 C95.82500396 89.64843134 89.62693983 91.44719786 83.42675781 93.23901367 C81.11757941 93.90808083 78.80929334 94.58023616 76.50195312 95.25561523 C73.17291041 96.22946085 69.84074805 97.19191762 66.5078125 98.15234375 C65.48761017 98.45341537 64.46740784 98.754487 63.41629028 99.06468201 C55.24327544 101.40099863 46.20448182 103.71020909 37.8125 101.3125 C34.97267272 98.38392811 34.8125 96.69828237 34.8125 92.625 C35.39827868 89.07876658 36.73380067 86.22805271 38.375 83.04296875 C38.83003906 82.15375732 39.28507813 81.2645459 39.75390625 80.34838867 C40.27791016 79.34062378 40.27791016 79.34062378 40.8125 78.3125 C39.86334717 78.62888428 38.91419434 78.94526855 37.9362793 79.27124023 C37.30164764 79.48276733 36.66701599 79.69429443 36.01315308 79.91223145 C34.57123837 80.39290417 33.12936551 80.87370247 31.68753052 81.35461426 C27.6366388 82.70553762 23.58499406 84.05413073 19.53198242 85.39868164 C12.10110477 87.86612298 4.67687872 90.34358257 -2.7109375 92.9375 C-43.9306442 107.32839048 -92.61019877 113.46299635 -133.9609375 95.88671875 C-139.74973573 93.06240194 -145.88799652 89.63613457 -148.1875 83.3125 C-148.40946418 79.96238951 -148.36319509 76.66372115 -148.1875 73.3125 C-133.22878567 65.03585095 -133.22878567 65.03585095 -127.1875 66.3125 C-125.04172327 67.82919359 -123.29037335 69.52234044 -121.44262695 71.38793945 C-114.73414992 77.11305848 -104.71063865 78.22405853 -96.25 79.4375 C-95.13536377 79.60072754 -94.02072754 79.76395508 -92.87231445 79.93212891 C-50.52964093 86.15150584 -50.52964093 86.15150584 -11.1875 72.3125 C-9.95674898 70.3952517 -9.95674898 70.3952517 -10.1875 68.3125 C-11.81491765 63.68423709 -14.9953132 62.30409462 -19.19702148 60.16796875 C-27.37649527 56.35400609 -36.32879389 54.46165865 -45.08496094 52.41699219 C-56.20980392 49.70579894 -67.73403334 45.7425704 -75.00390625 36.3515625 C-77.09442736 32.75007068 -77.38796368 30.52223738 -77.1875 26.3125 C-73.95790304 18.30871622 -67.62878333 13.25422027 -59.9375 9.625 C-58.02978031 8.83228269 -56.11289514 8.06126478 -54.1875 7.3125 C-53.31867188 6.95285156 -52.44984375 6.59320312 -51.5546875 6.22265625 C-34.99980327 -0.02669463 -17.44447787 0.02827368 0 0 Z " fill="#141414" transform="translate(148.1875,-0.3125)"/>
<path d="M0 0 C2.75 1.3125 2.75 1.3125 5 3 C5.8971875 3.6496875 5.8971875 3.6496875 6.8125 4.3125 C8.6918328 6.98313082 8.43767362 8.81123508 8 12 C6.36564595 15.03522895 4.944447 17.28352297 2.1875 19.375 C-2.12349205 20.60671201 -5.70834628 20.57406832 -9.8125 18.75 C-12.16264339 16.86988529 -12.90298862 15.75990193 -14 13 C-14.26649565 9.84646813 -13.94263547 7.02197843 -13 4 C-8.93628791 0.03304296 -5.57224057 -0.70919425 0 0 Z " fill="#1C1C1C" transform="translate(230,25)"/>
<path d="M0 0 C0 0.33 0 0.66 0 1 C-1.5159375 1.2784375 -1.5159375 1.2784375 -3.0625 1.5625 C-7.92651732 2.90258641 -10.75505217 6.31121432 -14 10 C-14 6.04435836 -12.59478606 4.89133304 -10 2 C-6.3558226 -0.4294516 -4.28758728 -0.16179575 0 0 Z " fill="#616161" transform="translate(377,60)"/>
</svg>
