<?xml version="1.0" encoding="UTF-8"?>
<svg version="1.1" xmlns="http://www.w3.org/2000/svg" width="1010" height="375">
<path d="M0 0 C52.47 0 104.94 0 159 0 C157.78020867 25.61561791 157.78020867 25.61561791 156.75 38 C156.68886017 38.74427246 156.62772034 39.48854492 156.56472778 40.25537109 C154.72829272 62.27520412 151.77774552 84.23011882 148 106 C148.25990723 105.44465576 148.51981445 104.88931152 148.78759766 104.31713867 C159.43353271 81.64318899 170.75961526 59.43903301 183.53515625 37.88671875 C187.66698196 30.90922512 191.62743798 23.83689232 195.56274414 16.74707031 C196.05766357 15.86245117 196.55258301 14.97783203 197.0625 14.06640625 C197.48660156 13.30271729 197.91070313 12.53902832 198.34765625 11.75219727 C199.16556641 10.38985962 199.16556641 10.38985962 200 9 C200.46690341 7.91020844 200.46690341 7.91020844 200.94323921 6.79840088 C202.36423036 3.9877787 203.64637903 2.11096397 206 0 C211.00562114 -1.34252629 215.95817729 -1.13944103 221.09326172 -1.02172852 C222.64092357 -1.01918825 224.18859627 -1.02061799 225.73625183 -1.02571106 C229.92886633 -1.02829004 234.1191563 -0.97544059 238.31123114 -0.91254544 C242.69533289 -0.85622308 247.07948999 -0.85099227 251.46389771 -0.84031677 C259.76217222 -0.81236073 268.05937763 -0.73853058 276.35718167 -0.64817137 C285.8055991 -0.54751949 295.25406803 -0.49807701 304.70288825 -0.45291245 C324.13586462 -0.3588783 343.56784631 -0.2006107 363 0 C359.90259733 11.52441279 359.90259733 11.52441279 358.11474609 17.00634766 C357.7778476 18.04336823 357.4409491 19.08038879 357.09384155 20.14883423 C356.74060822 21.22635956 356.38737488 22.30388489 356.0234375 23.4140625 C355.65272125 24.55032074 355.282005 25.68657898 354.90005493 26.85726929 C354.12318001 29.23584855 353.34495442 31.61398706 352.56542969 33.99169922 C351.36745522 37.64802735 350.17567609 41.30633659 348.984375 44.96484375 C348.22693158 47.28137071 347.46913208 49.59778128 346.7109375 51.9140625 C346.3536557 53.01183014 345.9963739 54.10959778 345.62826538 55.2406311 C345.13237411 56.74887955 345.13237411 56.74887955 344.62646484 58.28759766 C344.3357309 59.17597321 344.04499695 60.06434875 343.74545288 60.97964478 C343 63 343 63 342 64 C339.55169574 64.08843793 337.13179401 64.11528752 334.68359375 64.09765625 C333.95253922 64.0962413 333.22148468 64.09482635 332.46827698 64.09336853 C330.12464368 64.08775408 327.78110461 64.07519922 325.4375 64.0625 C323.85221492 64.05748686 322.26692834 64.05292363 320.68164062 64.04882812 C316.7877239 64.03777997 312.89387795 64.02050572 309 64 C308.90375336 64.57123596 308.80750671 65.14247192 308.70834351 65.73101807 C307.3724314 73.04163026 305.20822348 79.94537627 302.8515625 86.984375 C302.22485156 88.88160002 301.59814448 90.77882632 300.97161198 92.67611027 C300.31137435 94.67202289 299.64837559 96.66699814 298.98452759 98.66171265 C296.92985139 104.8363989 294.89197564 111.01663322 292.85412788 117.19688988 C292.40177208 118.5686123 291.94921026 119.94026681 291.49644279 121.31185341 C286.9879024 134.97189901 282.62225139 148.67454341 278.34033203 162.40722656 C278.00259514 163.48817345 278.00259514 163.48817345 277.65803528 164.59095764 C277.06920612 166.47756092 276.48331971 168.36508199 275.89770508 170.25268555 C275 173 275 173 274 175 C284.56 175 295.12 175 306 175 C301.15144385 196.81850267 292.95195301 217.75792136 286 239 C241.45 239 196.9 239 151 239 C156.76925359 219.3845378 156.76925359 219.3845378 159.734375 210.3125 C160.05786926 209.31790771 160.38136353 208.32331543 160.71466064 207.29858398 C161.38554148 205.23837252 162.05763645 203.17855602 162.73095703 201.11914062 C163.76615779 197.95054337 164.7953578 194.78003577 165.82421875 191.609375 C166.48141606 189.5936343 167.13895484 187.57800489 167.796875 185.5625 C168.10413513 184.61479736 168.41139526 183.66709473 168.72796631 182.69067383 C169.0120636 181.82466553 169.29616089 180.95865723 169.58886719 180.06640625 C169.83803894 179.30271729 170.08721069 178.53902832 170.34393311 177.75219727 C171 176 171 176 172 175 C173.63472882 174.91299658 175.27314055 174.89298937 176.91015625 174.90234375 C177.89951172 174.90556641 178.88886719 174.90878906 179.90820312 174.91210938 C180.94912109 174.92048828 181.99003906 174.92886719 183.0625 174.9375 C184.62967773 174.94426758 184.62967773 174.94426758 186.22851562 174.95117188 C188.8190666 174.96300087 191.40950559 174.97948311 194 175 C194.23251465 173.82107178 194.4650293 172.64214355 194.70458984 171.42749023 C196.24170336 164.53211943 198.52755097 157.86534145 200.7265625 151.16015625 C201.19820807 149.71086676 201.66942082 148.26143636 202.14022827 146.81187439 C203.3797479 142.99852665 204.6238742 139.18669981 205.86938477 135.37530518 C208.07711621 128.61782798 210.2781092 121.85815691 212.4765625 115.09765625 C212.83168285 114.00637861 212.83168285 114.00637861 213.19397736 112.89305496 C217.61203188 99.30701799 221.86208831 85.67421469 226 72 C225.36173279 73.10634796 225.36173279 73.10634796 224.71057129 74.23504639 C219.47210898 83.31513387 219.47210898 83.31513387 217.21679688 87.22363281 C213.86150052 93.03868982 210.50729982 98.85436926 207.15625 104.671875 C199.39061011 118.14993585 191.58241596 131.60227498 183.73388672 145.03222656 C180.81989163 150.01990952 177.91012396 155.01005772 175 160 C171.51377819 165.9777679 168.02675778 171.95505989 164.53515625 177.9296875 C157.81921588 189.42558599 151.13458913 200.93871021 144.50024414 212.48193359 C143.32555692 214.5231283 142.11834547 216.54588817 140.88232422 218.55053711 C139.38522562 221.29405282 138.41312477 223.60729986 137.43408203 226.52954102 C135.51892644 231.5827308 133.57120218 235.88070526 129 239 C119.58061876 241.68564859 109.25556513 240.67797164 99.57250977 240.16729736 C95.90025584 239.99217071 92.22602203 239.91550391 88.55078125 239.83007812 C81.36175267 239.64868036 74.18256945 239.35935376 67 239 C69.13719459 203.14560699 71.48745927 167.30739997 73.91448975 131.47155762 C74.3324656 125.29777672 74.74866711 119.12387606 75.16503179 112.94998634 C76.10810857 98.96652808 77.05327921 84.983212 78 71 C74.58203299 81.39540614 71.16541814 91.79125617 67.75 102.1875 C67.4989727 102.95160313 67.2479454 103.71570625 66.98931122 104.50296402 C59.27514868 127.98552355 51.59013042 151.47700088 44 175 C51.26 175 58.52 175 66 175 C63.74977429 185.12601569 63.74977429 185.12601569 62.22827148 189.85522461 C61.89129745 190.9091893 61.55432343 191.96315399 61.20713806 193.04905701 C60.84874344 194.15564163 60.49034882 195.26222626 60.12109375 196.40234375 C59.56289696 198.14071251 59.56289696 198.14071251 58.99342346 199.91419983 C58.21113511 202.34778857 57.42691755 204.78075792 56.64086914 207.21313477 C55.43390448 210.94862796 54.23306594 214.68604843 53.03320312 218.42382812 C52.27118834 220.79178094 51.50883074 223.15962346 50.74609375 225.52734375 C50.20546547 227.20847511 50.20546547 227.20847511 49.65391541 228.92356873 C49.32009354 229.95546829 48.98627167 230.98736786 48.64233398 232.05053711 C48.34858383 232.96048935 48.05483368 233.87044159 47.75218201 234.80796814 C47 237 47 237 46 239 C5.41 239 -35.18 239 -77 239 C-70.07518625 215.9172875 -70.07518625 215.9172875 -67.38671875 207.67578125 C-67.08683548 206.75202194 -66.78695221 205.82826263 -66.47798157 204.87651062 C-65.86008414 202.97548754 -65.2410554 201.07483178 -64.62084961 199.17456055 C-63.66705959 196.24982073 -62.71914401 193.32321557 -61.77148438 190.39648438 C-61.16440839 188.53113739 -60.55699998 186.66589856 -59.94921875 184.80078125 C-59.66696945 183.92811111 -59.38472015 183.05544098 -59.09391785 182.15632629 C-57.11474974 176.11474974 -57.11474974 176.11474974 -56 175 C-53.55169574 174.91156207 -51.13179401 174.88471248 -48.68359375 174.90234375 C-47.95253922 174.9037587 -47.22148468 174.90517365 -46.46827698 174.90663147 C-44.12464368 174.91224592 -41.78110461 174.92480078 -39.4375 174.9375 C-37.85221492 174.94251314 -36.26692834 174.94707637 -34.68164062 174.95117188 C-30.7877239 174.96222003 -26.89387795 174.97949428 -23 175 C-22.83564453 174.29589996 -22.67128906 173.59179993 -22.50195312 172.86636353 C-20.5538703 164.77665592 -18.12419839 156.91667631 -15.5 149.0234375 C-15.06248438 147.69679634 -14.6253758 146.37002088 -14.18864441 145.04312134 C-13.26955873 142.25320604 -12.34795079 139.46414337 -11.42416382 136.67578125 C-9.99119158 132.35035011 -8.56391276 128.02305534 -7.13793945 123.6953125 C-6.66310336 122.25433278 -6.18826511 120.81335378 -5.71342468 119.37237549 C-5.4798847 118.66362526 -5.24634472 117.95487503 -5.00572777 117.22464752 C-4.30366107 115.09467447 -3.60103898 112.96488536 -2.89826965 110.83514404 C2.13511435 95.57821312 7.07420308 80.29202627 12 65 C1.44 64.67 -9.12 64.34 -20 64 C-15.15144385 42.18149733 -6.95195301 21.24207864 0 0 Z " fill="#221E1F" transform="translate(647,0)"/>
<path d="M0 0 C20.47195429 -0.04684835 40.94389761 -0.08205149 61.41589451 -0.10362434 C70.92270774 -0.11390997 80.42948753 -0.12791804 89.9362793 -0.15087891 C98.22833068 -0.17089627 106.52035783 -0.18373613 114.81243271 -0.18817699 C119.19761814 -0.19077031 123.58273431 -0.19680833 127.96789742 -0.21146011 C132.10714214 -0.22517635 136.24628997 -0.22919471 140.38555527 -0.22621536 C141.89345135 -0.22675932 143.40135115 -0.23065226 144.90922737 -0.23841095 C165.96826977 -0.34132574 191.47750755 1.97594788 207.546875 17.35546875 C215.08917897 25.89124824 218.74672017 35.47985995 218.33984375 46.9375 C216.26349732 65.64848396 208.45669315 81.02105927 195 94 C194.35546875 94.67546875 193.7109375 95.3509375 193.046875 96.046875 C184.68256433 104.2657194 172.25092613 108.54397662 161 111 C161.87140625 111.15855469 162.7428125 111.31710938 163.640625 111.48046875 C175.76548982 113.85557755 188.75267167 117.07928015 196.75 127.21875 C203.47275252 137.43216249 203.85164424 148.15922236 202 160 C197.24964491 183.01924406 184.71166369 204.98182872 164.9375 218.21484375 C137.65982517 234.79183497 107.51752388 239.18855793 76.03222656 239.11352539 C74.35560101 239.11324274 72.67897533 239.11340277 71.00234985 239.1139679 C66.48666451 239.11425283 61.97100615 239.1084055 57.45532703 239.10139394 C52.72280327 239.09510954 47.99027876 239.0945526 43.25775146 239.09336853 C34.31207185 239.09027014 25.36640456 239.08207699 16.42073035 239.07201904 C6.22959566 239.0608114 -3.96153964 239.05533577 -14.15267897 239.05032361 C-35.10179284 239.03989302 -56.05089564 239.02232267 -77 239 C-73.90658535 227.4993966 -73.90658535 227.4993966 -72.09887695 221.88598633 C-71.75875076 220.82571732 -71.41862457 219.7654483 -71.06819153 218.67304993 C-70.71182114 217.57051376 -70.35545074 216.4679776 -69.98828125 215.33203125 C-69.61519333 214.17120529 -69.24210541 213.01037933 -68.85771179 211.81437683 C-67.67824329 208.1463499 -66.49542931 204.47941211 -65.3125 200.8125 C-64.50693911 198.30931633 -63.70159843 195.80606179 -62.89648438 193.30273438 C-60.93394205 187.20086489 -58.96686886 181.10048297 -57 175 C-47.1 175 -37.2 175 -27 175 C-26.34 172.03 -25.68 169.06 -25 166 C-24.30821878 163.64040221 -23.58207498 161.29058045 -22.8203125 158.95263672 C-22.50747063 157.98660271 -22.50747063 157.98660271 -22.18830872 157.00105286 C-21.50445481 154.89263536 -20.81475747 152.78618027 -20.125 150.6796875 C-19.63577494 149.17509923 -19.14693235 147.67038654 -18.65844727 146.16555786 C-17.37049646 142.20119537 -16.07763738 138.23845118 -14.78363037 134.27606201 C-13.50535991 130.35941105 -12.23125642 126.44140603 -10.95703125 122.5234375 C-9.45189994 117.89617343 -7.94645748 113.26901249 -6.43896484 108.64251709 C-1.5941968 93.77186152 3.20518289 78.88684946 8 64 C-1.24 64 -10.48 64 -20 64 C-17.74977429 53.87398431 -17.74977429 53.87398431 -16.22827148 49.14477539 C-15.89129745 48.0908107 -15.55432343 47.03684601 -15.20713806 45.95094299 C-14.84874344 44.84435837 -14.49034882 43.73777374 -14.12109375 42.59765625 C-13.74896255 41.43874374 -13.37683136 40.27983124 -12.99342346 39.08580017 C-12.21113511 36.65221143 -11.42691755 34.21924208 -10.64086914 31.78686523 C-9.43390448 28.05137204 -8.23306594 24.31395157 -7.03320312 20.57617188 C-6.27118834 18.20821906 -5.50883074 15.84037654 -4.74609375 13.47265625 C-4.20546547 11.79152489 -4.20546547 11.79152489 -3.65391541 10.07643127 C-3.32009354 9.04453171 -2.98627167 8.01263214 -2.64233398 6.94946289 C-2.34858383 6.03951065 -2.05483368 5.12955841 -1.75218201 4.19203186 C-1 2 -1 2 0 0 Z M88 64 C86.65934762 67.93504649 85.32873929 71.87341646 84 75.8125 C83.42765625 77.49182617 83.42765625 77.49182617 82.84375 79.20507812 C82.4828125 80.27822266 82.121875 81.35136719 81.75 82.45703125 C81.41484375 83.44678955 81.0796875 84.43654785 80.734375 85.45629883 C79.86131245 88.03911618 79.86131245 88.03911618 80 91 C84.42905723 91.0994692 88.85750909 91.17174818 93.28735352 91.21972656 C94.79170062 91.23974363 96.29597089 91.26696627 97.80004883 91.30175781 C99.97236162 91.35071945 102.14363906 91.37306653 104.31640625 91.390625 C106.27235718 91.4220459 106.27235718 91.4220459 108.26782227 91.45410156 C113.41644846 90.82765787 117.26108784 88.99623996 120.7421875 85 C121.11601562 84.34 121.48984375 83.68 121.875 83 C122.26429688 82.34 122.65359375 81.68 123.0546875 81 C125.083604 76.70741633 125.3441607 72.73220968 125 68 C123.16884793 65.38406847 122.09031634 65.03010545 119 64 C116.64319787 63.91602843 114.28405919 63.89271813 111.92578125 63.90234375 C111.2419487 63.9037587 110.55811615 63.90517365 109.8535614 63.90663147 C107.67316278 63.91222124 105.49286749 63.92477178 103.3125 63.9375 C101.83268378 63.94251633 100.35286594 63.947079 98.87304688 63.95117188 C95.24866443 63.96218729 91.6243423 63.97944488 88 64 Z M66 133 C63.34183822 140.01573286 60.88612587 147.0883869 58.5012207 154.20117188 C58.03936445 155.57511646 57.57481345 156.94815792 57.10766602 158.3203125 C56.42658868 160.32099203 55.75343735 162.32418227 55.08203125 164.328125 C54.68218018 165.5130957 54.2823291 166.69806641 53.87036133 167.91894531 C52.81876697 171.10795505 52.81876697 171.10795505 53 175 C58.15944873 175.09920549 63.31833689 175.17162646 68.47851562 175.21972656 C70.23219479 175.2397871 71.98580753 175.26704251 73.73925781 175.30175781 C76.26644318 175.35052302 78.79274091 175.37302392 81.3203125 175.390625 C82.48785568 175.42159271 82.48785568 175.42159271 83.6789856 175.45318604 C88.9279423 175.45532815 91.86083778 174.49794665 96 171 C100.77961274 165.89590361 102.30329449 160.04419611 104.375 153.5 C104.94541016 151.80810547 104.94541016 151.80810547 105.52734375 150.08203125 C106.05134766 148.44814453 106.05134766 148.44814453 106.5859375 146.78125 C106.9061084 145.79189453 107.2262793 144.80253906 107.55615234 143.78320312 C108.09651309 140.39480242 107.76542798 138.93150885 106 136 C101.95075107 132.56652471 97.93631402 132.60068677 92.85546875 132.70703125 C92.08568192 132.71127609 91.31589508 132.71552094 90.52278137 132.71989441 C88.07732354 132.73661403 85.63270643 132.7742523 83.1875 132.8125 C81.52410049 132.82755559 79.86068799 132.84124246 78.19726562 132.85351562 C74.13118918 132.88649535 70.06573687 132.93822994 66 133 Z " fill="#221E1F" transform="translate(377,0)"/>
<path d="M0 0 C19.93314803 -0.04686828 39.86628478 -0.08206115 59.79947662 -0.10362434 C69.05627797 -0.11390579 78.31304495 -0.12790572 87.56982422 -0.15087891 C95.64470841 -0.17090923 103.71956768 -0.18373915 111.79447603 -0.18817699 C116.06399912 -0.19076816 120.33345096 -0.19679203 124.60295105 -0.21146011 C128.63467793 -0.225197 132.6663053 -0.2291907 136.69805336 -0.22621536 C138.16521562 -0.22675842 139.63238177 -0.23063879 141.09952354 -0.23841095 C154.02137111 -0.30341362 167.26475409 0.31678342 179.6875 4.1875 C180.3882666 4.40253174 181.0890332 4.61756348 181.81103516 4.83911133 C198.1737137 10.116494 210.80137415 19.7932337 219 35 C219.39832031 35.73863281 219.79664063 36.47726563 220.20703125 37.23828125 C225.34363926 47.76159428 226.5625363 59.18632633 226.5 70.75 C226.49427979 72.00425781 226.48855957 73.25851563 226.48266602 74.55078125 C225.98672129 101.02788405 217.466877 126.3516597 206 150 C205.52675293 150.97743164 205.52675293 150.97743164 205.04394531 151.97460938 C187.48240925 187.68003295 157.1877144 218.21312515 119.09130859 231.328125 C115.11673411 232.60503709 111.10406538 233.70666532 107.0625 234.75 C106.30098633 234.94883789 105.53947266 235.14767578 104.75488281 235.35253906 C91.53545111 238.5624219 78.22523546 239.29738904 64.6796875 239.22705078 C63.1206971 239.22648472 61.56170616 239.22680701 60.00271606 239.22793579 C55.82606243 239.22850272 51.6495269 239.2168571 47.47290039 239.20278788 C43.08740866 239.19016876 38.70191334 239.1891013 34.31640625 239.18673706 C26.03666022 239.1805548 17.75696787 239.16418868 9.47724533 239.14403808 C0.04054387 239.12157695 -9.39616033 239.11066013 -18.83288193 239.10064721 C-38.22195156 239.07981905 -57.61097144 239.04470733 -77 239 C-75.52762908 234.31060776 -74.05488075 229.62133427 -72.58181763 224.93215942 C-72.08322535 223.34482849 -71.58472726 221.75746797 -71.08633423 220.17007446 C-57.31763857 176.31763857 -57.31763857 176.31763857 -56 175 C-53.78312006 174.84126045 -51.56144702 174.74866163 -49.33984375 174.68359375 C-48.67537735 174.66281265 -48.01091095 174.64203156 -47.3263092 174.62062073 C-45.19681457 174.55506342 -43.06719332 174.49621215 -40.9375 174.4375 C-39.49673153 174.39432061 -38.05597601 174.35070651 -36.61523438 174.30664062 C-33.0769596 174.19937607 -29.53854131 174.09812629 -26 174 C-25.72597351 173.15286438 -25.45194702 172.30572876 -25.1696167 171.43292236 C-22.52603576 163.2614446 -19.880866 155.09048301 -17.23411179 146.9200325 C-15.87499068 142.72429382 -14.51638718 138.52838936 -13.15917969 134.33203125 C-5.5627169 110.84619925 2.15629356 87.40443766 10 64 C0.1 64 -9.8 64 -20 64 C-16.625 50.5 -16.625 50.5 -15.09887695 45.86425781 C-14.75875076 44.82408508 -14.41862457 43.78391235 -14.06819153 42.71221924 C-13.71182114 41.63671814 -13.35545074 40.56121704 -12.98828125 39.453125 C-12.61519333 38.31591003 -12.24210541 37.17869507 -11.85771179 36.00701904 C-10.67992804 32.42003183 -9.49632151 28.8349985 -8.3125 25.25 C-7.5067736 22.79960667 -6.70143148 20.34908694 -5.89648438 17.8984375 C-3.93542564 11.93082463 -1.96959899 5.96479928 0 0 Z M90 64 C82.18952864 87.10196525 74.63455734 110.28606628 67.12726593 133.4879303 C66.37544811 135.81111529 65.62316409 138.13414889 64.87078857 140.45715332 C63.66779031 144.17203945 62.46623682 147.88738991 61.26583862 151.60311699 C60.81768214 152.98991103 60.36916363 154.37658814 59.92025757 155.76313972 C59.29772269 157.68652394 58.67690369 159.61046326 58.05615234 161.53442383 C57.70596039 162.61830887 57.35576843 163.70219391 56.9949646 164.81892395 C55.93787569 168.19862231 54.95949522 171.59146858 54 175 C59.26521342 175.1242878 64.52955926 175.21466072 69.79589844 175.2746582 C71.58446136 175.29968775 73.37292317 175.33372244 75.16113281 175.37719727 C77.74309323 175.43836411 80.32369322 175.46632445 82.90625 175.48828125 C84.09112 175.52699089 84.09112 175.52699089 85.29992676 175.56648254 C91.26974713 175.56944832 95.56766313 174.09552763 100 170 C104.14890261 164.34438157 105.86031085 156.86974855 107.9765625 150.27734375 C108.34390503 149.15051178 108.71124756 148.02367981 109.08972168 146.86270142 C110.27452345 143.22300214 111.45021912 139.58044487 112.625 135.9375 C113.43434285 133.43924529 114.24407701 130.94111732 115.05419922 128.44311523 C116.25814595 124.72936205 117.46126595 121.01535403 118.66140747 117.30036926 C120.87780839 110.44190469 123.1215679 103.59380828 125.40625 96.7578125 C126.10222237 94.66071535 126.79712258 92.56326749 127.49139404 90.46560669 C128.1059799 88.61962901 128.7317704 86.77739349 129.35791016 84.93530273 C131.28773021 79.06741927 132.60140831 74.18798427 132 68 C130.18836733 65.32568511 129.12238923 65.04079641 126 64 C123.2684044 63.91492921 120.56308557 63.88408435 117.83203125 63.90234375 C117.03721848 63.9037587 116.2424057 63.90517365 115.42350769 63.90663147 C112.88646675 63.91222622 110.34951425 63.92477772 107.8125 63.9375 C106.09179815 63.94251568 104.37109492 63.94707847 102.65039062 63.95117188 C98.4335597 63.96219393 94.21679484 63.97945494 90 64 Z " fill="#221E1F" transform="translate(111,0)"/>
<path d="M0 0 C0.83265381 0.00523682 1.66530762 0.01047363 2.52319336 0.01586914 C3.42231445 0.0190918 4.32143555 0.02231445 5.24780273 0.02563477 C6.66609375 0.03820312 6.66609375 0.03820312 8.11303711 0.05102539 C9.06243164 0.05553711 10.01182617 0.06004883 10.98999023 0.06469727 C13.34356776 0.07652429 15.69702188 0.09300514 18.05053711 0.11352539 C18.72695659 7.38272313 19.40227538 14.65202259 20.0769043 21.92138672 C20.30550468 24.38332315 20.53433764 26.845238 20.76342773 29.30712891 C21.09675539 32.88967021 21.42924334 36.47228851 21.76147461 40.05493164 C21.87094421 41.23165436 21.98041382 42.40837708 22.09320068 43.62075806 C22.62742927 49.39635162 23.14491914 55.17257818 23.62573242 60.95288086 C23.71505035 62.01965561 23.80436829 63.08643036 23.89639282 64.18553162 C24.06297811 66.19227889 24.22605741 68.19932126 24.38510132 70.2066803 C24.49527084 71.53329933 24.49527084 71.53329933 24.60766602 72.88671875 C24.6695108 73.65882187 24.73135559 74.43092499 24.79507446 75.22642517 C24.95859256 77.19895655 24.95859256 77.19895655 26.05053711 79.11352539 C26.63319336 78.28852539 27.21584961 77.46352539 27.81616211 76.61352539 C32.87905113 69.47116062 38.04079486 62.41489075 43.30981445 55.42333984 C49.01343442 47.85004983 54.62627224 40.21062446 60.24194336 32.57202148 C62.08247296 30.07011367 63.92547349 27.57004507 65.76928711 25.07055664 C66.37611328 24.24571777 66.98293945 23.42087891 67.6081543 22.57104492 C68.80887799 20.94739034 70.01774401 19.32972214 71.23510742 17.71850586 C73.73100268 14.39695891 76.11151011 11.18313734 78.00366211 7.47680664 C79.81682942 4.16819994 80.92052645 2.2438013 84.05053711 0.11352539 C90.63881154 -1.15052041 97.42005605 -0.56373089 104.05053711 0.11352539 C103.45217949 5.30305713 102.2651755 10.04651286 100.59790039 15.00146484 C100.34898041 15.75695618 100.10006042 16.51244751 99.84359741 17.29083252 C99.02484614 19.77134784 98.19785439 22.24903216 97.37084961 24.72680664 C96.7959845 26.46386169 96.22168331 28.20110347 95.6479187 29.93852234 C94.13843179 34.50495124 92.6221301 39.06908688 91.10412598 43.63269043 C88.68011877 50.92446864 86.26735044 58.21997669 83.85296249 65.51494408 C83.01335164 68.04898356 82.17137285 70.58222546 81.32888794 73.11531067 C80.80628942 74.68924491 80.28397092 76.26327216 79.76196289 77.83740234 C79.51738405 78.57483327 79.27280521 79.31226419 79.0208149 80.07204151 C77.44752184 84.84133544 75.96202151 89.62829314 74.59542847 94.46159363 C74.05053711 96.11352539 74.05053711 96.11352539 73.05053711 97.11352539 C71.19766209 97.18579041 69.34219833 97.19733759 67.48803711 97.17602539 C66.47612305 97.16700195 65.46420898 97.15797852 64.42163086 97.14868164 C63.63916992 97.13708008 62.85670898 97.12547852 62.05053711 97.11352539 C62.61878372 92.49244585 63.49497453 88.25828195 64.93652344 83.83374023 C65.32395218 82.63494232 65.71138092 81.43614441 66.11054993 80.20101929 C66.53446814 78.90880497 66.9584766 77.61662026 67.38256836 76.32446289 C67.82048995 74.97572687 68.2578734 73.62681602 68.69474792 72.27774048 C69.84394495 68.73345092 70.99980251 65.19137047 72.1572876 61.64978027 C73.55034447 57.38374691 74.93625663 53.11538885 76.32248211 48.84713173 C77.4039804 45.51725626 78.48668746 42.1877956 79.57368469 38.85971069 C82.14583293 30.96792563 84.63605595 23.0549824 87.05053711 15.11352539 C79.49490336 24.84155148 72.15083941 34.710493 64.86499023 44.6418457 C61.93247973 48.63656265 58.99121338 52.624818 56.05053711 56.61352539 C51.87933828 62.27297328 47.70867666 67.93280705 43.54614258 73.59863281 C42.35374585 75.21591948 41.15625643 76.82946545 39.95336914 78.43896484 C37.38114575 81.88714048 34.87385054 85.32358464 32.59350586 88.97290039 C31.87807617 90.07118164 31.16264648 91.16946289 30.42553711 92.30102539 C29.85577148 93.24333008 29.28600586 94.18563477 28.69897461 95.15649414 C25.4210761 97.57865808 23.89751218 97.31995834 19.88500977 97.23583984 C18.79515778 97.21818069 17.70530579 97.20052155 16.58242798 97.18232727 C15.74690399 97.15962265 14.91138 97.13691803 14.05053711 97.11352539 C13.96506119 96.17693588 13.87958527 95.24034637 13.79151917 94.27537537 C12.98430139 85.43298027 12.1752059 76.59075872 11.36428928 67.74870205 C10.94748685 63.20332152 10.53133764 58.65788318 10.11669922 54.11230469 C9.71625103 49.72255916 9.3140635 45.33297611 8.9106884 40.94349861 C8.75737975 39.27189829 8.60468946 37.60024113 8.45263863 35.92852592 C8.23896117 33.58045068 8.02305172 31.23259029 7.80664062 28.88476562 C7.74478073 28.19927643 7.68292084 27.51378723 7.6191864 26.80752563 C7.22387863 22.55038787 6.68532349 18.33983645 6.05053711 14.11352539 C3.41479745 22.12951738 0.78028473 30.14591121 -1.85276985 38.16278553 C-3.07615866 41.88752124 -4.29993016 45.61213019 -5.5246582 49.33642578 C-10.75260484 65.23506053 -15.97703425 81.13258348 -20.94946289 97.11352539 C-24.90946289 97.11352539 -28.86946289 97.11352539 -32.94946289 97.11352539 C-32.38302644 92.48509398 -31.50145444 88.26427994 -30.03515625 83.84057617 C-29.64061752 82.64046906 -29.2460788 81.44036194 -28.83958435 80.20388794 C-28.40623923 78.90551096 -27.97281098 77.60716172 -27.53930664 76.30883789 C-27.08852914 74.94401789 -26.63830956 73.5790135 -26.18861389 72.21383667 C-25.00162191 68.61489048 -23.8078103 65.01824485 -22.61230469 61.42211914 C-20.72811499 55.74989005 -18.85526147 50.07389934 -16.98021317 44.39864349 C-16.29208654 42.31724633 -15.60271099 40.23626593 -14.91317749 38.15533447 C-11.63871824 28.26295343 -8.44135599 18.34818016 -5.32518005 8.40457153 C-4.87345177 6.97442215 -4.87345177 6.97442215 -4.41259766 5.51538086 C-4.15229263 4.68408661 -3.89198761 3.85279236 -3.62379456 2.99630737 C-2.6049779 0.15169878 -2.6049779 0.15169878 0 0 Z " fill="#221E1F" transform="translate(262.949462890625,277.886474609375)"/>
<path d="M0 0 C1.10077881 -0.00563965 2.20155762 -0.0112793 3.33569336 -0.01708984 C12.89003025 0.06779923 21.78088961 0.66771348 29.75 6.3125 C33.23993725 11.80505226 32.37252828 18.44645568 31.04492188 24.55859375 C28.52118354 33.85548609 25.69806544 43.02709202 22.65087891 52.16577148 C21.87327903 54.50517753 21.11028763 56.84903737 20.34765625 59.19335938 C10.74110326 88.34471565 10.74110326 88.34471565 -1.25 94.6875 C-7.49632784 97.56834948 -13.65559645 98.62189828 -20.4921875 98.61328125 C-21.25999542 98.61756638 -22.02780334 98.6218515 -22.81887817 98.62626648 C-24.43409241 98.63197746 -26.04933234 98.63253405 -27.66455078 98.62817383 C-30.11145752 98.62501747 -32.55714882 98.64849988 -35.00390625 98.67382812 C-42.93381003 98.70650602 -49.92038413 98.71727722 -57.25 95.3125 C-60.96030175 91.60219825 -62.12636122 88.79616531 -62.5625 83.5625 C-62.3959425 71.39650811 -56.86939255 58.52844569 -53.15087891 47.03198242 C-52.37339508 44.62002111 -51.61044639 42.20375169 -50.84765625 39.78710938 C-42.02137655 12.19519519 -42.02137655 12.19519519 -29.94140625 4.671875 C-20.52418998 -0.08457095 -10.31516237 0.05073862 0 0 Z M-28.90673828 16.95629883 C-34.41747364 24.18174039 -36.65753716 33.52338895 -39.375 42.0625 C-39.89068822 43.64623726 -40.40760808 45.22957403 -40.92578125 46.8125 C-42.16425738 50.60868141 -43.38029913 54.41149387 -44.58483887 58.21856689 C-45.21204487 60.19301692 -45.84943878 62.16388583 -46.48925781 64.13427734 C-46.85116211 65.26816895 -47.21306641 66.40206055 -47.5859375 67.5703125 C-47.89837402 68.5411377 -48.21081055 69.51196289 -48.53271484 70.51220703 C-49.67611925 74.97607652 -50.32192938 79.78832748 -49.25 84.3125 C-45.23841069 88.3787928 -40.27602589 88.43619622 -34.828125 88.48046875 C-32.71877366 88.49239347 -30.60938466 88.49872003 -28.5 88.5 C-27.45328125 88.51224609 -26.4065625 88.52449219 -25.328125 88.53710938 C-13.05560643 88.59261334 -13.05560643 88.59261334 -2.65637207 82.74751282 C5.450946 74.47508933 8.47079156 59.85565581 11.77734375 49.1237793 C12.63242444 46.35092403 13.50619774 43.58447387 14.3828125 40.81835938 C14.94119191 39.03679889 15.49852215 37.25490916 16.0546875 35.47265625 C16.31192596 34.65587906 16.56916443 33.83910187 16.834198 32.99757385 C19.4366339 24.89823608 19.4366339 24.89823608 19.125 16.5625 C17.35162156 13.660608 15.80653665 12.8001647 12.75 11.3125 C8.38424423 10.77313558 4.01676714 10.83948113 -0.37744141 10.86645508 C-2.48050291 10.87492151 -4.58080316 10.84625383 -6.68359375 10.81445312 C-15.03679061 10.76424468 -22.69001566 10.78813003 -28.90673828 16.95629883 Z " fill="#221E1F" transform="translate(418.25,276.6875)"/>
<path d="M0 0 C1.75860352 -0.01836914 1.75860352 -0.01836914 3.55273438 -0.03710938 C12.99920028 -0.0529326 22.13862639 -0.04032073 29.6875 6.1875 C33.27104491 11.56281737 32.59442481 17.98561208 31.6875 24.1875 C29.93375546 31.83588478 27.39007208 39.26553471 24.87255859 46.68994141 C23.67769255 50.21644551 22.51879132 53.75339745 21.36328125 57.29296875 C20.5986747 59.59191892 19.83181828 61.89012227 19.0625 64.1875 C18.54151733 65.76978394 18.54151733 65.76978394 18.01000977 67.3840332 C14.44689516 77.75496046 9.36846604 88.85125756 -0.58203125 94.46875 C-7.18184809 97.53334157 -13.13601466 98.34874369 -20.39453125 98.390625 C-21.16754074 98.39632507 -21.94055023 98.40202515 -22.73698425 98.40789795 C-24.36834356 98.41731535 -25.99972161 98.42386892 -27.63110352 98.42773438 C-30.10662594 98.43742805 -32.5813131 98.46847658 -35.05664062 98.5 C-36.64843262 98.50653248 -38.24023049 98.51178199 -39.83203125 98.515625 C-40.56251175 98.5279718 -41.29299225 98.5403186 -42.04560852 98.55303955 C-48.67887499 98.52476261 -54.03238891 96.94508563 -59.3125 92.875 C-62.98061535 87.61862852 -62.36612686 81.22573525 -61.3125 75.1875 C-59.51222176 67.60401502 -57.02976062 60.22311826 -54.54052734 52.84326172 C-53.48250361 49.69359028 -52.45239533 46.53734651 -51.4352417 43.37440491 C-50.59462579 40.77191224 -49.73729838 38.1751427 -48.87542725 35.57962036 C-48.26800755 33.74197867 -47.67311396 31.90021134 -47.07861328 30.05834961 C-43.43127983 19.31544612 -38.382405 10.01338374 -28.3125 4.1875 C-19.24579661 -0.22426755 -9.89089926 0.00538427 0 0 Z M-27.81881714 16.82501221 C-31.84068643 22.00212332 -34.08792947 27.07173273 -36.109375 33.27734375 C-36.42908264 34.22130508 -36.74879028 35.16526642 -37.07818604 36.13783264 C-37.74701352 38.12139446 -38.40884907 40.10732644 -39.06396484 42.09545898 C-40.06010816 45.11774321 -41.07685654 48.13244926 -42.09765625 51.14648438 C-42.7486077 53.08553109 -43.39838684 55.02497183 -44.046875 56.96484375 C-44.34583679 57.85574203 -44.64479858 58.74664032 -44.95281982 59.66453552 C-48.85285392 70.7159723 -48.85285392 70.7159723 -49.3125 82.1875 C-46.25309749 86.12101752 -44.15963198 87.50773825 -39.3125 88.1875 C-35.37706476 88.40373271 -31.4408265 88.37261884 -27.5 88.375 C-26.44490234 88.38724609 -25.38980469 88.39949219 -24.30273438 88.41210938 C-15.40483253 88.42874097 -8.60311292 87.77760546 -1.3125 82.1875 C5.37189083 72.5113584 8.63787945 60.33492699 12.19702148 49.25415039 C13.13093876 46.35657438 14.09075936 43.46844411 15.05273438 40.58007812 C15.66041982 38.71405081 16.26659418 36.84753057 16.87109375 34.98046875 C17.15536728 34.13026657 17.43964081 33.28006439 17.73252869 32.40409851 C19.42822715 27.04106321 20.53878366 21.82593628 19.6875 16.1875 C17.81129387 13.68589182 16.44858697 12.56804348 13.6875 11.1875 C9.22992196 10.92775526 4.76838886 10.91635609 0.30419922 10.89233398 C-1.90852299 10.87522407 -4.11970973 10.83135581 -6.33203125 10.78710938 C-18.20631729 10.55715795 -18.20631729 10.55715795 -27.81881714 16.82501221 Z " fill="#221E1F" transform="translate(577.3125,276.8125)"/>
<path d="M0 0 C2.62473488 5.24946977 1.60700622 13.77345727 0 19.3125 C-0.33 20.199375 -0.66 21.08625 -1 22 C-4.96 22 -8.92 22 -13 22 C-12.67 17.05 -12.34 12.1 -12 7 C-18.32424993 5.73515001 -24.38012466 5.77637571 -30.8125 5.75 C-32.05837891 5.729375 -33.30425781 5.70875 -34.58789062 5.6875 C-45.35534382 5.52682836 -45.35534382 5.52682836 -54.63549805 10.45117188 C-58.88384589 15.27341534 -60.74166216 23.67072296 -61 30 C-60.6824493 32.38558027 -60.6824493 32.38558027 -59 34 C-54.21115037 35.63435491 -49.82179497 36.30286739 -44.78125 36.52734375 C-43.42316406 36.59805758 -42.06509151 36.66902894 -40.70703125 36.74023438 C-38.60091795 36.84109811 -36.4947325 36.93772836 -34.38818359 37.02905273 C-32.330976 37.12134182 -30.27507367 37.22979982 -28.21875 37.33984375 C-26.3924707 37.42286743 -26.3924707 37.42286743 -24.52929688 37.50756836 C-19.77628454 38.17074115 -15.61913828 39.43383966 -12.08984375 42.84765625 C-8.91779626 49.11216581 -10.7881995 57.1221702 -12.625 63.5625 C-16.25673556 74.16564403 -20.81881091 83.34963989 -30.85546875 89.0546875 C-36.98910542 91.89809523 -43.30970783 92.16328541 -49.9609375 92.203125 C-50.710336 92.20882507 -51.4597345 92.21452515 -52.23184204 92.22039795 C-53.81014616 92.22980007 -55.3884695 92.23636276 -56.96679688 92.24023438 C-59.36103012 92.24994335 -61.75440502 92.28101252 -64.1484375 92.3125 C-65.69009913 92.31903136 -67.23176683 92.32428131 -68.7734375 92.328125 C-69.47890717 92.3404718 -70.18437683 92.3528186 -70.91122437 92.36553955 C-77.103768 92.33823985 -82.65225728 91.04675007 -87.4375 86.875 C-90.69663042 80.87820002 -90.36635224 75.61003591 -88.625 69.125 C-87.79422057 66.39973289 -86.90096353 63.70289059 -86 61 C-82.04 61 -78.08 61 -74 61 C-74.495 63.536875 -74.495 63.536875 -75 66.125 C-76.07018828 72.02520121 -76.07018828 72.02520121 -76 78 C-71.32064217 82.67935783 -63.54647247 81.22260168 -57.375 81.25 C-56.23675781 81.270625 -55.09851563 81.29125 -53.92578125 81.3125 C-45.6957708 81.35029569 -37.56746561 81.10214401 -31.125 75.5 C-26.66018177 69.13525912 -24.1379392 60.72459535 -24 53 C-25.36641421 50.77058734 -26.26826467 50.22818331 -28.73022461 49.46044922 C-31.5371833 48.89102638 -34.26861542 48.72747836 -37.12890625 48.5703125 C-38.32966797 48.49683594 -39.53042969 48.42335938 -40.76757812 48.34765625 C-43.26982694 48.20084392 -45.77243897 48.06007955 -48.27539062 47.92578125 C-66.86124016 46.7573581 -66.86124016 46.7573581 -72.25830078 42.01611328 C-75.1877913 38.62506581 -75.15651031 35.36272478 -75 31 C-73.47030687 20.33627386 -69.01013211 8.46398674 -61 1 C-46.66834631 -8.45730198 -13.91271841 -11.71597339 0 0 Z " fill="#221E1F" transform="translate(689,283)"/>
<path d="M0 0 C54.12 0 108.24 0 164 0 C162.54996379 4.35010863 161.09990776 7.99108518 159 12 C149.31275253 12.18222411 139.6252434 12.34671118 129.9375 12.5 C129.18741417 12.51187725 128.43732834 12.5237545 127.66451263 12.53599167 C97.48465276 13.00815175 67.3081589 13.0866828 37.125 13.0625 C36.04892864 13.06164398 34.97285728 13.06078796 33.8641777 13.05990601 C20.57610158 13.04854701 7.28805003 13.02851735 -6 13 C-4.02 8.71 -2.04 4.42 0 0 Z " fill="#221E1F" transform="translate(6,360)"/>
<path d="M0 0 C53.79 0 107.58 0 163 0 C161.16659214 9.16703931 161.16659214 9.16703931 158 12 C153.89351795 13.09200657 149.8293212 12.95204366 145.6015625 12.90234375 C144.30734375 12.91468048 143.013125 12.92701721 141.6796875 12.93972778 C138.08373207 12.97288706 134.4890282 12.96229444 130.893013 12.94441605 C127.07878202 12.93278499 123.2648327 12.9609557 119.45068359 12.98413086 C111.8126662 13.02353923 104.17509709 13.02293018 96.53700829 13.01006603 C89.51681809 12.99912407 82.4967487 13.00425659 75.4765625 13.01660156 C73.87530234 13.01937497 73.87530234 13.01937497 72.2416935 13.0222044 C70.06501513 13.02599636 67.88833679 13.0298019 65.71165848 13.03362083 C41.80767938 13.07334935 17.90393934 13.05192874 -6 13 C-4.53528034 7.99554115 -2.70958719 4.74177759 0 0 Z " fill="#221E1F" transform="translate(741,360)"/>
<path d="M0 0 C54.12 0 108.24 0 164 0 C161.525 5.94 161.525 5.94 159 12 C143.98349021 12.13265355 128.96696314 12.26317979 113.95041275 12.39115143 C106.97230365 12.4506683 99.99420162 12.51084755 93.01611328 12.57275391 C60.01034701 12.86517765 27.00730267 13.08628319 -6 13 C-4.53528034 7.99554115 -2.70958719 4.74177759 0 0 Z " fill="#221E1F" transform="translate(14,333)"/>
<path d="M0 0 C54.12 0 108.24 0 164 0 C161 9 161 9 159 12 C156.98431492 12.38476086 156.98431492 12.38476086 154.45521545 12.39872742 C153.01713531 12.41753464 153.01713531 12.41753464 151.55000305 12.4367218 C150.49330917 12.43528671 149.4366153 12.43385162 148.34790039 12.43237305 C146.68079514 12.44766052 146.68079514 12.44766052 144.98001099 12.46325684 C141.26917601 12.4936564 137.55860015 12.50271495 133.84765625 12.51171875 C131.24066843 12.52859289 128.63368861 12.54674673 126.02671814 12.56611633 C119.81649554 12.6099717 113.60629853 12.63835288 107.3959679 12.66143972 C100.50441947 12.68784874 93.61302724 12.73212081 86.7215836 12.77772307 C56.14793936 12.97809625 25.57424391 13.05145766 -5 13 C-4.3459924 7.76793917 -2.60441228 5.20882456 0 0 Z " fill="#221E1F" transform="translate(748,333)"/>
<path d="M0 0 C54.12 0 108.24 0 164 0 C161.525 5.94 161.525 5.94 159 12 C104.55 12.33 50.1 12.66 -6 13 C-4 7 -4 7 0 0 Z " fill="#221E1F" transform="translate(768,275)"/>
<path d="M0 0 C54.12 0 108.24 0 164 0 C162 6 162 6 159 12 C77.82 12.495 77.82 12.495 -5 13 C-4 8 -4 8 0 0 Z " fill="#221E1F" transform="translate(33,275)"/>
<path d="M0 0 C54.12 0 108.24 0 164 0 C161 9 161 9 160 11 C151.95204642 12.37996367 143.79811318 12.13455522 135.65795898 12.11352539 C134.11970522 12.1132429 132.58145132 12.11340246 131.04319763 12.1139679 C126.89095848 12.11425345 122.73874854 12.10839593 118.58651614 12.10139394 C114.2383481 12.09512002 109.89017931 12.09455341 105.54200745 12.09336853 C97.31871315 12.09026709 89.09543223 12.08206976 80.87214381 12.07201904 C71.50573062 12.06082097 62.13931677 12.05533816 52.77289855 12.05032361 C33.51525813 12.03988611 14.25763014 12.02230974 -5 12 C-3.65731345 7.66208962 -2.06787321 4.13574643 0 0 Z " fill="#221E1F" transform="translate(21,306)"/>
<path d="M0 0 C54.12 0 108.24 0 164 0 C160 10 160 10 159 11 C150.91265879 12.24645328 142.81836252 12.13460753 134.65795898 12.11352539 C133.11970522 12.1132429 131.58145132 12.11340246 130.04319763 12.1139679 C125.89095848 12.11425345 121.73874854 12.10839593 117.58651614 12.10139394 C113.2383481 12.09512002 108.89017931 12.09455341 104.54200745 12.09336853 C96.31871315 12.09026709 88.09543223 12.08206976 79.87214381 12.07201904 C70.50573062 12.06082097 61.13931677 12.05533816 51.77289855 12.05032361 C32.51525792 12.03988611 13.25763053 12.02210703 -6 12 C-4.02 8.04 -2.04 4.08 0 0 Z " fill="#221E1F" transform="translate(756,306)"/>
<path d="M0 0 C24.42 0 48.84 0 74 0 C73 7 73 7 72 10 C61.44 10 50.88 10 40 10 C39.34 12.97 38.68 15.94 38 19 C37.51367785 20.70108609 37.00117961 22.3952276 36.44702148 24.07543945 C36.15560272 24.96628738 35.86418396 25.85713531 35.56393433 26.77497864 C35.25279694 27.7116185 34.94165955 28.64825836 34.62109375 29.61328125 C34.12852585 31.11401436 34.12852585 31.11401436 33.62600708 32.64506531 C32.56708863 35.8688473 31.50237082 39.09067985 30.4375 42.3125 C29.34642496 45.62791633 28.25675637 48.94379245 27.1672821 52.25973511 C26.44860754 54.44700375 25.72946371 56.63411826 25.00984192 58.82107544 C22.97417048 65.01232139 20.95718861 71.20889228 18.9765625 77.41796875 C18.76207962 78.08999832 18.54759674 78.76202789 18.32661438 79.454422 C17.37207874 82.44910327 16.42204995 85.44515311 15.47631836 88.44262695 C15.15542236 89.45156006 14.83452637 90.46049316 14.50390625 91.5 C14.23392822 92.3559375 13.9639502 93.211875 13.68579102 94.09375 C13 96 13 96 12 97 C9.98035801 97.07244053 7.95832876 97.08377188 5.9375 97.0625 C4.83277344 97.05347656 3.72804688 97.04445313 2.58984375 97.03515625 C1.73519531 97.02355469 0.88054687 97.01195312 0 97 C2.35820281 87.8102356 5.27664257 78.82619915 8.25390625 69.82421875 C8.76073364 68.28497608 9.26731584 66.74565265 9.77366638 65.20625305 C11.09708607 61.18504407 12.42385154 57.16494697 13.75134277 53.14508057 C15.10129777 49.05509275 16.44793843 44.96401407 17.79492188 40.87304688 C24.89411598 19.31765205 24.89411598 19.31765205 28 10 C18.1 10 8.2 10 -2 10 C-1.34 6.7 -0.68 3.4 0 0 Z " fill="#221E1F" transform="translate(461,278)"/>
</svg>
