<?xml version="1.0" standalone="no"?>
<!DOCTYPE svg PUBLIC "-//W3C//DTD SVG 20010904//EN"
 "http://www.w3.org/TR/2001/REC-SVG-20010904/DTD/svg10.dtd">
<svg version="1.0" xmlns="http://www.w3.org/2000/svg"
 width="2230.000000pt" height="414.000000pt" viewBox="0 0 2230.000000 414.000000"
 preserveAspectRatio="xMidYMid meet">

<g transform="translate(0.000000,414.000000) scale(0.100000,-0.100000)"
fill="#000000" stroke="none">
<path d="M1770 4119 c-265 -34 -565 -142 -800 -288 -504 -314 -850 -851 -947
-1472 -24 -158 -24 -463 1 -614 72 -441 249 -800 550 -1114 411 -427 944 -643
1526 -617 449 20 782 135 1121 388 598 446 901 1162 813 1918 -109 942 -848
1683 -1794 1800 -98 12 -375 11 -470 -1z m491 -84 c281 -37 589 -147 810 -290
591 -381 936 -1048 906 -1750 -28 -646 -355 -1239 -878 -1590 -340 -229 -800
-349 -1206 -316 -488 41 -901 228 -1233 561 -276 275 -471 643 -556 1045 -35
165 -44 466 -20 635 97 671 523 1257 1117 1534 185 86 416 153 604 174 124 14
339 13 456 -3z"/>
<path d="M2135 3623 c44 -105 68 -196 72 -278 6 -117 -8 -160 -64 -197 -23
-16 -45 -37 -48 -48 -9 -29 25 -96 89 -175 67 -83 106 -157 113 -217 10 -78
16 -82 76 -52 29 15 133 73 232 130 213 122 309 164 385 171 69 7 90 -9 90
-68 0 -76 -86 -145 -394 -316 -94 -52 -201 -115 -237 -139 -76 -50 -139 -115
-139 -143 0 -27 39 -71 76 -87 29 -12 40 -11 96 6 35 11 131 56 213 100 245
131 486 249 522 256 27 5 39 2 59 -17 42 -39 27 -86 -50 -157 -60 -56 -160
-120 -379 -245 l-179 -102 44 -35 c116 -93 164 -165 219 -329 44 -128 49 -131
178 -109 98 17 137 0 252 -109 58 -56 91 -80 94 -72 17 48 88 328 100 396 23
129 29 277 16 398 -41 385 -194 719 -452 990 -233 243 -484 378 -815 440 -167
30 -179 31 -169 8z"/>
<path d="M1725 3623 c-91 -20 -301 -101 -426 -163 -201 -102 -396 -270 -531
-460 -72 -102 -171 -291 -211 -405 -63 -178 -105 -468 -92 -640 18 -249 81
-485 129 -485 8 0 28 11 44 25 55 46 99 58 221 60 109 2 116 4 137 28 12 14
25 42 29 64 17 94 96 207 217 314 46 40 84 76 86 80 2 4 -23 22 -55 41 -32 19
-152 91 -267 159 -146 86 -229 142 -273 184 -68 65 -77 91 -47 134 37 52 154
11 458 -159 353 -196 488 -239 517 -163 5 14 6 41 3 61 -13 68 -107 139 -409
312 -350 199 -399 245 -365 335 33 88 172 41 570 -193 102 -60 186 -108 187
-107 2 0 7 34 13 74 12 86 46 162 104 233 75 93 81 123 45 224 -34 95 -31 177
14 313 44 131 41 142 -32 140 -25 -1 -55 -3 -66 -6z"/>
<path d="M1934 2768 c-71 -34 -68 -212 5 -291 52 -55 81 -54 138 6 38 40 43
51 43 91 0 55 -35 152 -66 183 -25 25 -81 30 -120 11z"/>
<path d="M1932 2153 c-37 -18 -82 -77 -82 -107 0 -26 45 -83 80 -101 42 -22
102 -19 133 6 61 47 58 161 -6 199 -39 24 -81 25 -125 3z"/>
<path d="M2414 1891 c-71 -41 -117 -96 -110 -130 9 -35 75 -95 142 -126 112
-53 245 -38 252 27 5 41 -44 124 -114 196 -73 73 -93 77 -170 33z"/>
<path d="M1465 1891 c-56 -25 -150 -114 -174 -164 -68 -140 40 -216 196 -140
28 14 68 43 89 64 30 31 38 47 42 88 6 68 -4 114 -33 145 -29 31 -63 33 -120
7z"/>
<path d="M1945 1616 c-84 -37 -93 -89 -124 -713 -6 -114 -14 -192 -23 -209
-18 -39 -61 -53 -96 -33 -43 23 -51 82 -64 434 -6 176 -12 321 -14 323 -1 2
-42 -17 -90 -41 -125 -62 -165 -70 -312 -62 l-123 7 -86 -91 c-49 -52 -111
-107 -142 -125 -79 -46 -78 -60 11 -147 189 -185 446 -352 643 -418 133 -44
242 -54 562 -49 266 5 282 6 366 31 157 48 349 149 500 264 62 47 307 281 307
294 0 3 -30 14 -67 24 -89 23 -161 66 -230 138 -30 33 -72 66 -91 74 -20 8
-92 19 -162 23 -147 10 -234 34 -304 85 -57 41 -81 44 -90 13 -4 -13 -11 -159
-16 -326 -9 -304 -19 -402 -46 -454 -14 -28 -60 -58 -88 -58 -23 0 -77 51 -92
87 -18 43 -18 215 1 553 15 254 13 334 -7 373 -11 21 -78 23 -123 3z"/>
<path d="M6873 4079 c-108 -12 -131 -22 -149 -64 -23 -57 -117 -380 -245 -850
-165 -602 -191 -688 -203 -674 -16 19 -145 460 -357 1222 l-93 337 -271 0
c-294 0 -517 -9 -536 -21 -9 -5 -6 -31 15 -106 42 -147 362 -1215 573 -1908
l185 -610 29 -700 c17 -384 31 -700 32 -701 5 -5 829 24 834 29 3 4 15 338 26
744 l19 738 243 740 c358 1089 558 1717 566 1775 4 22 -1 26 -46 38 -62 17
-503 25 -622 11z"/>
<path d="M8365 4080 c-71 -8 -103 -23 -115 -54 -15 -41 -730 -3664 -771 -3909
-11 -66 -11 -80 1 -87 24 -15 188 -21 479 -18 l285 3 98 459 c54 253 103 463
109 467 10 6 473 24 618 24 l54 0 39 -135 c21 -74 76 -272 123 -440 47 -168
90 -322 96 -343 l10 -38 349 3 c409 4 391 -1 373 95 -5 32 -187 941 -403 2021
l-393 1962 -446 -1 c-245 -1 -473 -5 -506 -9z m464 -1486 c55 -235 120 -575
128 -660 13 -153 -7 -174 -166 -174 -111 0 -148 11 -158 48 -17 68 125 988
148 965 5 -5 27 -85 48 -179z"/>
<path d="M14605 4068 c-3 -12 -77 -390 -165 -838 -89 -448 -267 -1348 -396
-1999 -159 -801 -232 -1187 -225 -1194 20 -20 113 -26 437 -26 l331 -1 45 188
c26 103 75 319 110 481 l63 293 100 -6 c55 -3 195 -8 310 -11 297 -8 265 4
298 -118 88 -325 220 -793 227 -801 5 -4 126 -13 271 -18 263 -10 418 -3 442
21 13 13 8 45 -140 811 -375 1952 -619 3169 -639 3192 -35 38 -75 41 -576 45
l-487 5 -6 -24z m550 -1375 c43 -147 175 -809 175 -877 0 -25 -6 -38 -19 -46
-30 -15 -351 -13 -351 3 0 6 6 46 14 87 8 41 35 217 60 390 59 402 77 500 96
500 5 0 16 -26 25 -57z"/>
<path d="M20422 4043 c-6 -27 -112 -565 -237 -1198 -124 -632 -298 -1513 -385
-1957 -88 -443 -160 -817 -160 -831 0 -43 33 -47 419 -47 l356 0 43 198 c24
108 68 317 99 465 l57 267 348 0 347 0 11 -37 c6 -21 62 -229 124 -463 l113
-425 344 0 c234 1 352 5 370 12 25 11 26 14 18 55 -4 24 -58 302 -120 618 -61
316 -238 1207 -393 1980 l-282 1405 -531 3 -531 2 -10 -47z m612 -1595 c128
-660 128 -660 116 -672 -17 -17 -255 -20 -305 -4 -37 12 -40 16 -43 53 -8 95
92 702 145 877 l16 53 13 -37 c7 -20 33 -142 58 -270z"/>
<path d="M10507 4043 c-4 -3 -7 -912 -7 -2020 l0 -2013 378 0 379 0 7 972 c4
535 11 978 15 985 4 8 17 -41 30 -109 95 -503 366 -1846 373 -1853 2 -2 133 3
292 10 185 8 291 16 295 23 4 6 44 220 90 474 106 593 247 1343 269 1433 l17
70 7 -70 c4 -38 10 -481 14 -983 l7 -912 353 0 354 0 0 2000 0 2000 -57 0
c-74 0 -997 -22 -1000 -24 -1 -1 -45 -192 -98 -425 -165 -732 -239 -1026 -282
-1121 l-20 -45 -11 39 c-20 69 -82 440 -171 1014 l-86 557 -571 3 c-314 1
-574 -1 -577 -5z"/>
<path d="M16880 2050 l0 -2000 415 0 415 0 0 810 0 810 355 0 355 0 0 -810 0
-810 420 0 420 0 -2 1997 -3 1998 -396 3 -396 2 -7 -667 c-3 -368 -9 -729 -13
-804 l-6 -136 -216 -7 c-119 -3 -282 -9 -363 -13 l-148 -6 0 817 0 816 -415 0
-415 0 0 -2000z"/>
</g>
</svg>
